<?xml version="1.0" encoding="UTF-8" standalone="no"?><svg xmlns="http://www.w3.org/2000/svg" xmlns:xlink="http://www.w3.org/1999/xlink" contentStyleType="text/css" height="624px" preserveAspectRatio="none" style="width:601px;height:624px;background:#FFFFFF;" version="1.1" viewBox="0 0 601 624" width="601px" zoomAndPan="magnify"><defs/><g><!--MD5=[254dae8c5770d06ac264924beb124d49]
cluster ViewModels--><g id="cluster_ViewModels"><rect fill="none" height="611" rx="2.5" ry="2.5" style="stroke:#181818;stroke-width:1.0;" width="588" x="7" y="7"/><text fill="#000000" font-family="sans-serif" font-size="14" font-weight="bold" lengthAdjust="spacing" textLength="85" x="258.5" y="23.5332">ViewModels</text></g><!--MD5=[9d0edf3fa93b0f01bff95c9e97bfe8aa]
cluster Containers--><g id="cluster_Containers"><rect fill="none" height="135" rx="2.5" ry="2.5" style="stroke:#181818;stroke-width:1.0;" width="284" x="54" y="51"/><text fill="#000000" font-family="sans-serif" font-size="14" font-weight="bold" lengthAdjust="spacing" textLength="77" x="157.5" y="67.5332">Containers</text></g><!--MD5=[415b3888c17057bfff79e12a5da47568]
class timerVM--><g id="elem_timerVM"><rect codeLine="11" fill="#F1F1F1" height="48" id="timerVM" rx="2.5" ry="2.5" style="stroke:#181818;stroke-width:0.5;" width="135" x="99.5" y="230"/><ellipse cx="114.5" cy="246" fill="#ADD1B2" rx="11" ry="11" style="stroke:#181818;stroke-width:1.0;"/><path d="M117.2656,241.875 Q117.4219,241.6563 117.6094,241.5469 Q117.7969,241.4375 118.0156,241.4375 Q118.3906,241.4375 118.625,241.7031 Q118.8594,241.9531 118.8594,242.5625 L118.8594,244.0156 Q118.8594,244.625 118.625,244.8906 Q118.3906,245.1563 118.0156,245.1563 Q117.6719,245.1563 117.4688,244.9531 Q117.2656,244.7656 117.1563,244.25 Q117.1094,243.8906 116.9219,243.7031 Q116.5938,243.3281 115.9844,243.1094 Q115.375,242.8906 114.75,242.8906 Q113.9844,242.8906 113.3438,243.2188 Q112.7188,243.5469 112.2188,244.2969 Q111.7344,245.0469 111.7344,246.0781 L111.7344,247.1719 Q111.7344,248.4063 112.625,249.2344 Q113.5156,250.0469 115.1094,250.0469 Q116.0469,250.0469 116.7031,249.7969 Q117.0938,249.6406 117.5156,249.2031 Q117.7813,248.9375 117.9219,248.8594 Q118.0781,248.7813 118.2813,248.7813 Q118.6094,248.7813 118.8594,249.0469 Q119.125,249.2969 119.125,249.6406 Q119.125,249.9844 118.7813,250.3906 Q118.2813,250.9688 117.4844,251.2969 Q116.4063,251.75 115.1094,251.75 Q113.5938,251.75 112.3906,251.125 Q111.4063,250.625 110.7188,249.5625 Q110.0313,248.4844 110.0313,247.2031 L110.0313,246.0469 Q110.0313,244.7188 110.6406,243.5781 Q111.2656,242.4219 112.3594,241.8125 Q113.4531,241.1875 114.6875,241.1875 Q115.4219,241.1875 116.0625,241.3594 Q116.7188,241.5156 117.2656,241.875 Z " fill="#000000"/><text fill="#000000" font-family="sans-serif" font-size="14" lengthAdjust="spacing" textLength="103" x="128.5" y="251.7285">TimerViewModel</text><line style="stroke:#181818;stroke-width:0.5;" x1="100.5" x2="233.5" y1="262" y2="262"/><line style="stroke:#181818;stroke-width:0.5;" x1="100.5" x2="233.5" y1="270" y2="270"/></g><!--MD5=[7cac8fe2fab72a2c0f1517cb7fc6106c]
class timeForm--><g id="elem_timeForm"><rect codeLine="15" fill="#F1F1F1" height="48" id="timeForm" rx="2.5" ry="2.5" style="stroke:#181818;stroke-width:0.5;" width="163" x="23.5" y="554"/><ellipse cx="38.5" cy="570" fill="#ADD1B2" rx="11" ry="11" style="stroke:#181818;stroke-width:1.0;"/><path d="M41.2656,565.875 Q41.4219,565.6563 41.6094,565.5469 Q41.7969,565.4375 42.0156,565.4375 Q42.3906,565.4375 42.625,565.7031 Q42.8594,565.9531 42.8594,566.5625 L42.8594,568.0156 Q42.8594,568.625 42.625,568.8906 Q42.3906,569.1563 42.0156,569.1563 Q41.6719,569.1563 41.4688,568.9531 Q41.2656,568.7656 41.1563,568.25 Q41.1094,567.8906 40.9219,567.7031 Q40.5938,567.3281 39.9844,567.1094 Q39.375,566.8906 38.75,566.8906 Q37.9844,566.8906 37.3438,567.2188 Q36.7188,567.5469 36.2188,568.2969 Q35.7344,569.0469 35.7344,570.0781 L35.7344,571.1719 Q35.7344,572.4063 36.625,573.2344 Q37.5156,574.0469 39.1094,574.0469 Q40.0469,574.0469 40.7031,573.7969 Q41.0938,573.6406 41.5156,573.2031 Q41.7813,572.9375 41.9219,572.8594 Q42.0781,572.7813 42.2813,572.7813 Q42.6094,572.7813 42.8594,573.0469 Q43.125,573.2969 43.125,573.6406 Q43.125,573.9844 42.7813,574.3906 Q42.2813,574.9688 41.4844,575.2969 Q40.4063,575.75 39.1094,575.75 Q37.5938,575.75 36.3906,575.125 Q35.4063,574.625 34.7188,573.5625 Q34.0313,572.4844 34.0313,571.2031 L34.0313,570.0469 Q34.0313,568.7188 34.6406,567.5781 Q35.2656,566.4219 36.3594,565.8125 Q37.4531,565.1875 38.6875,565.1875 Q39.4219,565.1875 40.0625,565.3594 Q40.7188,565.5156 41.2656,565.875 Z " fill="#000000"/><text fill="#000000" font-family="sans-serif" font-size="14" lengthAdjust="spacing" textLength="131" x="52.5" y="575.7285">TimeFormViewModel</text><line style="stroke:#181818;stroke-width:0.5;" x1="24.5" x2="185.5" y1="586" y2="586"/><line style="stroke:#181818;stroke-width:0.5;" x1="24.5" x2="185.5" y1="594" y2="594"/></g><!--MD5=[2e389f8076d889f0ed73583d4b731135]
class projectForm--><g id="elem_projectForm"><rect codeLine="19" fill="#F1F1F1" height="48" id="projectForm" rx="2.5" ry="2.5" style="stroke:#181818;stroke-width:0.5;" width="176" x="222" y="554"/><ellipse cx="237" cy="570" fill="#ADD1B2" rx="11" ry="11" style="stroke:#181818;stroke-width:1.0;"/><path d="M239.7656,565.875 Q239.9219,565.6563 240.1094,565.5469 Q240.2969,565.4375 240.5156,565.4375 Q240.8906,565.4375 241.125,565.7031 Q241.3594,565.9531 241.3594,566.5625 L241.3594,568.0156 Q241.3594,568.625 241.125,568.8906 Q240.8906,569.1563 240.5156,569.1563 Q240.1719,569.1563 239.9688,568.9531 Q239.7656,568.7656 239.6563,568.25 Q239.6094,567.8906 239.4219,567.7031 Q239.0938,567.3281 238.4844,567.1094 Q237.875,566.8906 237.25,566.8906 Q236.4844,566.8906 235.8438,567.2188 Q235.2188,567.5469 234.7188,568.2969 Q234.2344,569.0469 234.2344,570.0781 L234.2344,571.1719 Q234.2344,572.4063 235.125,573.2344 Q236.0156,574.0469 237.6094,574.0469 Q238.5469,574.0469 239.2031,573.7969 Q239.5938,573.6406 240.0156,573.2031 Q240.2813,572.9375 240.4219,572.8594 Q240.5781,572.7813 240.7813,572.7813 Q241.1094,572.7813 241.3594,573.0469 Q241.625,573.2969 241.625,573.6406 Q241.625,573.9844 241.2813,574.3906 Q240.7813,574.9688 239.9844,575.2969 Q238.9063,575.75 237.6094,575.75 Q236.0938,575.75 234.8906,575.125 Q233.9063,574.625 233.2188,573.5625 Q232.5313,572.4844 232.5313,571.2031 L232.5313,570.0469 Q232.5313,568.7188 233.1406,567.5781 Q233.7656,566.4219 234.8594,565.8125 Q235.9531,565.1875 237.1875,565.1875 Q237.9219,565.1875 238.5625,565.3594 Q239.2188,565.5156 239.7656,565.875 Z " fill="#000000"/><text fill="#000000" font-family="sans-serif" font-size="14" lengthAdjust="spacing" textLength="144" x="251" y="575.7285">ProjectFromViewModel</text><line style="stroke:#181818;stroke-width:0.5;" x1="223" x2="397" y1="586" y2="586"/><line style="stroke:#181818;stroke-width:0.5;" x1="223" x2="397" y1="594" y2="594"/></g><!--MD5=[45731c52b683841492ff7863614af8d9]
class recordEdit--><g id="elem_recordEdit"><rect codeLine="23" fill="#F1F1F1" height="48" id="recordEdit" rx="2.5" ry="2.5" style="stroke:#181818;stroke-width:0.5;" width="197" x="211.5" y="446"/><ellipse cx="226.5" cy="462" fill="#ADD1B2" rx="11" ry="11" style="stroke:#181818;stroke-width:1.0;"/><path d="M229.2656,457.875 Q229.4219,457.6563 229.6094,457.5469 Q229.7969,457.4375 230.0156,457.4375 Q230.3906,457.4375 230.625,457.7031 Q230.8594,457.9531 230.8594,458.5625 L230.8594,460.0156 Q230.8594,460.625 230.625,460.8906 Q230.3906,461.1563 230.0156,461.1563 Q229.6719,461.1563 229.4688,460.9531 Q229.2656,460.7656 229.1563,460.25 Q229.1094,459.8906 228.9219,459.7031 Q228.5938,459.3281 227.9844,459.1094 Q227.375,458.8906 226.75,458.8906 Q225.9844,458.8906 225.3438,459.2188 Q224.7188,459.5469 224.2188,460.2969 Q223.7344,461.0469 223.7344,462.0781 L223.7344,463.1719 Q223.7344,464.4063 224.625,465.2344 Q225.5156,466.0469 227.1094,466.0469 Q228.0469,466.0469 228.7031,465.7969 Q229.0938,465.6406 229.5156,465.2031 Q229.7813,464.9375 229.9219,464.8594 Q230.0781,464.7813 230.2813,464.7813 Q230.6094,464.7813 230.8594,465.0469 Q231.125,465.2969 231.125,465.6406 Q231.125,465.9844 230.7813,466.3906 Q230.2813,466.9688 229.4844,467.2969 Q228.4063,467.75 227.1094,467.75 Q225.5938,467.75 224.3906,467.125 Q223.4063,466.625 222.7188,465.5625 Q222.0313,464.4844 222.0313,463.2031 L222.0313,462.0469 Q222.0313,460.7188 222.6406,459.5781 Q223.2656,458.4219 224.3594,457.8125 Q225.4531,457.1875 226.6875,457.1875 Q227.4219,457.1875 228.0625,457.3594 Q228.7188,457.5156 229.2656,457.875 Z " fill="#000000"/><text fill="#000000" font-family="sans-serif" font-size="14" lengthAdjust="spacing" textLength="165" x="240.5" y="467.7285">RecordViewModelWithEdit</text><line style="stroke:#181818;stroke-width:0.5;" x1="212.5" x2="407.5" y1="478" y2="478"/><line style="stroke:#181818;stroke-width:0.5;" x1="212.5" x2="407.5" y1="486" y2="486"/></g><!--MD5=[07300316266dd8396fb1a58af3d74275]
class recordVM--><g id="elem_recordVM"><rect codeLine="27" fill="#F1F1F1" height="48" id="recordVM" rx="2.5" ry="2.5" style="stroke:#181818;stroke-width:0.5;" width="145" x="433.5" y="554"/><ellipse cx="448.5" cy="570" fill="#ADD1B2" rx="11" ry="11" style="stroke:#181818;stroke-width:1.0;"/><path d="M451.2656,565.875 Q451.4219,565.6563 451.6094,565.5469 Q451.7969,565.4375 452.0156,565.4375 Q452.3906,565.4375 452.625,565.7031 Q452.8594,565.9531 452.8594,566.5625 L452.8594,568.0156 Q452.8594,568.625 452.625,568.8906 Q452.3906,569.1563 452.0156,569.1563 Q451.6719,569.1563 451.4688,568.9531 Q451.2656,568.7656 451.1563,568.25 Q451.1094,567.8906 450.9219,567.7031 Q450.5938,567.3281 449.9844,567.1094 Q449.375,566.8906 448.75,566.8906 Q447.9844,566.8906 447.3438,567.2188 Q446.7188,567.5469 446.2188,568.2969 Q445.7344,569.0469 445.7344,570.0781 L445.7344,571.1719 Q445.7344,572.4063 446.625,573.2344 Q447.5156,574.0469 449.1094,574.0469 Q450.0469,574.0469 450.7031,573.7969 Q451.0938,573.6406 451.5156,573.2031 Q451.7813,572.9375 451.9219,572.8594 Q452.0781,572.7813 452.2813,572.7813 Q452.6094,572.7813 452.8594,573.0469 Q453.125,573.2969 453.125,573.6406 Q453.125,573.9844 452.7813,574.3906 Q452.2813,574.9688 451.4844,575.2969 Q450.4063,575.75 449.1094,575.75 Q447.5938,575.75 446.3906,575.125 Q445.4063,574.625 444.7188,573.5625 Q444.0313,572.4844 444.0313,571.2031 L444.0313,570.0469 Q444.0313,568.7188 444.6406,567.5781 Q445.2656,566.4219 446.3594,565.8125 Q447.4531,565.1875 448.6875,565.1875 Q449.4219,565.1875 450.0625,565.3594 Q450.7188,565.5156 451.2656,565.875 Z " fill="#000000"/><text fill="#000000" font-family="sans-serif" font-size="14" lengthAdjust="spacing" textLength="113" x="462.5" y="575.7285">RecordViewModel</text><line style="stroke:#181818;stroke-width:0.5;" x1="434.5" x2="577.5" y1="586" y2="586"/><line style="stroke:#181818;stroke-width:0.5;" x1="434.5" x2="577.5" y1="594" y2="594"/></g><!--MD5=[7a125bc4bfc1fa6855f03071ed533aac]
class editableRecordVM--><g id="elem_editableRecordVM"><rect codeLine="31" fill="#F1F1F1" height="48" id="editableRecordVM" rx="2.5" ry="2.5" style="stroke:#181818;stroke-width:0.5;" width="196" x="227" y="338"/><ellipse cx="242" cy="354" fill="#ADD1B2" rx="11" ry="11" style="stroke:#181818;stroke-width:1.0;"/><path d="M244.7656,349.875 Q244.9219,349.6563 245.1094,349.5469 Q245.2969,349.4375 245.5156,349.4375 Q245.8906,349.4375 246.125,349.7031 Q246.3594,349.9531 246.3594,350.5625 L246.3594,352.0156 Q246.3594,352.625 246.125,352.8906 Q245.8906,353.1563 245.5156,353.1563 Q245.1719,353.1563 244.9688,352.9531 Q244.7656,352.7656 244.6563,352.25 Q244.6094,351.8906 244.4219,351.7031 Q244.0938,351.3281 243.4844,351.1094 Q242.875,350.8906 242.25,350.8906 Q241.4844,350.8906 240.8438,351.2188 Q240.2188,351.5469 239.7188,352.2969 Q239.2344,353.0469 239.2344,354.0781 L239.2344,355.1719 Q239.2344,356.4063 240.125,357.2344 Q241.0156,358.0469 242.6094,358.0469 Q243.5469,358.0469 244.2031,357.7969 Q244.5938,357.6406 245.0156,357.2031 Q245.2813,356.9375 245.4219,356.8594 Q245.5781,356.7813 245.7813,356.7813 Q246.1094,356.7813 246.3594,357.0469 Q246.625,357.2969 246.625,357.6406 Q246.625,357.9844 246.2813,358.3906 Q245.7813,358.9688 244.9844,359.2969 Q243.9063,359.75 242.6094,359.75 Q241.0938,359.75 239.8906,359.125 Q238.9063,358.625 238.2188,357.5625 Q237.5313,356.4844 237.5313,355.2031 L237.5313,354.0469 Q237.5313,352.7188 238.1406,351.5781 Q238.7656,350.4219 239.8594,349.8125 Q240.9531,349.1875 242.1875,349.1875 Q242.9219,349.1875 243.5625,349.3594 Q244.2188,349.5156 244.7656,349.875 Z " fill="#000000"/><text fill="#000000" font-family="sans-serif" font-size="14" lengthAdjust="spacing" textLength="164" x="256" y="359.7285">EditableRecordViewModel</text><line style="stroke:#181818;stroke-width:0.5;" x1="228" x2="422" y1="370" y2="370"/><line style="stroke:#181818;stroke-width:0.5;" x1="228" x2="422" y1="378" y2="378"/></g><!--MD5=[d6cf02d3a3d45fd28e4251fb6ba5e3e3]
class listing--><g id="elem_listing"><rect codeLine="35" fill="#F1F1F1" height="48" id="listing" rx="2.5" ry="2.5" style="stroke:#181818;stroke-width:0.5;" width="186" x="270" y="230"/><ellipse cx="285" cy="246" fill="#ADD1B2" rx="11" ry="11" style="stroke:#181818;stroke-width:1.0;"/><path d="M287.7656,241.875 Q287.9219,241.6563 288.1094,241.5469 Q288.2969,241.4375 288.5156,241.4375 Q288.8906,241.4375 289.125,241.7031 Q289.3594,241.9531 289.3594,242.5625 L289.3594,244.0156 Q289.3594,244.625 289.125,244.8906 Q288.8906,245.1563 288.5156,245.1563 Q288.1719,245.1563 287.9688,244.9531 Q287.7656,244.7656 287.6563,244.25 Q287.6094,243.8906 287.4219,243.7031 Q287.0938,243.3281 286.4844,243.1094 Q285.875,242.8906 285.25,242.8906 Q284.4844,242.8906 283.8438,243.2188 Q283.2188,243.5469 282.7188,244.2969 Q282.2344,245.0469 282.2344,246.0781 L282.2344,247.1719 Q282.2344,248.4063 283.125,249.2344 Q284.0156,250.0469 285.6094,250.0469 Q286.5469,250.0469 287.2031,249.7969 Q287.5938,249.6406 288.0156,249.2031 Q288.2813,248.9375 288.4219,248.8594 Q288.5781,248.7813 288.7813,248.7813 Q289.1094,248.7813 289.3594,249.0469 Q289.625,249.2969 289.625,249.6406 Q289.625,249.9844 289.2813,250.3906 Q288.7813,250.9688 287.9844,251.2969 Q286.9063,251.75 285.6094,251.75 Q284.0938,251.75 282.8906,251.125 Q281.9063,250.625 281.2188,249.5625 Q280.5313,248.4844 280.5313,247.2031 L280.5313,246.0469 Q280.5313,244.7188 281.1406,243.5781 Q281.7656,242.4219 282.8594,241.8125 Q283.9531,241.1875 285.1875,241.1875 Q285.9219,241.1875 286.5625,241.3594 Q287.2188,241.5156 287.7656,241.875 Z " fill="#000000"/><text fill="#000000" font-family="sans-serif" font-size="14" lengthAdjust="spacing" textLength="154" x="299" y="251.7285">ListingRecordViewModel</text><line style="stroke:#181818;stroke-width:0.5;" x1="271" x2="455" y1="262" y2="262"/><line style="stroke:#181818;stroke-width:0.5;" x1="271" x2="455" y1="270" y2="270"/></g><!--MD5=[5435c7a9a590b85abf35af369d8df499]
class timerLayout--><g id="elem_timerLayout"><rect codeLine="5" fill="#F1F1F1" height="83.2188" id="timerLayout" rx="2.5" ry="2.5" style="stroke:#181818;stroke-width:0.5;" width="252" x="70" y="87"/><ellipse cx="118.75" cy="103" fill="#ADD1B2" rx="11" ry="11" style="stroke:#181818;stroke-width:1.0;"/><path d="M121.5156,98.875 Q121.6719,98.6563 121.8594,98.5469 Q122.0469,98.4375 122.2656,98.4375 Q122.6406,98.4375 122.875,98.7031 Q123.1094,98.9531 123.1094,99.5625 L123.1094,101.0156 Q123.1094,101.625 122.875,101.8906 Q122.6406,102.1563 122.2656,102.1563 Q121.9219,102.1563 121.7188,101.9531 Q121.5156,101.7656 121.4063,101.25 Q121.3594,100.8906 121.1719,100.7031 Q120.8438,100.3281 120.2344,100.1094 Q119.625,99.8906 119,99.8906 Q118.2344,99.8906 117.5938,100.2188 Q116.9688,100.5469 116.4688,101.2969 Q115.9844,102.0469 115.9844,103.0781 L115.9844,104.1719 Q115.9844,105.4063 116.875,106.2344 Q117.7656,107.0469 119.3594,107.0469 Q120.2969,107.0469 120.9531,106.7969 Q121.3438,106.6406 121.7656,106.2031 Q122.0313,105.9375 122.1719,105.8594 Q122.3281,105.7813 122.5313,105.7813 Q122.8594,105.7813 123.1094,106.0469 Q123.375,106.2969 123.375,106.6406 Q123.375,106.9844 123.0313,107.3906 Q122.5313,107.9688 121.7344,108.2969 Q120.6563,108.75 119.3594,108.75 Q117.8438,108.75 116.6406,108.125 Q115.6563,107.625 114.9688,106.5625 Q114.2813,105.4844 114.2813,104.2031 L114.2813,103.0469 Q114.2813,101.7188 114.8906,100.5781 Q115.5156,99.4219 116.6094,98.8125 Q117.7031,98.1875 118.9375,98.1875 Q119.6719,98.1875 120.3125,98.3594 Q120.9688,98.5156 121.5156,98.875 Z " fill="#000000"/><text fill="#000000" font-family="sans-serif" font-size="14" lengthAdjust="spacing" textLength="146" x="139.25" y="108.7285">TimerLayoutViewModel</text><line style="stroke:#181818;stroke-width:0.5;" x1="71" x2="321" y1="119" y2="119"/><ellipse cx="81" cy="133.3047" fill="none" rx="3" ry="3" style="stroke:#038048;stroke-width:1.0;"/><text fill="#000000" font-family="sans-serif" font-size="14" lengthAdjust="spacing" textLength="214" x="90" y="137.5332">TimerViewModel : ViewModelBase</text><ellipse cx="81" cy="150.9141" fill="none" rx="3" ry="3" style="stroke:#038048;stroke-width:1.0;"/><text fill="#000000" font-family="sans-serif" font-size="14" lengthAdjust="spacing" textLength="226" x="90" y="155.1426">CurrentViewModel : ViewModelBase</text><line style="stroke:#181818;stroke-width:0.5;" x1="71" x2="321" y1="162.2188" y2="162.2188"/></g><!--MD5=[865a5344e6626521e6be2de9f77de0b8]
link timerVM to recordEdit--><g id="link_timerVM_recordEdit"><path codeLine="38" d="M170.55,278.03 C175.65,305.63 187.1,352.36 210,386 C222.35,404.14 239.74,420.48 256.57,433.76 " fill="none" id="timerVM-to-recordEdit" style="stroke:#181818;stroke-width:1.0;"/><polygon fill="none" points="260.82,428.19,272.68,445.75,252.45,439.42,260.82,428.19" style="stroke:#181818;stroke-width:1.0;"/></g><!--MD5=[1b360f684a1e3732b9f313b2489e7ca7]
link recordEdit to recordVM--><g id="link_recordEdit_recordVM"><path codeLine="39" d="M352.53,494 C379.66,508.67 415.25,527.92 445.33,544.19 " fill="none" id="recordEdit-to-recordVM" style="stroke:#181818;stroke-width:1.0;"/><polygon fill="none" points="448.95,538.19,463.22,553.86,442.29,550.5,448.95,538.19" style="stroke:#181818;stroke-width:1.0;"/></g><!--MD5=[fc8d5f8f94bcb4185c86d9d5595686e9]
link editableRecordVM to recordEdit--><g id="link_editableRecordVM_recordEdit"><path codeLine="40" d="M321.75,386 C320.11,397.59 318.06,412.03 316.14,425.6 " fill="none" id="editableRecordVM-to-recordEdit" style="stroke:#181818;stroke-width:1.0;"/><polygon fill="none" points="323.03,426.86,313.3,445.68,309.17,424.89,323.03,426.86" style="stroke:#181818;stroke-width:1.0;"/></g><!--MD5=[ab41e51c49ec01b2a36b9bb205af9527]
reverse link timerLayout to timerVM--><g id="link_timerLayout_timerVM"><path codeLine="42" d="M183.4,183.16 C179.55,199.55 175.52,216.71 172.42,229.91 " fill="none" id="timerLayout-backto-timerVM" style="stroke:#181818;stroke-width:1.0;"/><polygon fill="none" points="186.42,170.28,181.1546,175.207,183.6774,181.9624,188.9428,177.0354,186.42,170.28" style="stroke:#181818;stroke-width:1.0;"/></g><!--MD5=[0dedae68a3158ae1ef7b794d1caadf53]
reverse link recordEdit to timeForm--><g id="link_recordEdit_timeForm"><path codeLine="43" d="M253.84,500.04 C221.09,516.98 180.33,538.05 149.75,553.86 " fill="none" id="recordEdit-backto-timeForm" style="stroke:#181818;stroke-width:1.0;"/><polygon fill="none" points="265.52,494,258.3529,493.2041,254.8618,499.5138,262.0288,500.3096,265.52,494" style="stroke:#181818;stroke-width:1.0;"/></g><!--MD5=[c0f3583fb1fd7b12b8880c0b39186e67]
reverse link recordEdit to projectForm--><g id="link_recordEdit_projectForm"><path codeLine="44" d="M310,507.34 C310,522.68 310,540.1 310,553.68 " fill="none" id="recordEdit-backto-projectForm" style="stroke:#181818;stroke-width:1.0;"/><polygon fill="none" points="310,494,306,500,310,506,314,500,310,494" style="stroke:#181818;stroke-width:1.0;"/></g><!--MD5=[a65251fde9138a259ebe44a961926ef6]
reverse link timerLayout to listing--><g id="link_timerLayout_listing"><path codeLine="46" d="M261.7,178.09 C285.84,195.94 312.07,215.33 331.78,229.91 " fill="none" id="timerLayout-backto-listing" style="stroke:#181818;stroke-width:1.0;"/><polygon fill="none" points="251.14,170.28,253.5878,177.063,260.7904,177.4123,258.3426,170.6294,251.14,170.28" style="stroke:#181818;stroke-width:1.0;"/></g><!--MD5=[683bc6fb2bd7cbb01dd7b056cd9d185e]
link listing to editableRecordVM--><g id="link_listing_editableRecordVM"><path codeLine="48" d="M354.75,278 C348.97,294.14 341.2,315.82 335.05,332.97 " fill="none" id="listing-to-editableRecordVM" style="stroke:#181818;stroke-width:1.0;"/><polygon fill="#181818" points="333.36,337.68,340.1567,330.5523,335.0435,332.9719,332.6238,327.8587,333.36,337.68" style="stroke:#181818;stroke-width:1.0;"/><text fill="#000000" font-family="sans-serif" font-size="13" lengthAdjust="spacing" textLength="7" x="344.8859" y="299.338">1</text><text fill="#000000" font-family="sans-serif" font-size="13" lengthAdjust="spacing" textLength="5" x="329.7884" y="327.34">*</text></g><!--MD5=[68ef26efedc89213bc7e4a357da71dda]
@startuml

rectangle ViewModels {

    rectangle Containers {
        class "TimerLayoutViewModel" as timerLayout {
            + TimerViewModel : ViewModelBase
            + CurrentViewModel : ViewModelBase
        }
    }

    class "TimerViewModel" as timerVM{

    }

    class "TimeFormViewModel" as timeForm{

    }

    class "ProjectFromViewModel" as projectForm{

    }

    class "RecordViewModelWithEdit" as recordEdit{

    }

    class "RecordViewModel" as recordVM{

    }

    class "EditableRecordViewModel" as editableRecordVM{

    }

    class "ListingRecordViewModel" as listing {

    }
    timerVM - -|> recordEdit
    recordEdit - -|> recordVM
    editableRecordVM - -|> recordEdit

    timerLayout o- - timerVM
    recordEdit o- - timeForm
    recordEdit o- - projectForm

    timerLayout o- - listing

    listing "1"  - -> "*" editableRecordVM

}
@enduml

PlantUML version 1.2022.7(Mon Aug 22 22:01:30 YEKT 2022)
(GPL source distribution)
Java Runtime: OpenJDK Runtime Environment
JVM: OpenJDK 64-Bit Server VM
Default Encoding: Cp1251
Language: ru
Country: RU
--></g></svg>