<?xml version="1.0" encoding="UTF-8" standalone="no"?><svg xmlns="http://www.w3.org/2000/svg" xmlns:xlink="http://www.w3.org/1999/xlink" contentStyleType="text/css" height="185px" preserveAspectRatio="none" style="width:2543px;height:185px;background:#FFFFFF;" version="1.1" viewBox="0 0 2543 185" width="2543px" zoomAndPan="magnify"><defs/><g><!--MD5=[254dae8c5770d06ac264924beb124d49]
cluster ViewModels--><g id="cluster_ViewModels"><rect fill="none" height="100" rx="2.5" ry="2.5" style="stroke:#181818;stroke-width:1.0;" width="585" x="146.5" y="79"/><text fill="#000000" font-family="sans-serif" font-size="14" font-weight="bold" lengthAdjust="spacing" textLength="85" x="396.5" y="95.5332">ViewModels</text></g><!--MD5=[8dd535d56cd4cf7faf64fdd082ba836e]
cluster Stores--><g id="cluster_Stores"><rect fill="none" height="100" rx="2.5" ry="2.5" style="stroke:#181818;stroke-width:1.0;" width="474" x="755.5" y="79"/><text fill="#000000" font-family="sans-serif" font-size="14" font-weight="bold" lengthAdjust="spacing" textLength="46" x="969.5" y="95.5332">Stores</text></g><!--MD5=[cdfd548b3455e70392372b1f27091970]
cluster Services--><g id="cluster_Services"><rect fill="none" height="100" rx="2.5" ry="2.5" style="stroke:#181818;stroke-width:1.0;" width="505" x="1253.5" y="79"/><text fill="#000000" font-family="sans-serif" font-size="14" font-weight="bold" lengthAdjust="spacing" textLength="62" x="1475" y="95.5332">Services</text></g><!--MD5=[38fafe1c5fedc68ad82ab00b7d2694c5]
cluster Validators--><g id="cluster_Validators"><rect fill="none" height="100" rx="2.5" ry="2.5" style="stroke:#181818;stroke-width:1.0;" width="150" x="1782.5" y="79"/><text fill="#000000" font-family="sans-serif" font-size="14" font-weight="bold" lengthAdjust="spacing" textLength="70" x="1822.5" y="95.5332">Validators</text></g><!--MD5=[71971f99a41bb66cf321ce46bb59f738]
cluster Repository--><g id="cluster_Repository"><rect fill="none" height="100" rx="2.5" ry="2.5" style="stroke:#181818;stroke-width:1.0;" width="192" x="1956.5" y="79"/><text fill="#000000" font-family="sans-serif" font-size="14" font-weight="bold" lengthAdjust="spacing" textLength="76" x="2014.5" y="95.5332">Repository</text></g><!--MD5=[13deee7bba1140ca9d8aad9bd20b3c41]
cluster Factories--><g id="cluster_Factories"><rect fill="none" height="100" rx="2.5" ry="2.5" style="stroke:#181818;stroke-width:1.0;" width="365" x="2172.5" y="79"/><text fill="#000000" font-family="sans-serif" font-size="14" font-weight="bold" lengthAdjust="spacing" textLength="66" x="2322" y="95.5332">Factories</text></g><!--MD5=[39630ad2c9dffe26e565bdba0612967c]
class TimerViewModel--><g id="elem_TimerViewModel"><rect codeLine="12" fill="#F1F1F1" height="48" id="TimerViewModel" rx="2.5" ry="2.5" style="stroke:#181818;stroke-width:0.5;" width="135" x="580" y="115"/><ellipse cx="595" cy="131" fill="#ADD1B2" rx="11" ry="11" style="stroke:#181818;stroke-width:1.0;"/><path d="M597.7656,126.875 Q597.9219,126.6563 598.1094,126.5469 Q598.2969,126.4375 598.5156,126.4375 Q598.8906,126.4375 599.125,126.7031 Q599.3594,126.9531 599.3594,127.5625 L599.3594,129.0156 Q599.3594,129.625 599.125,129.8906 Q598.8906,130.1563 598.5156,130.1563 Q598.1719,130.1563 597.9688,129.9531 Q597.7656,129.7656 597.6563,129.25 Q597.6094,128.8906 597.4219,128.7031 Q597.0938,128.3281 596.4844,128.1094 Q595.875,127.8906 595.25,127.8906 Q594.4844,127.8906 593.8438,128.2188 Q593.2188,128.5469 592.7188,129.2969 Q592.2344,130.0469 592.2344,131.0781 L592.2344,132.1719 Q592.2344,133.4063 593.125,134.2344 Q594.0156,135.0469 595.6094,135.0469 Q596.5469,135.0469 597.2031,134.7969 Q597.5938,134.6406 598.0156,134.2031 Q598.2813,133.9375 598.4219,133.8594 Q598.5781,133.7813 598.7813,133.7813 Q599.1094,133.7813 599.3594,134.0469 Q599.625,134.2969 599.625,134.6406 Q599.625,134.9844 599.2813,135.3906 Q598.7813,135.9688 597.9844,136.2969 Q596.9063,136.75 595.6094,136.75 Q594.0938,136.75 592.8906,136.125 Q591.9063,135.625 591.2188,134.5625 Q590.5313,133.4844 590.5313,132.2031 L590.5313,131.0469 Q590.5313,129.7188 591.1406,128.5781 Q591.7656,127.4219 592.8594,126.8125 Q593.9531,126.1875 595.1875,126.1875 Q595.9219,126.1875 596.5625,126.3594 Q597.2188,126.5156 597.7656,126.875 Z " fill="#000000"/><text fill="#000000" font-family="sans-serif" font-size="14" lengthAdjust="spacing" textLength="103" x="609" y="136.7285">TimerViewModel</text><line style="stroke:#181818;stroke-width:0.5;" x1="581" x2="714" y1="147" y2="147"/><line style="stroke:#181818;stroke-width:0.5;" x1="581" x2="714" y1="155" y2="155"/></g><!--MD5=[2b7735645626c61aab2f02a3c0a851c1]
class NoteListingViewModel--><g id="elem_NoteListingViewModel"><rect codeLine="13" fill="#F1F1F1" height="48" id="NoteListingViewModel" rx="2.5" ry="2.5" style="stroke:#181818;stroke-width:0.5;" width="169" x="376" y="115"/><ellipse cx="391" cy="131" fill="#ADD1B2" rx="11" ry="11" style="stroke:#181818;stroke-width:1.0;"/><path d="M393.7656,126.875 Q393.9219,126.6563 394.1094,126.5469 Q394.2969,126.4375 394.5156,126.4375 Q394.8906,126.4375 395.125,126.7031 Q395.3594,126.9531 395.3594,127.5625 L395.3594,129.0156 Q395.3594,129.625 395.125,129.8906 Q394.8906,130.1563 394.5156,130.1563 Q394.1719,130.1563 393.9688,129.9531 Q393.7656,129.7656 393.6563,129.25 Q393.6094,128.8906 393.4219,128.7031 Q393.0938,128.3281 392.4844,128.1094 Q391.875,127.8906 391.25,127.8906 Q390.4844,127.8906 389.8438,128.2188 Q389.2188,128.5469 388.7188,129.2969 Q388.2344,130.0469 388.2344,131.0781 L388.2344,132.1719 Q388.2344,133.4063 389.125,134.2344 Q390.0156,135.0469 391.6094,135.0469 Q392.5469,135.0469 393.2031,134.7969 Q393.5938,134.6406 394.0156,134.2031 Q394.2813,133.9375 394.4219,133.8594 Q394.5781,133.7813 394.7813,133.7813 Q395.1094,133.7813 395.3594,134.0469 Q395.625,134.2969 395.625,134.6406 Q395.625,134.9844 395.2813,135.3906 Q394.7813,135.9688 393.9844,136.2969 Q392.9063,136.75 391.6094,136.75 Q390.0938,136.75 388.8906,136.125 Q387.9063,135.625 387.2188,134.5625 Q386.5313,133.4844 386.5313,132.2031 L386.5313,131.0469 Q386.5313,129.7188 387.1406,128.5781 Q387.7656,127.4219 388.8594,126.8125 Q389.9531,126.1875 391.1875,126.1875 Q391.9219,126.1875 392.5625,126.3594 Q393.2188,126.5156 393.7656,126.875 Z " fill="#000000"/><text fill="#000000" font-family="sans-serif" font-size="14" lengthAdjust="spacing" textLength="137" x="405" y="136.7285">NoteListingViewModel</text><line style="stroke:#181818;stroke-width:0.5;" x1="377" x2="544" y1="147" y2="147"/><line style="stroke:#181818;stroke-width:0.5;" x1="377" x2="544" y1="155" y2="155"/></g><!--MD5=[920c91348d3780b1acfc2b5ed1df1102]
class TimerLayoutViewModel--><g id="elem_TimerLayoutViewModel"><rect codeLine="14" fill="#F1F1F1" height="48" id="TimerLayoutViewModel" rx="2.5" ry="2.5" style="stroke:#181818;stroke-width:0.5;" width="178" x="162.5" y="115"/><ellipse cx="177.5" cy="131" fill="#ADD1B2" rx="11" ry="11" style="stroke:#181818;stroke-width:1.0;"/><path d="M180.2656,126.875 Q180.4219,126.6563 180.6094,126.5469 Q180.7969,126.4375 181.0156,126.4375 Q181.3906,126.4375 181.625,126.7031 Q181.8594,126.9531 181.8594,127.5625 L181.8594,129.0156 Q181.8594,129.625 181.625,129.8906 Q181.3906,130.1563 181.0156,130.1563 Q180.6719,130.1563 180.4688,129.9531 Q180.2656,129.7656 180.1563,129.25 Q180.1094,128.8906 179.9219,128.7031 Q179.5938,128.3281 178.9844,128.1094 Q178.375,127.8906 177.75,127.8906 Q176.9844,127.8906 176.3438,128.2188 Q175.7188,128.5469 175.2188,129.2969 Q174.7344,130.0469 174.7344,131.0781 L174.7344,132.1719 Q174.7344,133.4063 175.625,134.2344 Q176.5156,135.0469 178.1094,135.0469 Q179.0469,135.0469 179.7031,134.7969 Q180.0938,134.6406 180.5156,134.2031 Q180.7813,133.9375 180.9219,133.8594 Q181.0781,133.7813 181.2813,133.7813 Q181.6094,133.7813 181.8594,134.0469 Q182.125,134.2969 182.125,134.6406 Q182.125,134.9844 181.7813,135.3906 Q181.2813,135.9688 180.4844,136.2969 Q179.4063,136.75 178.1094,136.75 Q176.5938,136.75 175.3906,136.125 Q174.4063,135.625 173.7188,134.5625 Q173.0313,133.4844 173.0313,132.2031 L173.0313,131.0469 Q173.0313,129.7188 173.6406,128.5781 Q174.2656,127.4219 175.3594,126.8125 Q176.4531,126.1875 177.6875,126.1875 Q178.4219,126.1875 179.0625,126.3594 Q179.7188,126.5156 180.2656,126.875 Z " fill="#000000"/><text fill="#000000" font-family="sans-serif" font-size="14" lengthAdjust="spacing" textLength="146" x="191.5" y="136.7285">TimerLayoutViewModel</text><line style="stroke:#181818;stroke-width:0.5;" x1="163.5" x2="339.5" y1="147" y2="147"/><line style="stroke:#181818;stroke-width:0.5;" x1="163.5" x2="339.5" y1="155" y2="155"/></g><!--MD5=[8fe942205c2f32cf1313f199dcc0c5f5]
class ModalStore--><g id="elem_ModalStore"><rect codeLine="22" fill="#F1F1F1" height="48" id="ModalStore" rx="2.5" ry="2.5" style="stroke:#181818;stroke-width:0.5;" width="104" x="1109.5" y="115"/><ellipse cx="1124.5" cy="131" fill="#ADD1B2" rx="11" ry="11" style="stroke:#181818;stroke-width:1.0;"/><path d="M1127.2656,126.875 Q1127.4219,126.6563 1127.6094,126.5469 Q1127.7969,126.4375 1128.0156,126.4375 Q1128.3906,126.4375 1128.625,126.7031 Q1128.8594,126.9531 1128.8594,127.5625 L1128.8594,129.0156 Q1128.8594,129.625 1128.625,129.8906 Q1128.3906,130.1563 1128.0156,130.1563 Q1127.6719,130.1563 1127.4688,129.9531 Q1127.2656,129.7656 1127.1563,129.25 Q1127.1094,128.8906 1126.9219,128.7031 Q1126.5938,128.3281 1125.9844,128.1094 Q1125.375,127.8906 1124.75,127.8906 Q1123.9844,127.8906 1123.3438,128.2188 Q1122.7188,128.5469 1122.2188,129.2969 Q1121.7344,130.0469 1121.7344,131.0781 L1121.7344,132.1719 Q1121.7344,133.4063 1122.625,134.2344 Q1123.5156,135.0469 1125.1094,135.0469 Q1126.0469,135.0469 1126.7031,134.7969 Q1127.0938,134.6406 1127.5156,134.2031 Q1127.7813,133.9375 1127.9219,133.8594 Q1128.0781,133.7813 1128.2813,133.7813 Q1128.6094,133.7813 1128.8594,134.0469 Q1129.125,134.2969 1129.125,134.6406 Q1129.125,134.9844 1128.7813,135.3906 Q1128.2813,135.9688 1127.4844,136.2969 Q1126.4063,136.75 1125.1094,136.75 Q1123.5938,136.75 1122.3906,136.125 Q1121.4063,135.625 1120.7188,134.5625 Q1120.0313,133.4844 1120.0313,132.2031 L1120.0313,131.0469 Q1120.0313,129.7188 1120.6406,128.5781 Q1121.2656,127.4219 1122.3594,126.8125 Q1123.4531,126.1875 1124.6875,126.1875 Q1125.4219,126.1875 1126.0625,126.3594 Q1126.7188,126.5156 1127.2656,126.875 Z " fill="#000000"/><text fill="#000000" font-family="sans-serif" font-size="14" lengthAdjust="spacing" textLength="72" x="1138.5" y="136.7285">ModalStore</text><line style="stroke:#181818;stroke-width:0.5;" x1="1110.5" x2="1212.5" y1="147" y2="147"/><line style="stroke:#181818;stroke-width:0.5;" x1="1110.5" x2="1212.5" y1="155" y2="155"/></g><!--MD5=[79a79a3e7ff791cf975e53a56e3ab907]
class NavigationStore--><g id="elem_NavigationStore"><rect codeLine="23" fill="#F1F1F1" height="48" id="NavigationStore" rx="2.5" ry="2.5" style="stroke:#181818;stroke-width:0.5;" width="132" x="942.5" y="115"/><ellipse cx="957.5" cy="131" fill="#ADD1B2" rx="11" ry="11" style="stroke:#181818;stroke-width:1.0;"/><path d="M960.2656,126.875 Q960.4219,126.6563 960.6094,126.5469 Q960.7969,126.4375 961.0156,126.4375 Q961.3906,126.4375 961.625,126.7031 Q961.8594,126.9531 961.8594,127.5625 L961.8594,129.0156 Q961.8594,129.625 961.625,129.8906 Q961.3906,130.1563 961.0156,130.1563 Q960.6719,130.1563 960.4688,129.9531 Q960.2656,129.7656 960.1563,129.25 Q960.1094,128.8906 959.9219,128.7031 Q959.5938,128.3281 958.9844,128.1094 Q958.375,127.8906 957.75,127.8906 Q956.9844,127.8906 956.3438,128.2188 Q955.7188,128.5469 955.2188,129.2969 Q954.7344,130.0469 954.7344,131.0781 L954.7344,132.1719 Q954.7344,133.4063 955.625,134.2344 Q956.5156,135.0469 958.1094,135.0469 Q959.0469,135.0469 959.7031,134.7969 Q960.0938,134.6406 960.5156,134.2031 Q960.7813,133.9375 960.9219,133.8594 Q961.0781,133.7813 961.2813,133.7813 Q961.6094,133.7813 961.8594,134.0469 Q962.125,134.2969 962.125,134.6406 Q962.125,134.9844 961.7813,135.3906 Q961.2813,135.9688 960.4844,136.2969 Q959.4063,136.75 958.1094,136.75 Q956.5938,136.75 955.3906,136.125 Q954.4063,135.625 953.7188,134.5625 Q953.0313,133.4844 953.0313,132.2031 L953.0313,131.0469 Q953.0313,129.7188 953.6406,128.5781 Q954.2656,127.4219 955.3594,126.8125 Q956.4531,126.1875 957.6875,126.1875 Q958.4219,126.1875 959.0625,126.3594 Q959.7188,126.5156 960.2656,126.875 Z " fill="#000000"/><text fill="#000000" font-family="sans-serif" font-size="14" lengthAdjust="spacing" textLength="100" x="971.5" y="136.7285">NavigationStore</text><line style="stroke:#181818;stroke-width:0.5;" x1="943.5" x2="1073.5" y1="147" y2="147"/><line style="stroke:#181818;stroke-width:0.5;" x1="943.5" x2="1073.5" y1="155" y2="155"/></g><!--MD5=[62a70d3caf392bef4c1295ca70060a3f]
class TodayDateStore--><g id="elem_TodayDateStore"><rect codeLine="24" fill="#F1F1F1" height="48" id="TodayDateStore" rx="2.5" ry="2.5" style="stroke:#181818;stroke-width:0.5;" width="136" x="771.5" y="115"/><ellipse cx="786.5" cy="131" fill="#ADD1B2" rx="11" ry="11" style="stroke:#181818;stroke-width:1.0;"/><path d="M789.2656,126.875 Q789.4219,126.6563 789.6094,126.5469 Q789.7969,126.4375 790.0156,126.4375 Q790.3906,126.4375 790.625,126.7031 Q790.8594,126.9531 790.8594,127.5625 L790.8594,129.0156 Q790.8594,129.625 790.625,129.8906 Q790.3906,130.1563 790.0156,130.1563 Q789.6719,130.1563 789.4688,129.9531 Q789.2656,129.7656 789.1563,129.25 Q789.1094,128.8906 788.9219,128.7031 Q788.5938,128.3281 787.9844,128.1094 Q787.375,127.8906 786.75,127.8906 Q785.9844,127.8906 785.3438,128.2188 Q784.7188,128.5469 784.2188,129.2969 Q783.7344,130.0469 783.7344,131.0781 L783.7344,132.1719 Q783.7344,133.4063 784.625,134.2344 Q785.5156,135.0469 787.1094,135.0469 Q788.0469,135.0469 788.7031,134.7969 Q789.0938,134.6406 789.5156,134.2031 Q789.7813,133.9375 789.9219,133.8594 Q790.0781,133.7813 790.2813,133.7813 Q790.6094,133.7813 790.8594,134.0469 Q791.125,134.2969 791.125,134.6406 Q791.125,134.9844 790.7813,135.3906 Q790.2813,135.9688 789.4844,136.2969 Q788.4063,136.75 787.1094,136.75 Q785.5938,136.75 784.3906,136.125 Q783.4063,135.625 782.7188,134.5625 Q782.0313,133.4844 782.0313,132.2031 L782.0313,131.0469 Q782.0313,129.7188 782.6406,128.5781 Q783.2656,127.4219 784.3594,126.8125 Q785.4531,126.1875 786.6875,126.1875 Q787.4219,126.1875 788.0625,126.3594 Q788.7188,126.5156 789.2656,126.875 Z " fill="#000000"/><text fill="#000000" font-family="sans-serif" font-size="14" lengthAdjust="spacing" textLength="104" x="800.5" y="136.7285">TodayDateStore</text><line style="stroke:#181818;stroke-width:0.5;" x1="772.5" x2="906.5" y1="147" y2="147"/><line style="stroke:#181818;stroke-width:0.5;" x1="772.5" x2="906.5" y1="155" y2="155"/></g><!--MD5=[c9061c12b4dc5cc833eee4570f9b4651]
class OpenModalNavigationService--><g id="elem_OpenModalNavigationService"><rect codeLine="32" fill="#F1F1F1" height="48" id="OpenModalNavigationService" rx="2.5" ry="2.5" style="stroke:#181818;stroke-width:0.5;" width="218" x="1524.5" y="115"/><ellipse cx="1539.5" cy="131" fill="#ADD1B2" rx="11" ry="11" style="stroke:#181818;stroke-width:1.0;"/><path d="M1542.2656,126.875 Q1542.4219,126.6563 1542.6094,126.5469 Q1542.7969,126.4375 1543.0156,126.4375 Q1543.3906,126.4375 1543.625,126.7031 Q1543.8594,126.9531 1543.8594,127.5625 L1543.8594,129.0156 Q1543.8594,129.625 1543.625,129.8906 Q1543.3906,130.1563 1543.0156,130.1563 Q1542.6719,130.1563 1542.4688,129.9531 Q1542.2656,129.7656 1542.1563,129.25 Q1542.1094,128.8906 1541.9219,128.7031 Q1541.5938,128.3281 1540.9844,128.1094 Q1540.375,127.8906 1539.75,127.8906 Q1538.9844,127.8906 1538.3438,128.2188 Q1537.7188,128.5469 1537.2188,129.2969 Q1536.7344,130.0469 1536.7344,131.0781 L1536.7344,132.1719 Q1536.7344,133.4063 1537.625,134.2344 Q1538.5156,135.0469 1540.1094,135.0469 Q1541.0469,135.0469 1541.7031,134.7969 Q1542.0938,134.6406 1542.5156,134.2031 Q1542.7813,133.9375 1542.9219,133.8594 Q1543.0781,133.7813 1543.2813,133.7813 Q1543.6094,133.7813 1543.8594,134.0469 Q1544.125,134.2969 1544.125,134.6406 Q1544.125,134.9844 1543.7813,135.3906 Q1543.2813,135.9688 1542.4844,136.2969 Q1541.4063,136.75 1540.1094,136.75 Q1538.5938,136.75 1537.3906,136.125 Q1536.4063,135.625 1535.7188,134.5625 Q1535.0313,133.4844 1535.0313,132.2031 L1535.0313,131.0469 Q1535.0313,129.7188 1535.6406,128.5781 Q1536.2656,127.4219 1537.3594,126.8125 Q1538.4531,126.1875 1539.6875,126.1875 Q1540.4219,126.1875 1541.0625,126.3594 Q1541.7188,126.5156 1542.2656,126.875 Z " fill="#000000"/><text fill="#000000" font-family="sans-serif" font-size="14" lengthAdjust="spacing" textLength="186" x="1553.5" y="136.7285">OpenModalNavigationService</text><line style="stroke:#181818;stroke-width:0.5;" x1="1525.5" x2="1741.5" y1="147" y2="147"/><line style="stroke:#181818;stroke-width:0.5;" x1="1525.5" x2="1741.5" y1="155" y2="155"/></g><!--MD5=[28e854b9df85dce6cc365ab43cb5f9f9]
class CloseModalNavigationService--><g id="elem_CloseModalNavigationService"><rect codeLine="33" fill="#F1F1F1" height="48" id="CloseModalNavigationService" rx="2.5" ry="2.5" style="stroke:#181818;stroke-width:0.5;" width="219" x="1270" y="115"/><ellipse cx="1285" cy="131" fill="#ADD1B2" rx="11" ry="11" style="stroke:#181818;stroke-width:1.0;"/><path d="M1287.7656,126.875 Q1287.9219,126.6563 1288.1094,126.5469 Q1288.2969,126.4375 1288.5156,126.4375 Q1288.8906,126.4375 1289.125,126.7031 Q1289.3594,126.9531 1289.3594,127.5625 L1289.3594,129.0156 Q1289.3594,129.625 1289.125,129.8906 Q1288.8906,130.1563 1288.5156,130.1563 Q1288.1719,130.1563 1287.9688,129.9531 Q1287.7656,129.7656 1287.6563,129.25 Q1287.6094,128.8906 1287.4219,128.7031 Q1287.0938,128.3281 1286.4844,128.1094 Q1285.875,127.8906 1285.25,127.8906 Q1284.4844,127.8906 1283.8438,128.2188 Q1283.2188,128.5469 1282.7188,129.2969 Q1282.2344,130.0469 1282.2344,131.0781 L1282.2344,132.1719 Q1282.2344,133.4063 1283.125,134.2344 Q1284.0156,135.0469 1285.6094,135.0469 Q1286.5469,135.0469 1287.2031,134.7969 Q1287.5938,134.6406 1288.0156,134.2031 Q1288.2813,133.9375 1288.4219,133.8594 Q1288.5781,133.7813 1288.7813,133.7813 Q1289.1094,133.7813 1289.3594,134.0469 Q1289.625,134.2969 1289.625,134.6406 Q1289.625,134.9844 1289.2813,135.3906 Q1288.7813,135.9688 1287.9844,136.2969 Q1286.9063,136.75 1285.6094,136.75 Q1284.0938,136.75 1282.8906,136.125 Q1281.9063,135.625 1281.2188,134.5625 Q1280.5313,133.4844 1280.5313,132.2031 L1280.5313,131.0469 Q1280.5313,129.7188 1281.1406,128.5781 Q1281.7656,127.4219 1282.8594,126.8125 Q1283.9531,126.1875 1285.1875,126.1875 Q1285.9219,126.1875 1286.5625,126.3594 Q1287.2188,126.5156 1287.7656,126.875 Z " fill="#000000"/><text fill="#000000" font-family="sans-serif" font-size="14" lengthAdjust="spacing" textLength="187" x="1299" y="136.7285">CloseModalNavigationService</text><line style="stroke:#181818;stroke-width:0.5;" x1="1271" x2="1488" y1="147" y2="147"/><line style="stroke:#181818;stroke-width:0.5;" x1="1271" x2="1488" y1="155" y2="155"/></g><!--MD5=[d3dfc705111084d6000ca66ab3e991d5]
class NoteValidator--><g id="elem_NoteValidator"><rect codeLine="40" fill="#F1F1F1" height="48" id="NoteValidator" rx="2.5" ry="2.5" style="stroke:#181818;stroke-width:0.5;" width="117" x="1799" y="115"/><ellipse cx="1814" cy="131" fill="#ADD1B2" rx="11" ry="11" style="stroke:#181818;stroke-width:1.0;"/><path d="M1816.7656,126.875 Q1816.9219,126.6563 1817.1094,126.5469 Q1817.2969,126.4375 1817.5156,126.4375 Q1817.8906,126.4375 1818.125,126.7031 Q1818.3594,126.9531 1818.3594,127.5625 L1818.3594,129.0156 Q1818.3594,129.625 1818.125,129.8906 Q1817.8906,130.1563 1817.5156,130.1563 Q1817.1719,130.1563 1816.9688,129.9531 Q1816.7656,129.7656 1816.6563,129.25 Q1816.6094,128.8906 1816.4219,128.7031 Q1816.0938,128.3281 1815.4844,128.1094 Q1814.875,127.8906 1814.25,127.8906 Q1813.4844,127.8906 1812.8438,128.2188 Q1812.2188,128.5469 1811.7188,129.2969 Q1811.2344,130.0469 1811.2344,131.0781 L1811.2344,132.1719 Q1811.2344,133.4063 1812.125,134.2344 Q1813.0156,135.0469 1814.6094,135.0469 Q1815.5469,135.0469 1816.2031,134.7969 Q1816.5938,134.6406 1817.0156,134.2031 Q1817.2813,133.9375 1817.4219,133.8594 Q1817.5781,133.7813 1817.7813,133.7813 Q1818.1094,133.7813 1818.3594,134.0469 Q1818.625,134.2969 1818.625,134.6406 Q1818.625,134.9844 1818.2813,135.3906 Q1817.7813,135.9688 1816.9844,136.2969 Q1815.9063,136.75 1814.6094,136.75 Q1813.0938,136.75 1811.8906,136.125 Q1810.9063,135.625 1810.2188,134.5625 Q1809.5313,133.4844 1809.5313,132.2031 L1809.5313,131.0469 Q1809.5313,129.7188 1810.1406,128.5781 Q1810.7656,127.4219 1811.8594,126.8125 Q1812.9531,126.1875 1814.1875,126.1875 Q1814.9219,126.1875 1815.5625,126.3594 Q1816.2188,126.5156 1816.7656,126.875 Z " fill="#000000"/><text fill="#000000" font-family="sans-serif" font-size="14" lengthAdjust="spacing" textLength="85" x="1828" y="136.7285">NoteValidator</text><line style="stroke:#181818;stroke-width:0.5;" x1="1800" x2="1915" y1="147" y2="147"/><line style="stroke:#181818;stroke-width:0.5;" x1="1800" x2="1915" y1="155" y2="155"/></g><!--MD5=[19594c6ce4bcd72d3f6aea6f132dfba0]
class TimaNoteRepository--><g id="elem_TimaNoteRepository"><rect codeLine="46" fill="#F1F1F1" height="48" id="TimaNoteRepository" rx="2.5" ry="2.5" style="stroke:#181818;stroke-width:0.5;" width="160" x="1972.5" y="115"/><ellipse cx="1987.5" cy="131" fill="#ADD1B2" rx="11" ry="11" style="stroke:#181818;stroke-width:1.0;"/><path d="M1990.2656,126.875 Q1990.4219,126.6563 1990.6094,126.5469 Q1990.7969,126.4375 1991.0156,126.4375 Q1991.3906,126.4375 1991.625,126.7031 Q1991.8594,126.9531 1991.8594,127.5625 L1991.8594,129.0156 Q1991.8594,129.625 1991.625,129.8906 Q1991.3906,130.1563 1991.0156,130.1563 Q1990.6719,130.1563 1990.4688,129.9531 Q1990.2656,129.7656 1990.1563,129.25 Q1990.1094,128.8906 1989.9219,128.7031 Q1989.5938,128.3281 1988.9844,128.1094 Q1988.375,127.8906 1987.75,127.8906 Q1986.9844,127.8906 1986.3438,128.2188 Q1985.7188,128.5469 1985.2188,129.2969 Q1984.7344,130.0469 1984.7344,131.0781 L1984.7344,132.1719 Q1984.7344,133.4063 1985.625,134.2344 Q1986.5156,135.0469 1988.1094,135.0469 Q1989.0469,135.0469 1989.7031,134.7969 Q1990.0938,134.6406 1990.5156,134.2031 Q1990.7813,133.9375 1990.9219,133.8594 Q1991.0781,133.7813 1991.2813,133.7813 Q1991.6094,133.7813 1991.8594,134.0469 Q1992.125,134.2969 1992.125,134.6406 Q1992.125,134.9844 1991.7813,135.3906 Q1991.2813,135.9688 1990.4844,136.2969 Q1989.4063,136.75 1988.1094,136.75 Q1986.5938,136.75 1985.3906,136.125 Q1984.4063,135.625 1983.7188,134.5625 Q1983.0313,133.4844 1983.0313,132.2031 L1983.0313,131.0469 Q1983.0313,129.7188 1983.6406,128.5781 Q1984.2656,127.4219 1985.3594,126.8125 Q1986.4531,126.1875 1987.6875,126.1875 Q1988.4219,126.1875 1989.0625,126.3594 Q1989.7188,126.5156 1990.2656,126.875 Z " fill="#000000"/><text fill="#000000" font-family="sans-serif" font-size="14" lengthAdjust="spacing" textLength="128" x="2001.5" y="136.7285">TimaNoteRepository</text><line style="stroke:#181818;stroke-width:0.5;" x1="1973.5" x2="2131.5" y1="147" y2="147"/><line style="stroke:#181818;stroke-width:0.5;" x1="1973.5" x2="2131.5" y1="155" y2="155"/></g><!--MD5=[f19d1eb6fccfbe0c167bc1d116e06d92]
class func--><g id="elem_func"><rect codeLine="52" fill="#F1F1F1" height="48" id="func" rx="2.5" ry="2.5" style="stroke:#181818;stroke-width:0.5;" width="188" x="2333.5" y="115"/><ellipse cx="2348.5" cy="131" fill="#ADD1B2" rx="11" ry="11" style="stroke:#181818;stroke-width:1.0;"/><path d="M2347.3594,131.7969 L2347.3594,134.2969 L2351.6875,134.2969 L2351.6875,133.375 Q2351.6875,132.7656 2351.9219,132.5 Q2352.1719,132.2344 2352.5469,132.2344 Q2352.9219,132.2344 2353.1563,132.5 Q2353.3906,132.7656 2353.3906,133.375 L2353.3906,136 L2345.3906,136 Q2344.7656,136 2344.5,135.7656 Q2344.25,135.5313 2344.25,135.1406 Q2344.25,134.7656 2344.5156,134.5313 Q2344.7813,134.2969 2345.3906,134.2969 L2345.6563,134.2969 L2345.6563,127.6406 L2345.3906,127.6406 Q2344.7656,127.6406 2344.5,127.4063 Q2344.25,127.1719 2344.25,126.7813 Q2344.25,126.4063 2344.5,126.1719 Q2344.7656,125.9375 2345.3906,125.9375 L2353.0156,125.9375 L2353.0156,128.5313 Q2353.0156,129.1406 2352.7813,129.4063 Q2352.5625,129.6563 2352.1719,129.6563 Q2351.7969,129.6563 2351.5625,129.4063 Q2351.3281,129.1406 2351.3281,128.5313 L2351.3281,127.6406 L2347.3594,127.6406 L2347.3594,130.0938 L2348.8438,130.0938 Q2348.8438,129.4375 2348.9688,129.25 Q2349.2344,128.8438 2349.7031,128.8438 Q2350.0781,128.8438 2350.3125,129.1094 Q2350.5469,129.3594 2350.5469,129.9688 L2350.5469,131.9375 Q2350.5469,132.4844 2350.4219,132.6719 Q2350.1563,133.0625 2349.7031,133.0625 Q2349.2344,133.0625 2348.9688,132.6563 Q2348.8438,132.4688 2348.8438,131.7969 L2347.3594,131.7969 Z " fill="#000000"/><text fill="#000000" font-family="sans-serif" font-size="14" lengthAdjust="spacing" textLength="32" x="2362.5" y="136.7285">Func</text><rect fill="#FFFFFF" height="17.0938" style="stroke:#181818;stroke-width:1.0;stroke-dasharray:2.0,2.0;" width="122" x="2402.5" y="112"/><text fill="#000000" font-family="sans-serif" font-size="12" font-style="italic" lengthAdjust="spacing" textLength="120" x="2403.5" y="125.457">Type, ViewModelBase</text><line style="stroke:#181818;stroke-width:0.5;" x1="2334.5" x2="2520.5" y1="147" y2="147"/><line style="stroke:#181818;stroke-width:0.5;" x1="2334.5" x2="2520.5" y1="155" y2="155"/></g><!--MD5=[246992705790c5254ec5aa5b01b663ae]
class NoteFactory--><g id="elem_NoteFactory"><rect codeLine="53" fill="#F1F1F1" height="48" id="NoteFactory" rx="2.5" ry="2.5" style="stroke:#181818;stroke-width:0.5;" width="109" x="2189" y="115"/><ellipse cx="2204" cy="131" fill="#ADD1B2" rx="11" ry="11" style="stroke:#181818;stroke-width:1.0;"/><path d="M2206.7656,126.875 Q2206.9219,126.6563 2207.1094,126.5469 Q2207.2969,126.4375 2207.5156,126.4375 Q2207.8906,126.4375 2208.125,126.7031 Q2208.3594,126.9531 2208.3594,127.5625 L2208.3594,129.0156 Q2208.3594,129.625 2208.125,129.8906 Q2207.8906,130.1563 2207.5156,130.1563 Q2207.1719,130.1563 2206.9688,129.9531 Q2206.7656,129.7656 2206.6563,129.25 Q2206.6094,128.8906 2206.4219,128.7031 Q2206.0938,128.3281 2205.4844,128.1094 Q2204.875,127.8906 2204.25,127.8906 Q2203.4844,127.8906 2202.8438,128.2188 Q2202.2188,128.5469 2201.7188,129.2969 Q2201.2344,130.0469 2201.2344,131.0781 L2201.2344,132.1719 Q2201.2344,133.4063 2202.125,134.2344 Q2203.0156,135.0469 2204.6094,135.0469 Q2205.5469,135.0469 2206.2031,134.7969 Q2206.5938,134.6406 2207.0156,134.2031 Q2207.2813,133.9375 2207.4219,133.8594 Q2207.5781,133.7813 2207.7813,133.7813 Q2208.1094,133.7813 2208.3594,134.0469 Q2208.625,134.2969 2208.625,134.6406 Q2208.625,134.9844 2208.2813,135.3906 Q2207.7813,135.9688 2206.9844,136.2969 Q2205.9063,136.75 2204.6094,136.75 Q2203.0938,136.75 2201.8906,136.125 Q2200.9063,135.625 2200.2188,134.5625 Q2199.5313,133.4844 2199.5313,132.2031 L2199.5313,131.0469 Q2199.5313,129.7188 2200.1406,128.5781 Q2200.7656,127.4219 2201.8594,126.8125 Q2202.9531,126.1875 2204.1875,126.1875 Q2204.9219,126.1875 2205.5625,126.3594 Q2206.2188,126.5156 2206.7656,126.875 Z " fill="#000000"/><text fill="#000000" font-family="sans-serif" font-size="14" lengthAdjust="spacing" textLength="77" x="2218" y="136.7285">NoteFactory</text><line style="stroke:#181818;stroke-width:0.5;" x1="2190" x2="2297" y1="147" y2="147"/><line style="stroke:#181818;stroke-width:0.5;" x1="2190" x2="2297" y1="155" y2="155"/></g><!--MD5=[6d8b0ed53f72114334f2d8e71f85c111]
class sp--><g id="elem_sp"><rect codeLine="2" fill="#F1F1F1" height="48" id="sp" rx="2.5" ry="2.5" style="stroke:#181818;stroke-width:0.5;" width="132" x="1095.5" y="7"/><ellipse cx="1110.5" cy="23" fill="#ADD1B2" rx="11" ry="11" style="stroke:#181818;stroke-width:1.0;"/><path d="M1113.2656,18.875 Q1113.4219,18.6563 1113.6094,18.5469 Q1113.7969,18.4375 1114.0156,18.4375 Q1114.3906,18.4375 1114.625,18.7031 Q1114.8594,18.9531 1114.8594,19.5625 L1114.8594,21.0156 Q1114.8594,21.625 1114.625,21.8906 Q1114.3906,22.1563 1114.0156,22.1563 Q1113.6719,22.1563 1113.4688,21.9531 Q1113.2656,21.7656 1113.1563,21.25 Q1113.1094,20.8906 1112.9219,20.7031 Q1112.5938,20.3281 1111.9844,20.1094 Q1111.375,19.8906 1110.75,19.8906 Q1109.9844,19.8906 1109.3438,20.2188 Q1108.7188,20.5469 1108.2188,21.2969 Q1107.7344,22.0469 1107.7344,23.0781 L1107.7344,24.1719 Q1107.7344,25.4063 1108.625,26.2344 Q1109.5156,27.0469 1111.1094,27.0469 Q1112.0469,27.0469 1112.7031,26.7969 Q1113.0938,26.6406 1113.5156,26.2031 Q1113.7813,25.9375 1113.9219,25.8594 Q1114.0781,25.7813 1114.2813,25.7813 Q1114.6094,25.7813 1114.8594,26.0469 Q1115.125,26.2969 1115.125,26.6406 Q1115.125,26.9844 1114.7813,27.3906 Q1114.2813,27.9688 1113.4844,28.2969 Q1112.4063,28.75 1111.1094,28.75 Q1109.5938,28.75 1108.3906,28.125 Q1107.4063,27.625 1106.7188,26.5625 Q1106.0313,25.4844 1106.0313,24.2031 L1106.0313,23.0469 Q1106.0313,21.7188 1106.6406,20.5781 Q1107.2656,19.4219 1108.3594,18.8125 Q1109.4531,18.1875 1110.6875,18.1875 Q1111.4219,18.1875 1112.0625,18.3594 Q1112.7188,18.5156 1113.2656,18.875 Z " fill="#000000"/><text fill="#000000" font-family="sans-serif" font-size="14" lengthAdjust="spacing" textLength="100" x="1124.5" y="28.7285">ServiceProvider</text><line style="stroke:#181818;stroke-width:0.5;" x1="1096.5" x2="1226.5" y1="39" y2="39"/><line style="stroke:#181818;stroke-width:0.5;" x1="1096.5" x2="1226.5" y1="47" y2="47"/></g><!--MD5=[e6c809820d88acc3564faeb20394ab9d]
class MainWindow--><g id="elem_MainWindow"><rect codeLine="4" fill="#F1F1F1" height="48" id="MainWindow" rx="2.5" ry="2.5" style="stroke:#181818;stroke-width:0.5;" width="111" x="16" y="115"/><ellipse cx="31" cy="131" fill="#ADD1B2" rx="11" ry="11" style="stroke:#181818;stroke-width:1.0;"/><path d="M33.7656,126.875 Q33.9219,126.6563 34.1094,126.5469 Q34.2969,126.4375 34.5156,126.4375 Q34.8906,126.4375 35.125,126.7031 Q35.3594,126.9531 35.3594,127.5625 L35.3594,129.0156 Q35.3594,129.625 35.125,129.8906 Q34.8906,130.1563 34.5156,130.1563 Q34.1719,130.1563 33.9688,129.9531 Q33.7656,129.7656 33.6563,129.25 Q33.6094,128.8906 33.4219,128.7031 Q33.0938,128.3281 32.4844,128.1094 Q31.875,127.8906 31.25,127.8906 Q30.4844,127.8906 29.8438,128.2188 Q29.2188,128.5469 28.7188,129.2969 Q28.2344,130.0469 28.2344,131.0781 L28.2344,132.1719 Q28.2344,133.4063 29.125,134.2344 Q30.0156,135.0469 31.6094,135.0469 Q32.5469,135.0469 33.2031,134.7969 Q33.5938,134.6406 34.0156,134.2031 Q34.2813,133.9375 34.4219,133.8594 Q34.5781,133.7813 34.7813,133.7813 Q35.1094,133.7813 35.3594,134.0469 Q35.625,134.2969 35.625,134.6406 Q35.625,134.9844 35.2813,135.3906 Q34.7813,135.9688 33.9844,136.2969 Q32.9063,136.75 31.6094,136.75 Q30.0938,136.75 28.8906,136.125 Q27.9063,135.625 27.2188,134.5625 Q26.5313,133.4844 26.5313,132.2031 L26.5313,131.0469 Q26.5313,129.7188 27.1406,128.5781 Q27.7656,127.4219 28.8594,126.8125 Q29.9531,126.1875 31.1875,126.1875 Q31.9219,126.1875 32.5625,126.3594 Q33.2188,126.5156 33.7656,126.875 Z " fill="#000000"/><text fill="#000000" font-family="sans-serif" font-size="14" lengthAdjust="spacing" textLength="79" x="45" y="136.7285">MainWindow</text><line style="stroke:#181818;stroke-width:0.5;" x1="17" x2="126" y1="147" y2="147"/><line style="stroke:#181818;stroke-width:0.5;" x1="17" x2="126" y1="155" y2="155"/></g><!--MD5=[78a0a58d6ccdbff56c3ede0ecc32f3a0]
class MainViewModel--><g id="elem_MainViewModel"><rect codeLine="5" fill="#F1F1F1" height="48" id="MainViewModel" rx="2.5" ry="2.5" style="stroke:#181818;stroke-width:0.5;" width="129" x="7" y="7"/><ellipse cx="22" cy="23" fill="#ADD1B2" rx="11" ry="11" style="stroke:#181818;stroke-width:1.0;"/><path d="M24.7656,18.875 Q24.9219,18.6563 25.1094,18.5469 Q25.2969,18.4375 25.5156,18.4375 Q25.8906,18.4375 26.125,18.7031 Q26.3594,18.9531 26.3594,19.5625 L26.3594,21.0156 Q26.3594,21.625 26.125,21.8906 Q25.8906,22.1563 25.5156,22.1563 Q25.1719,22.1563 24.9688,21.9531 Q24.7656,21.7656 24.6563,21.25 Q24.6094,20.8906 24.4219,20.7031 Q24.0938,20.3281 23.4844,20.1094 Q22.875,19.8906 22.25,19.8906 Q21.4844,19.8906 20.8438,20.2188 Q20.2188,20.5469 19.7188,21.2969 Q19.2344,22.0469 19.2344,23.0781 L19.2344,24.1719 Q19.2344,25.4063 20.125,26.2344 Q21.0156,27.0469 22.6094,27.0469 Q23.5469,27.0469 24.2031,26.7969 Q24.5938,26.6406 25.0156,26.2031 Q25.2813,25.9375 25.4219,25.8594 Q25.5781,25.7813 25.7813,25.7813 Q26.1094,25.7813 26.3594,26.0469 Q26.625,26.2969 26.625,26.6406 Q26.625,26.9844 26.2813,27.3906 Q25.7813,27.9688 24.9844,28.2969 Q23.9063,28.75 22.6094,28.75 Q21.0938,28.75 19.8906,28.125 Q18.9063,27.625 18.2188,26.5625 Q17.5313,25.4844 17.5313,24.2031 L17.5313,23.0469 Q17.5313,21.7188 18.1406,20.5781 Q18.7656,19.4219 19.8594,18.8125 Q20.9531,18.1875 22.1875,18.1875 Q22.9219,18.1875 23.5625,18.3594 Q24.2188,18.5156 24.7656,18.875 Z " fill="#000000"/><text fill="#000000" font-family="sans-serif" font-size="14" lengthAdjust="spacing" textLength="97" x="36" y="28.7285">MainViewModel</text><line style="stroke:#181818;stroke-width:0.5;" x1="8" x2="135" y1="39" y2="39"/><line style="stroke:#181818;stroke-width:0.5;" x1="8" x2="135" y1="47" y2="47"/></g><!--MD5=[6c4ab1dd4c8b5c35abde109cfbb73ff1]
link MainViewModel to MainWindow--><g id="link_MainViewModel_MainWindow"><path codeLine="7" d="M71.5,55 C71.5,68.52 71.5,85.92 71.5,101.3 " fill="none" id="MainViewModel-to-MainWindow" style="stroke:#181818;stroke-width:1.0;"/><polygon fill="none" points="71.5,114.68,75.5,108.68,71.5,102.68,67.5,108.68,71.5,114.68" style="stroke:#181818;stroke-width:1.0;"/></g><!--MD5=[60736af647a2a26750489959e9bba034]
link sp to MainWindow--><g id="link_sp_MainWindow"><path codeLine="9" d="M1095.2,31.95 C883.72,32.16 233.93,35.7 146.5,71 C125.78,79.37 107.04,96.11 93.47,110.76 " fill="none" id="sp-to-MainWindow" style="stroke:#181818;stroke-width:1.0;stroke-dasharray:7.0,7.0;"/><polygon fill="#181818" points="89.78,114.83,98.79,110.8526,93.1398,111.1271,92.8653,105.4769,89.78,114.83" style="stroke:#181818;stroke-width:1.0;"/></g><!--MD5=[e689288cb1d584a7638611ef517506a4]
link sp to TimerViewModel--><g id="link_sp_TimerViewModel"><path codeLine="16" d="M1095.46,34.69 C996.99,39.31 816.72,50.34 755.5,71 C728.37,80.16 700.99,97.25 680.59,111.87 " fill="none" id="sp-to-TimerViewModel" style="stroke:#181818;stroke-width:1.0;stroke-dasharray:7.0,7.0;"/><polygon fill="#181818" points="676.35,114.95,685.9852,112.9096,680.3992,112.0168,681.2921,106.4309,676.35,114.95" style="stroke:#181818;stroke-width:1.0;"/></g><!--MD5=[2ada77283ad930083f0ec4d89e006fd8]
link sp to NoteListingViewModel--><g id="link_sp_NoteListingViewModel"><path codeLine="17" d="M1095.46,32.07 C960.93,32.9 659.65,38.47 562.5,71 C536.35,79.76 510.42,96.93 491.25,111.69 " fill="none" id="sp-to-NoteListingViewModel" style="stroke:#181818;stroke-width:1.0;stroke-dasharray:7.0,7.0;"/><polygon fill="#181818" points="487.02,115,496.5781,112.6248,490.9645,111.9273,491.6619,106.3136,487.02,115" style="stroke:#181818;stroke-width:1.0;"/></g><!--MD5=[0c1e17c357418ba1e5994a4be3b1374e]
link sp to TimerLayoutViewModel--><g id="link_sp_TimerLayoutViewModel"><path codeLine="18" d="M1095.35,33.29 C915.75,37.08 427.83,49.25 358.5,71 C331.17,79.57 303.85,96.86 283.66,111.72 " fill="none" id="sp-to-TimerLayoutViewModel" style="stroke:#181818;stroke-width:1.0;stroke-dasharray:7.0,7.0;"/><polygon fill="#181818" points="279.46,114.85,289.0687,112.6884,283.472,111.866,284.2943,106.2693,279.46,114.85" style="stroke:#181818;stroke-width:1.0;"/></g><!--MD5=[d042d060dea938a1955d34455b8fb3e7]
link sp to ModalStore--><g id="link_sp_ModalStore"><path codeLine="26" d="M1161.5,55 C1161.5,71 1161.5,92.45 1161.5,109.53 " fill="none" id="sp-to-ModalStore" style="stroke:#181818;stroke-width:1.0;stroke-dasharray:7.0,7.0;"/><polygon fill="#181818" points="1161.5,114.68,1165.5,105.68,1161.5,109.68,1157.5,105.68,1161.5,114.68" style="stroke:#181818;stroke-width:1.0;"/></g><!--MD5=[960db907850a711d5df59adc611ad6b2]
link sp to NavigationStore--><g id="link_sp_NavigationStore"><path codeLine="27" d="M1118.16,55.1 C1109.51,60.1 1100.6,65.53 1092.5,71 C1074.11,83.41 1054.68,98.75 1039.15,111.62 " fill="none" id="sp-to-NavigationStore" style="stroke:#181818;stroke-width:1.0;stroke-dasharray:7.0,7.0;"/><polygon fill="#181818" points="1035.28,114.83,1044.7557,112.1447,1039.1223,111.6305,1039.6365,105.997,1035.28,114.83" style="stroke:#181818;stroke-width:1.0;"/></g><!--MD5=[4ea3ba14dee2c4e87d1dbb7c5cc295f5]
link sp to TodayDateStore--><g id="link_sp_TodayDateStore"><path codeLine="28" d="M1095.43,34.2 C1046.69,37.86 979.71,47.26 925.5,71 C903.6,80.59 882.38,97.02 866.5,111.22 " fill="none" id="sp-to-TodayDateStore" style="stroke:#181818;stroke-width:1.0;stroke-dasharray:7.0,7.0;"/><polygon fill="#181818" points="862.58,114.77,871.9266,111.6649,866.2758,111.4024,866.5384,105.7516,862.58,114.77" style="stroke:#181818;stroke-width:1.0;"/></g><!--MD5=[719012d18e3485381a390899243d47dc]
link sp to OpenModalNavigationService--><g id="link_sp_OpenModalNavigationService"><path codeLine="35" d="M1227.51,32.23 C1298.06,34.14 1412.46,42.01 1506.5,71 C1537.45,80.54 1569.69,97.65 1593.95,112.19 " fill="none" id="sp-to-OpenModalNavigationService" style="stroke:#181818;stroke-width:1.0;stroke-dasharray:7.0,7.0;"/><polygon fill="#181818" points="1598.38,114.88,1592.7403,106.8057,1594.0988,112.297,1588.6075,113.6556,1598.38,114.88" style="stroke:#181818;stroke-width:1.0;"/></g><!--MD5=[561876cc03c93259e1d396b70746c58e]
link sp to CloseModalNavigationService--><g id="link_sp_CloseModalNavigationService"><path codeLine="36" d="M1208.8,55 C1243.68,71.96 1291.12,95.02 1327.13,112.54 " fill="none" id="sp-to-CloseModalNavigationService" style="stroke:#181818;stroke-width:1.0;stroke-dasharray:7.0,7.0;"/><polygon fill="#181818" points="1331.91,114.86,1325.562,107.3298,1327.4125,112.6755,1322.0668,114.5259,1331.91,114.86" style="stroke:#181818;stroke-width:1.0;"/></g><!--MD5=[20d38d3e2ee2c9db2ed02f7f58c3ec4e]
link sp to NoteValidator--><g id="link_sp_NoteValidator"><path codeLine="42" d="M1227.61,31.98 C1361.89,32.65 1661.96,37.92 1758.5,71 C1784.05,79.76 1809.21,96.93 1827.78,111.69 " fill="none" id="sp-to-NoteValidator" style="stroke:#181818;stroke-width:1.0;stroke-dasharray:7.0,7.0;"/><polygon fill="#181818" points="1831.87,115,1827.3879,106.2301,1827.9824,111.8557,1822.3569,112.4502,1831.87,115" style="stroke:#181818;stroke-width:1.0;"/></g><!--MD5=[ca99333be6cae54e0cfffb2c60ef3f99]
link sp to TimaNoteRepository--><g id="link_sp_TimaNoteRepository"><path codeLine="48" d="M1227.75,31.5 C1389.53,30.89 1801.11,33.24 1932.5,71 C1962.72,79.69 1993.63,97.19 2016.51,112.12 " fill="none" id="sp-to-TimaNoteRepository" style="stroke:#181818;stroke-width:1.0;stroke-dasharray:7.0,7.0;"/><polygon fill="#181818" points="2020.69,114.88,2015.3874,106.5804,2016.5188,112.123,2010.9762,113.2544,2020.69,114.88" style="stroke:#181818;stroke-width:1.0;"/></g><!--MD5=[81d87b084582a59fb5f0cb241fde2e7d]
link sp to func--><g id="link_sp_func"><path codeLine="55" d="M1227.61,32.31 C1457.15,33.64 2211.36,40.33 2315.5,71 C2344.03,79.4 2372.74,96.8 2393.95,111.76 " fill="none" id="sp-to-func" style="stroke:#181818;stroke-width:1.0;stroke-dasharray:7.0,7.0;"/><polygon fill="#181818" points="2398.1,114.72,2393.0901,106.2406,2394.0275,111.8192,2388.4488,112.7566,2398.1,114.72" style="stroke:#181818;stroke-width:1.0;"/></g><!--MD5=[e64204cfb0c8f54a64c04a3d2423dd44]
link sp to NoteFactory--><g id="link_sp_NoteFactory"><path codeLine="56" d="M1227.64,32.44 C1434.7,34.13 2061.92,41.65 2148.5,71 C2173.38,79.43 2197.52,96.61 2215.24,111.46 " fill="none" id="sp-to-NoteFactory" style="stroke:#181818;stroke-width:1.0;stroke-dasharray:7.0,7.0;"/><polygon fill="#181818" points="2219.14,114.79,2214.8741,105.9129,2215.3307,111.5513,2209.6923,112.0079,2219.14,114.79" style="stroke:#181818;stroke-width:1.0;"/></g><!--MD5=[6778f33ddb3091d94c4078d791b5a1dd]
@startuml

class "ServiceProvider" as sp

class MainWindow
class MainViewModel

MainViewModel - -o MainWindow

sp ..> MainWindow

rectangle ViewModels{
    class TimerViewModel
    class NoteListingViewModel
    class TimerLayoutViewModel

    sp ..> TimerViewModel
    sp ..> NoteListingViewModel
    sp ..> TimerLayoutViewModel
}

rectangle Stores{
    class ModalStore
    class NavigationStore
    class TodayDateStore

    sp ..> ModalStore
    sp ..> NavigationStore
    sp ..> TodayDateStore
}

rectangle Services{
    class OpenModalNavigationService
    class CloseModalNavigationService

    sp ..> OpenModalNavigationService
    sp ..> CloseModalNavigationService
}

rectangle Validators{
    class NoteValidator

    sp ..> NoteValidator
}

rectangle Repository{
    class TimaNoteRepository

    sp ..> TimaNoteRepository
}

rectangle Factories{
    entity "Func<Type, ViewModelBase>" as func
    class NoteFactory

    sp ..> func
    sp ..> NoteFactory
}



@enduml

PlantUML version 1.2022.7(Mon Aug 22 22:01:30 YEKT 2022)
(GPL source distribution)
Java Runtime: OpenJDK Runtime Environment
JVM: OpenJDK 64-Bit Server VM
Default Encoding: Cp1251
Language: ru
Country: RU
--></g></svg>