<?xml version="1.0" encoding="UTF-8" standalone="no"?><svg xmlns="http://www.w3.org/2000/svg" xmlns:xlink="http://www.w3.org/1999/xlink" contentStyleType="text/css" height="170px" preserveAspectRatio="none" style="width:1487px;height:170px;background:#FFFFFF;" version="1.1" viewBox="0 0 1487 170" width="1487px" zoomAndPan="magnify"><defs/><g><!--MD5=[335f4d9be48430461c68bf6d6fdba145]
class App--><g id="elem_App"><rect codeLine="2" fill="#F1F1F1" height="48" id="App" rx="2.5" ry="2.5" style="stroke:#181818;stroke-width:0.5;" width="57" x="725.5" y="115"/><ellipse cx="740.5" cy="131" fill="#ADD1B2" rx="11" ry="11" style="stroke:#181818;stroke-width:1.0;"/><path d="M743.2656,126.875 Q743.4219,126.6563 743.6094,126.5469 Q743.7969,126.4375 744.0156,126.4375 Q744.3906,126.4375 744.625,126.7031 Q744.8594,126.9531 744.8594,127.5625 L744.8594,129.0156 Q744.8594,129.625 744.625,129.8906 Q744.3906,130.1563 744.0156,130.1563 Q743.6719,130.1563 743.4688,129.9531 Q743.2656,129.7656 743.1563,129.25 Q743.1094,128.8906 742.9219,128.7031 Q742.5938,128.3281 741.9844,128.1094 Q741.375,127.8906 740.75,127.8906 Q739.9844,127.8906 739.3438,128.2188 Q738.7188,128.5469 738.2188,129.2969 Q737.7344,130.0469 737.7344,131.0781 L737.7344,132.1719 Q737.7344,133.4063 738.625,134.2344 Q739.5156,135.0469 741.1094,135.0469 Q742.0469,135.0469 742.7031,134.7969 Q743.0938,134.6406 743.5156,134.2031 Q743.7813,133.9375 743.9219,133.8594 Q744.0781,133.7813 744.2813,133.7813 Q744.6094,133.7813 744.8594,134.0469 Q745.125,134.2969 745.125,134.6406 Q745.125,134.9844 744.7813,135.3906 Q744.2813,135.9688 743.4844,136.2969 Q742.4063,136.75 741.1094,136.75 Q739.5938,136.75 738.3906,136.125 Q737.4063,135.625 736.7188,134.5625 Q736.0313,133.4844 736.0313,132.2031 L736.0313,131.0469 Q736.0313,129.7188 736.6406,128.5781 Q737.2656,127.4219 738.3594,126.8125 Q739.4531,126.1875 740.6875,126.1875 Q741.4219,126.1875 742.0625,126.3594 Q742.7188,126.5156 743.2656,126.875 Z " fill="#000000"/><text fill="#000000" font-family="sans-serif" font-size="14" lengthAdjust="spacing" textLength="25" x="754.5" y="136.7285">App</text><line style="stroke:#181818;stroke-width:0.5;" x1="726.5" x2="781.5" y1="147" y2="147"/><line style="stroke:#181818;stroke-width:0.5;" x1="726.5" x2="781.5" y1="155" y2="155"/></g><!--MD5=[dc5d3a6eda871b4552ec8cf472366110]
class TimeFormFactory--><g id="elem_TimeFormFactory"><rect codeLine="4" fill="#F1F1F1" height="48" id="TimeFormFactory" rx="2.5" ry="2.5" style="stroke:#181818;stroke-width:0.5;" width="144" x="7" y="7"/><ellipse cx="22" cy="23" fill="#ADD1B2" rx="11" ry="11" style="stroke:#181818;stroke-width:1.0;"/><path d="M20.8594,23.7969 L20.8594,26.2969 L25.1875,26.2969 L25.1875,25.375 Q25.1875,24.7656 25.4219,24.5 Q25.6719,24.2344 26.0469,24.2344 Q26.4219,24.2344 26.6563,24.5 Q26.8906,24.7656 26.8906,25.375 L26.8906,28 L18.8906,28 Q18.2656,28 18,27.7656 Q17.75,27.5313 17.75,27.1406 Q17.75,26.7656 18.0156,26.5313 Q18.2813,26.2969 18.8906,26.2969 L19.1563,26.2969 L19.1563,19.6406 L18.8906,19.6406 Q18.2656,19.6406 18,19.4063 Q17.75,19.1719 17.75,18.7813 Q17.75,18.4063 18,18.1719 Q18.2656,17.9375 18.8906,17.9375 L26.5156,17.9375 L26.5156,20.5313 Q26.5156,21.1406 26.2813,21.4063 Q26.0625,21.6563 25.6719,21.6563 Q25.2969,21.6563 25.0625,21.4063 Q24.8281,21.1406 24.8281,20.5313 L24.8281,19.6406 L20.8594,19.6406 L20.8594,22.0938 L22.3438,22.0938 Q22.3438,21.4375 22.4688,21.25 Q22.7344,20.8438 23.2031,20.8438 Q23.5781,20.8438 23.8125,21.1094 Q24.0469,21.3594 24.0469,21.9688 L24.0469,23.9375 Q24.0469,24.4844 23.9219,24.6719 Q23.6563,25.0625 23.2031,25.0625 Q22.7344,25.0625 22.4688,24.6563 Q22.3438,24.4688 22.3438,23.7969 L20.8594,23.7969 Z " fill="#000000"/><text fill="#000000" font-family="sans-serif" font-size="14" lengthAdjust="spacing" textLength="112" x="36" y="28.7285">TimeFormFactory</text><line style="stroke:#181818;stroke-width:0.5;" x1="8" x2="150" y1="39" y2="39"/><line style="stroke:#181818;stroke-width:0.5;" x1="8" x2="150" y1="47" y2="47"/></g><!--MD5=[e69365f7f8eacae59033827a9f2c98ae]
class ModalParameterizedNavigationService--><g id="elem_ModalParameterizedNavigationService"><rect codeLine="5" fill="#F1F1F1" height="48" id="ModalParameterizedNavigationService" rx="2.5" ry="2.5" style="stroke:#181818;stroke-width:0.5;" width="274" x="186" y="7"/><ellipse cx="201" cy="23" fill="#ADD1B2" rx="11" ry="11" style="stroke:#181818;stroke-width:1.0;"/><path d="M199.8594,23.7969 L199.8594,26.2969 L204.1875,26.2969 L204.1875,25.375 Q204.1875,24.7656 204.4219,24.5 Q204.6719,24.2344 205.0469,24.2344 Q205.4219,24.2344 205.6563,24.5 Q205.8906,24.7656 205.8906,25.375 L205.8906,28 L197.8906,28 Q197.2656,28 197,27.7656 Q196.75,27.5313 196.75,27.1406 Q196.75,26.7656 197.0156,26.5313 Q197.2813,26.2969 197.8906,26.2969 L198.1563,26.2969 L198.1563,19.6406 L197.8906,19.6406 Q197.2656,19.6406 197,19.4063 Q196.75,19.1719 196.75,18.7813 Q196.75,18.4063 197,18.1719 Q197.2656,17.9375 197.8906,17.9375 L205.5156,17.9375 L205.5156,20.5313 Q205.5156,21.1406 205.2813,21.4063 Q205.0625,21.6563 204.6719,21.6563 Q204.2969,21.6563 204.0625,21.4063 Q203.8281,21.1406 203.8281,20.5313 L203.8281,19.6406 L199.8594,19.6406 L199.8594,22.0938 L201.3438,22.0938 Q201.3438,21.4375 201.4688,21.25 Q201.7344,20.8438 202.2031,20.8438 Q202.5781,20.8438 202.8125,21.1094 Q203.0469,21.3594 203.0469,21.9688 L203.0469,23.9375 Q203.0469,24.4844 202.9219,24.6719 Q202.6563,25.0625 202.2031,25.0625 Q201.7344,25.0625 201.4688,24.6563 Q201.3438,24.4688 201.3438,23.7969 L199.8594,23.7969 Z " fill="#000000"/><text fill="#000000" font-family="sans-serif" font-size="14" lengthAdjust="spacing" textLength="242" x="215" y="28.7285">ModalParameterizedNavigationService</text><line style="stroke:#181818;stroke-width:0.5;" x1="187" x2="459" y1="39" y2="39"/><line style="stroke:#181818;stroke-width:0.5;" x1="187" x2="459" y1="47" y2="47"/></g><!--MD5=[4d4617c20534ec847c9365b14df4177f]
class ModalNavigationServiceFactory--><g id="elem_ModalNavigationServiceFactory"><rect codeLine="6" fill="#F1F1F1" height="48" id="ModalNavigationServiceFactory" rx="2.5" ry="2.5" style="stroke:#181818;stroke-width:0.5;" width="231" x="495.5" y="7"/><ellipse cx="510.5" cy="23" fill="#ADD1B2" rx="11" ry="11" style="stroke:#181818;stroke-width:1.0;"/><path d="M509.3594,23.7969 L509.3594,26.2969 L513.6875,26.2969 L513.6875,25.375 Q513.6875,24.7656 513.9219,24.5 Q514.1719,24.2344 514.5469,24.2344 Q514.9219,24.2344 515.1563,24.5 Q515.3906,24.7656 515.3906,25.375 L515.3906,28 L507.3906,28 Q506.7656,28 506.5,27.7656 Q506.25,27.5313 506.25,27.1406 Q506.25,26.7656 506.5156,26.5313 Q506.7813,26.2969 507.3906,26.2969 L507.6563,26.2969 L507.6563,19.6406 L507.3906,19.6406 Q506.7656,19.6406 506.5,19.4063 Q506.25,19.1719 506.25,18.7813 Q506.25,18.4063 506.5,18.1719 Q506.7656,17.9375 507.3906,17.9375 L515.0156,17.9375 L515.0156,20.5313 Q515.0156,21.1406 514.7813,21.4063 Q514.5625,21.6563 514.1719,21.6563 Q513.7969,21.6563 513.5625,21.4063 Q513.3281,21.1406 513.3281,20.5313 L513.3281,19.6406 L509.3594,19.6406 L509.3594,22.0938 L510.8438,22.0938 Q510.8438,21.4375 510.9688,21.25 Q511.2344,20.8438 511.7031,20.8438 Q512.0781,20.8438 512.3125,21.1094 Q512.5469,21.3594 512.5469,21.9688 L512.5469,23.9375 Q512.5469,24.4844 512.4219,24.6719 Q512.1563,25.0625 511.7031,25.0625 Q511.2344,25.0625 510.9688,24.6563 Q510.8438,24.4688 510.8438,23.7969 L509.3594,23.7969 Z " fill="#000000"/><text fill="#000000" font-family="sans-serif" font-size="14" lengthAdjust="spacing" textLength="199" x="524.5" y="28.7285">ModalNavigationServiceFactory</text><line style="stroke:#181818;stroke-width:0.5;" x1="496.5" x2="725.5" y1="39" y2="39"/><line style="stroke:#181818;stroke-width:0.5;" x1="496.5" x2="725.5" y1="47" y2="47"/></g><!--MD5=[3ed0c39c2ad6ddf84196b48ae97b48d3]
class TimerLayoutNavigationServiceFactory--><g id="elem_TimerLayoutNavigationServiceFactory"><rect codeLine="7" fill="#F1F1F1" height="48" id="TimerLayoutNavigationServiceFactory" rx="2.5" ry="2.5" style="stroke:#181818;stroke-width:0.5;" width="272" x="762" y="7"/><ellipse cx="777" cy="23" fill="#ADD1B2" rx="11" ry="11" style="stroke:#181818;stroke-width:1.0;"/><path d="M775.8594,23.7969 L775.8594,26.2969 L780.1875,26.2969 L780.1875,25.375 Q780.1875,24.7656 780.4219,24.5 Q780.6719,24.2344 781.0469,24.2344 Q781.4219,24.2344 781.6563,24.5 Q781.8906,24.7656 781.8906,25.375 L781.8906,28 L773.8906,28 Q773.2656,28 773,27.7656 Q772.75,27.5313 772.75,27.1406 Q772.75,26.7656 773.0156,26.5313 Q773.2813,26.2969 773.8906,26.2969 L774.1563,26.2969 L774.1563,19.6406 L773.8906,19.6406 Q773.2656,19.6406 773,19.4063 Q772.75,19.1719 772.75,18.7813 Q772.75,18.4063 773,18.1719 Q773.2656,17.9375 773.8906,17.9375 L781.5156,17.9375 L781.5156,20.5313 Q781.5156,21.1406 781.2813,21.4063 Q781.0625,21.6563 780.6719,21.6563 Q780.2969,21.6563 780.0625,21.4063 Q779.8281,21.1406 779.8281,20.5313 L779.8281,19.6406 L775.8594,19.6406 L775.8594,22.0938 L777.3438,22.0938 Q777.3438,21.4375 777.4688,21.25 Q777.7344,20.8438 778.2031,20.8438 Q778.5781,20.8438 778.8125,21.1094 Q779.0469,21.3594 779.0469,21.9688 L779.0469,23.9375 Q779.0469,24.4844 778.9219,24.6719 Q778.6563,25.0625 778.2031,25.0625 Q777.7344,25.0625 777.4688,24.6563 Q777.3438,24.4688 777.3438,23.7969 L775.8594,23.7969 Z " fill="#000000"/><text fill="#000000" font-family="sans-serif" font-size="14" lengthAdjust="spacing" textLength="240" x="791" y="28.7285">TimerLayoutNavigationServiceFactory</text><line style="stroke:#181818;stroke-width:0.5;" x1="763" x2="1033" y1="39" y2="39"/><line style="stroke:#181818;stroke-width:0.5;" x1="763" x2="1033" y1="47" y2="47"/></g><!--MD5=[e774efce6f86217e0ea899bd9520803a]
class NavigationServiceFactory--><g id="elem_NavigationServiceFactory"><rect codeLine="8" fill="#F1F1F1" height="48" id="NavigationServiceFactory" rx="2.5" ry="2.5" style="stroke:#181818;stroke-width:0.5;" width="193" x="1069.5" y="7"/><ellipse cx="1084.5" cy="23" fill="#ADD1B2" rx="11" ry="11" style="stroke:#181818;stroke-width:1.0;"/><path d="M1083.3594,23.7969 L1083.3594,26.2969 L1087.6875,26.2969 L1087.6875,25.375 Q1087.6875,24.7656 1087.9219,24.5 Q1088.1719,24.2344 1088.5469,24.2344 Q1088.9219,24.2344 1089.1563,24.5 Q1089.3906,24.7656 1089.3906,25.375 L1089.3906,28 L1081.3906,28 Q1080.7656,28 1080.5,27.7656 Q1080.25,27.5313 1080.25,27.1406 Q1080.25,26.7656 1080.5156,26.5313 Q1080.7813,26.2969 1081.3906,26.2969 L1081.6563,26.2969 L1081.6563,19.6406 L1081.3906,19.6406 Q1080.7656,19.6406 1080.5,19.4063 Q1080.25,19.1719 1080.25,18.7813 Q1080.25,18.4063 1080.5,18.1719 Q1080.7656,17.9375 1081.3906,17.9375 L1089.0156,17.9375 L1089.0156,20.5313 Q1089.0156,21.1406 1088.7813,21.4063 Q1088.5625,21.6563 1088.1719,21.6563 Q1087.7969,21.6563 1087.5625,21.4063 Q1087.3281,21.1406 1087.3281,20.5313 L1087.3281,19.6406 L1083.3594,19.6406 L1083.3594,22.0938 L1084.8438,22.0938 Q1084.8438,21.4375 1084.9688,21.25 Q1085.2344,20.8438 1085.7031,20.8438 Q1086.0781,20.8438 1086.3125,21.1094 Q1086.5469,21.3594 1086.5469,21.9688 L1086.5469,23.9375 Q1086.5469,24.4844 1086.4219,24.6719 Q1086.1563,25.0625 1085.7031,25.0625 Q1085.2344,25.0625 1084.9688,24.6563 Q1084.8438,24.4688 1084.8438,23.7969 L1083.3594,23.7969 Z " fill="#000000"/><text fill="#000000" font-family="sans-serif" font-size="14" lengthAdjust="spacing" textLength="161" x="1098.5" y="28.7285">NavigationServiceFactory</text><line style="stroke:#181818;stroke-width:0.5;" x1="1070.5" x2="1261.5" y1="39" y2="39"/><line style="stroke:#181818;stroke-width:0.5;" x1="1070.5" x2="1261.5" y1="47" y2="47"/></g><!--MD5=[13343cdc6de1a98c0f6814b5313b3406]
class TimerViewModelFactory--><g id="elem_TimerViewModelFactory"><rect codeLine="9" fill="#F1F1F1" height="48" id="TimerViewModelFactory" rx="2.5" ry="2.5" style="stroke:#181818;stroke-width:0.5;" width="183" x="1297.5" y="7"/><ellipse cx="1312.5" cy="23" fill="#ADD1B2" rx="11" ry="11" style="stroke:#181818;stroke-width:1.0;"/><path d="M1311.3594,23.7969 L1311.3594,26.2969 L1315.6875,26.2969 L1315.6875,25.375 Q1315.6875,24.7656 1315.9219,24.5 Q1316.1719,24.2344 1316.5469,24.2344 Q1316.9219,24.2344 1317.1563,24.5 Q1317.3906,24.7656 1317.3906,25.375 L1317.3906,28 L1309.3906,28 Q1308.7656,28 1308.5,27.7656 Q1308.25,27.5313 1308.25,27.1406 Q1308.25,26.7656 1308.5156,26.5313 Q1308.7813,26.2969 1309.3906,26.2969 L1309.6563,26.2969 L1309.6563,19.6406 L1309.3906,19.6406 Q1308.7656,19.6406 1308.5,19.4063 Q1308.25,19.1719 1308.25,18.7813 Q1308.25,18.4063 1308.5,18.1719 Q1308.7656,17.9375 1309.3906,17.9375 L1317.0156,17.9375 L1317.0156,20.5313 Q1317.0156,21.1406 1316.7813,21.4063 Q1316.5625,21.6563 1316.1719,21.6563 Q1315.7969,21.6563 1315.5625,21.4063 Q1315.3281,21.1406 1315.3281,20.5313 L1315.3281,19.6406 L1311.3594,19.6406 L1311.3594,22.0938 L1312.8438,22.0938 Q1312.8438,21.4375 1312.9688,21.25 Q1313.2344,20.8438 1313.7031,20.8438 Q1314.0781,20.8438 1314.3125,21.1094 Q1314.5469,21.3594 1314.5469,21.9688 L1314.5469,23.9375 Q1314.5469,24.4844 1314.4219,24.6719 Q1314.1563,25.0625 1313.7031,25.0625 Q1313.2344,25.0625 1312.9688,24.6563 Q1312.8438,24.4688 1312.8438,23.7969 L1311.3594,23.7969 Z " fill="#000000"/><text fill="#000000" font-family="sans-serif" font-size="14" lengthAdjust="spacing" textLength="151" x="1326.5" y="28.7285">TimerViewModelFactory</text><line style="stroke:#181818;stroke-width:0.5;" x1="1298.5" x2="1479.5" y1="39" y2="39"/><line style="stroke:#181818;stroke-width:0.5;" x1="1298.5" x2="1479.5" y1="47" y2="47"/></g><!--MD5=[28779e9afd1dc1478810a58bb92a838c]
link TimeFormFactory to App--><g id="link_TimeFormFactory_App"><path codeLine="11" d="M151.22,51.39 C156.88,52.68 162.52,53.91 168,55 C370.41,95.36 615.97,123.48 712.34,133.73 " fill="none" id="TimeFormFactory-to-App" style="stroke:#181818;stroke-width:1.0;"/><polygon fill="#181818" points="725.45,135.11,719.9004,130.5055,713.5156,133.8572,719.0652,138.4617,725.45,135.11" style="stroke:#181818;stroke-width:1.0;"/></g><!--MD5=[9e8d3f78b8a8a8a449087bd9c17d44c1]
link ModalParameterizedNavigationService to App--><g id="link_ModalParameterizedNavigationService_App"><path codeLine="12" d="M416.52,55 C508.47,77.62 644.61,111.1 712.44,127.78 " fill="none" id="ModalParameterizedNavigationService-to-App" style="stroke:#181818;stroke-width:1.0;"/><polygon fill="#181818" points="725.45,130.98,720.5766,125.6649,713.796,128.1192,718.6694,133.4343,725.45,130.98" style="stroke:#181818;stroke-width:1.0;"/></g><!--MD5=[ee71bd412bead1a1ad09f84f6b24f03f]
link ModalNavigationServiceFactory to App--><g id="link_ModalNavigationServiceFactory_App"><path codeLine="13" d="M642.03,55 C663.35,70.8 691.82,91.91 714.72,108.89 " fill="none" id="ModalNavigationServiceFactory-to-App" style="stroke:#181818;stroke-width:1.0;"/><polygon fill="#181818" points="725.46,116.85,723.0227,110.0633,715.8206,109.7029,718.2579,116.4896,725.46,116.85" style="stroke:#181818;stroke-width:1.0;"/></g><!--MD5=[68642b87ed28ebfc5b6565015637bd03]
link TimerLayoutNavigationServiceFactory to App--><g id="link_TimerLayoutNavigationServiceFactory_App"><path codeLine="14" d="M866.75,55 C845.19,70.87 816.35,92.1 793.24,109.12 " fill="none" id="TimerLayoutNavigationServiceFactory-to-App" style="stroke:#181818;stroke-width:1.0;"/><polygon fill="#181818" points="782.74,116.85,789.9435,116.5181,792.4076,109.7411,785.2042,110.073,782.74,116.85" style="stroke:#181818;stroke-width:1.0;"/></g><!--MD5=[42ec32ff76ef0f10a39411b927f014a0]
link NavigationServiceFactory to App--><g id="link_NavigationServiceFactory_App"><path codeLine="15" d="M1076.6,55 C989.55,77.4 861.07,110.45 795.62,127.29 " fill="none" id="NavigationServiceFactory-to-App" style="stroke:#181818;stroke-width:1.0;"/><polygon fill="#181818" points="782.65,130.63,789.4551,133.0155,794.2745,127.6514,787.4694,125.2659,782.65,130.63" style="stroke:#181818;stroke-width:1.0;"/></g><!--MD5=[b7bfd4994133e38a18ea81054c30e6f3]
link TimerViewModelFactory to App--><g id="link_TimerViewModelFactory_App"><path codeLine="16" d="M1297.48,51.67 C1291.57,52.83 1285.71,53.95 1280,55 C1100.31,88.11 884.56,119.57 795.53,132.19 " fill="none" id="TimerViewModelFactory-to-App" style="stroke:#181818;stroke-width:1.0;"/><polygon fill="#181818" points="782.6,134.02,789.103,137.1363,794.4807,132.3322,787.9777,129.2159,782.6,134.02" style="stroke:#181818;stroke-width:1.0;"/></g><!--MD5=[3267b35f5d24d2699324d5e39ed10c2e]
@startuml

class App

entity TimeFormFactory
entity ModalParameterizedNavigationService 
entity ModalNavigationServiceFactory 
entity TimerLayoutNavigationServiceFactory 
entity NavigationServiceFactory
entity TimerViewModelFactory 

TimeFormFactory - -* App
ModalParameterizedNavigationService - -* App
ModalNavigationServiceFactory - -* App
TimerLayoutNavigationServiceFactory - -* App
NavigationServiceFactory - -* App
TimerViewModelFactory - -* App

@enduml

PlantUML version 1.2022.7(Mon Aug 22 22:01:30 YEKT 2022)
(GPL source distribution)
Java Runtime: OpenJDK Runtime Environment
JVM: OpenJDK 64-Bit Server VM
Default Encoding: Cp1251
Language: ru
Country: RU
--></g></svg>