<?xml version="1.0" encoding="UTF-8" standalone="no"?><svg xmlns="http://www.w3.org/2000/svg" xmlns:xlink="http://www.w3.org/1999/xlink" contentStyleType="text/css" height="346px" preserveAspectRatio="none" style="width:254px;height:346px;background:#FFFFFF;" version="1.1" viewBox="0 0 254 346" width="254px" zoomAndPan="magnify"><defs/><g><!--MD5=[5c85d133e2c913f4b8608c8db253c015]
class Record--><g id="elem_Record"><rect codeLine="2" fill="#F1F1F1" height="188.875" id="Record" rx="2.5" ry="2.5" style="stroke:#181818;stroke-width:0.5;" width="163" x="47" y="7"/><ellipse cx="101.25" cy="23" fill="#ADD1B2" rx="11" ry="11" style="stroke:#181818;stroke-width:1.0;"/><path d="M104.0156,18.875 Q104.1719,18.6563 104.3594,18.5469 Q104.5469,18.4375 104.7656,18.4375 Q105.1406,18.4375 105.375,18.7031 Q105.6094,18.9531 105.6094,19.5625 L105.6094,21.0156 Q105.6094,21.625 105.375,21.8906 Q105.1406,22.1563 104.7656,22.1563 Q104.4219,22.1563 104.2188,21.9531 Q104.0156,21.7656 103.9063,21.25 Q103.8594,20.8906 103.6719,20.7031 Q103.3438,20.3281 102.7344,20.1094 Q102.125,19.8906 101.5,19.8906 Q100.7344,19.8906 100.0938,20.2188 Q99.4688,20.5469 98.9688,21.2969 Q98.4844,22.0469 98.4844,23.0781 L98.4844,24.1719 Q98.4844,25.4063 99.375,26.2344 Q100.2656,27.0469 101.8594,27.0469 Q102.7969,27.0469 103.4531,26.7969 Q103.8438,26.6406 104.2656,26.2031 Q104.5313,25.9375 104.6719,25.8594 Q104.8281,25.7813 105.0313,25.7813 Q105.3594,25.7813 105.6094,26.0469 Q105.875,26.2969 105.875,26.6406 Q105.875,26.9844 105.5313,27.3906 Q105.0313,27.9688 104.2344,28.2969 Q103.1563,28.75 101.8594,28.75 Q100.3438,28.75 99.1406,28.125 Q98.1563,27.625 97.4688,26.5625 Q96.7813,25.4844 96.7813,24.2031 L96.7813,23.0469 Q96.7813,21.7188 97.3906,20.5781 Q98.0156,19.4219 99.1094,18.8125 Q100.2031,18.1875 101.4375,18.1875 Q102.1719,18.1875 102.8125,18.3594 Q103.4688,18.5156 104.0156,18.875 Z " fill="#000000"/><text fill="#000000" font-family="sans-serif" font-size="14" lengthAdjust="spacing" textLength="46" x="121.75" y="28.7285">Record</text><line style="stroke:#181818;stroke-width:0.5;" x1="48" x2="209" y1="39" y2="39"/><ellipse cx="58" cy="53.3047" fill="none" rx="3" ry="3" style="stroke:#038048;stroke-width:1.0;"/><text fill="#000000" font-family="sans-serif" font-size="14" lengthAdjust="spacing" textLength="134" x="67" y="57.5332">StartTime : DateTime</text><ellipse cx="58" cy="70.9141" fill="none" rx="3" ry="3" style="stroke:#038048;stroke-width:1.0;"/><text fill="#000000" font-family="sans-serif" font-size="14" lengthAdjust="spacing" textLength="137" x="67" y="75.1426">EndTime : DateTime?</text><ellipse cx="58" cy="88.5234" fill="none" rx="3" ry="3" style="stroke:#038048;stroke-width:1.0;"/><text fill="#000000" font-family="sans-serif" font-size="14" lengthAdjust="spacing" textLength="83" x="67" y="92.752">IsDone : bool</text><ellipse cx="58" cy="106.1328" fill="none" rx="3" ry="3" style="stroke:#038048;stroke-width:1.0;"/><text fill="#000000" font-family="sans-serif" font-size="14" lengthAdjust="spacing" textLength="74" x="67" y="110.3613">Title : string</text><ellipse cx="58" cy="123.7422" fill="none" rx="3" ry="3" style="stroke:#038048;stroke-width:1.0;"/><text fill="#000000" font-family="sans-serif" font-size="14" lengthAdjust="spacing" textLength="115" x="67" y="127.9707">Notes : List&lt;Note&gt;</text><ellipse cx="58" cy="141.3516" fill="none" rx="3" ry="3" style="stroke:#038048;stroke-width:1.0;"/><text fill="#000000" font-family="sans-serif" font-size="14" lengthAdjust="spacing" textLength="101" x="67" y="145.5801">Date : DateOnly</text><ellipse cx="58" cy="158.9609" fill="none" rx="3" ry="3" style="stroke:#038048;stroke-width:1.0;"/><text fill="#000000" font-family="sans-serif" font-size="14" lengthAdjust="spacing" textLength="100" x="67" y="163.1895">Project : Project</text><ellipse cx="58" cy="176.5703" fill="none" rx="3" ry="3" style="stroke:#038048;stroke-width:1.0;"/><text fill="#000000" font-family="sans-serif" font-size="14" lengthAdjust="spacing" textLength="50" x="67" y="180.7988">Id : long</text><line style="stroke:#181818;stroke-width:0.5;" x1="48" x2="209" y1="187.875" y2="187.875"/></g><!--MD5=[79d378210367c0c6ec62ef762ddfbd1b]
class Project--><g id="elem_Project"><rect codeLine="13" fill="#F1F1F1" height="83.2188" id="Project" rx="2.5" ry="2.5" style="stroke:#181818;stroke-width:0.5;" width="105" x="7" y="256"/><ellipse cx="35.05" cy="272" fill="#ADD1B2" rx="11" ry="11" style="stroke:#181818;stroke-width:1.0;"/><path d="M37.8156,267.875 Q37.9719,267.6563 38.1594,267.5469 Q38.3469,267.4375 38.5656,267.4375 Q38.9406,267.4375 39.175,267.7031 Q39.4094,267.9531 39.4094,268.5625 L39.4094,270.0156 Q39.4094,270.625 39.175,270.8906 Q38.9406,271.1563 38.5656,271.1563 Q38.2219,271.1563 38.0188,270.9531 Q37.8156,270.7656 37.7063,270.25 Q37.6594,269.8906 37.4719,269.7031 Q37.1438,269.3281 36.5344,269.1094 Q35.925,268.8906 35.3,268.8906 Q34.5344,268.8906 33.8938,269.2188 Q33.2688,269.5469 32.7688,270.2969 Q32.2844,271.0469 32.2844,272.0781 L32.2844,273.1719 Q32.2844,274.4063 33.175,275.2344 Q34.0656,276.0469 35.6594,276.0469 Q36.5969,276.0469 37.2531,275.7969 Q37.6438,275.6406 38.0656,275.2031 Q38.3313,274.9375 38.4719,274.8594 Q38.6281,274.7813 38.8313,274.7813 Q39.1594,274.7813 39.4094,275.0469 Q39.675,275.2969 39.675,275.6406 Q39.675,275.9844 39.3313,276.3906 Q38.8313,276.9688 38.0344,277.2969 Q36.9563,277.75 35.6594,277.75 Q34.1438,277.75 32.9406,277.125 Q31.9562,276.625 31.2687,275.5625 Q30.5812,274.4844 30.5812,273.2031 L30.5812,272.0469 Q30.5812,270.7188 31.1906,269.5781 Q31.8156,268.4219 32.9094,267.8125 Q34.0031,267.1875 35.2375,267.1875 Q35.9719,267.1875 36.6125,267.3594 Q37.2688,267.5156 37.8156,267.875 Z " fill="#000000"/><text fill="#000000" font-family="sans-serif" font-size="14" lengthAdjust="spacing" textLength="44" x="51.95" y="277.7285">Project</text><line style="stroke:#181818;stroke-width:0.5;" x1="8" x2="111" y1="288" y2="288"/><ellipse cx="18" cy="302.3047" fill="none" rx="3" ry="3" style="stroke:#038048;stroke-width:1.0;"/><text fill="#000000" font-family="sans-serif" font-size="14" lengthAdjust="spacing" textLength="79" x="27" y="306.5332">Name :string</text><ellipse cx="18" cy="319.9141" fill="none" rx="3" ry="3" style="stroke:#038048;stroke-width:1.0;"/><text fill="#000000" font-family="sans-serif" font-size="14" lengthAdjust="spacing" textLength="38" x="27" y="324.1426">Id : int</text><line style="stroke:#181818;stroke-width:0.5;" x1="8" x2="111" y1="331.2188" y2="331.2188"/></g><!--MD5=[5d3c9bb25b1b07c105e03cfa5bc0b7ee]
class Note--><g id="elem_Note"><rect codeLine="18" fill="#F1F1F1" height="83.2188" id="Note" rx="2.5" ry="2.5" style="stroke:#181818;stroke-width:0.5;" width="100" x="147.5" y="256"/><ellipse cx="180.05" cy="272" fill="#ADD1B2" rx="11" ry="11" style="stroke:#181818;stroke-width:1.0;"/><path d="M182.8156,267.875 Q182.9719,267.6563 183.1594,267.5469 Q183.3469,267.4375 183.5656,267.4375 Q183.9406,267.4375 184.175,267.7031 Q184.4094,267.9531 184.4094,268.5625 L184.4094,270.0156 Q184.4094,270.625 184.175,270.8906 Q183.9406,271.1563 183.5656,271.1563 Q183.2219,271.1563 183.0188,270.9531 Q182.8156,270.7656 182.7063,270.25 Q182.6594,269.8906 182.4719,269.7031 Q182.1438,269.3281 181.5344,269.1094 Q180.925,268.8906 180.3,268.8906 Q179.5344,268.8906 178.8938,269.2188 Q178.2688,269.5469 177.7688,270.2969 Q177.2844,271.0469 177.2844,272.0781 L177.2844,273.1719 Q177.2844,274.4063 178.175,275.2344 Q179.0656,276.0469 180.6594,276.0469 Q181.5969,276.0469 182.2531,275.7969 Q182.6438,275.6406 183.0656,275.2031 Q183.3313,274.9375 183.4719,274.8594 Q183.6281,274.7813 183.8313,274.7813 Q184.1594,274.7813 184.4094,275.0469 Q184.675,275.2969 184.675,275.6406 Q184.675,275.9844 184.3313,276.3906 Q183.8313,276.9688 183.0344,277.2969 Q181.9563,277.75 180.6594,277.75 Q179.1438,277.75 177.9406,277.125 Q176.9563,276.625 176.2688,275.5625 Q175.5813,274.4844 175.5813,273.2031 L175.5813,272.0469 Q175.5813,270.7188 176.1906,269.5781 Q176.8156,268.4219 177.9094,267.8125 Q179.0031,267.1875 180.2375,267.1875 Q180.9719,267.1875 181.6125,267.3594 Q182.2688,267.5156 182.8156,267.875 Z " fill="#000000"/><text fill="#000000" font-family="sans-serif" font-size="14" lengthAdjust="spacing" textLength="29" x="197.95" y="277.7285">Note</text><line style="stroke:#181818;stroke-width:0.5;" x1="148.5" x2="246.5" y1="288" y2="288"/><ellipse cx="158.5" cy="302.3047" fill="none" rx="3" ry="3" style="stroke:#038048;stroke-width:1.0;"/><text fill="#000000" font-family="sans-serif" font-size="14" lengthAdjust="spacing" textLength="74" x="167.5" y="306.5332">Text : string</text><ellipse cx="158.5" cy="319.9141" fill="none" rx="3" ry="3" style="stroke:#038048;stroke-width:1.0;"/><text fill="#000000" font-family="sans-serif" font-size="14" lengthAdjust="spacing" textLength="38" x="167.5" y="324.1426">Id : int</text><line style="stroke:#181818;stroke-width:0.5;" x1="148.5" x2="246.5" y1="331.2188" y2="331.2188"/></g><!--MD5=[38cb9a271df1ac7fdad30c24d0d9ee12]
link Record to Project--><g id="link_Record_Project"><path codeLine="23" d="M95.21,196.09 C88.47,215.06 81.66,234.2 75.82,250.61 " fill="none" id="Record-to-Project" style="stroke:#181818;stroke-width:1.0;"/><polygon fill="#181818" points="74.04,255.61,80.8175,248.464,75.7108,250.8974,73.2774,245.7907,74.04,255.61" style="stroke:#181818;stroke-width:1.0;"/></g><!--MD5=[bb7cdcd84a8f58b993df53435cd33244]
link Record to Note--><g id="link_Record_Note"><path codeLine="24" d="M161.79,196.09 C168.53,215.06 175.34,234.2 181.18,250.61 " fill="none" id="Record-to-Note" style="stroke:#181818;stroke-width:1.0;"/><polygon fill="#181818" points="182.96,255.61,183.7226,245.7907,181.2892,250.8974,176.1825,248.464,182.96,255.61" style="stroke:#181818;stroke-width:1.0;"/><text fill="#000000" font-family="sans-serif" font-size="13" lengthAdjust="spacing" textLength="7" x="157.0708" y="217.4579">1</text><text fill="#000000" font-family="sans-serif" font-size="13" lengthAdjust="spacing" textLength="5" x="175.2443" y="245.1645">*</text></g><!--MD5=[4c84bd0af6bd30a8a8e824f0340f678f]
@startuml

class Record {
    + StartTime : DateTime
    + EndTime : DateTime?
    + IsDone : bool
    + Title : string
    + Notes : List<Note>
    + Date : DateOnly
    + Project : Project
    + Id : long
}

class Project {
    + Name :string
    + Id : int
}

class Note {
    + Text : string
    + Id : int
}

Record - -> Project
Record "1"  - -> "*" Note

@enduml

PlantUML version 1.2022.7(Mon Aug 22 22:01:30 YEKT 2022)
(GPL source distribution)
Java Runtime: OpenJDK Runtime Environment
JVM: OpenJDK 64-Bit Server VM
Default Encoding: Cp1251
Language: ru
Country: RU
--></g></svg>