<?xml version="1.0" encoding="UTF-8" standalone="no"?><svg xmlns="http://www.w3.org/2000/svg" xmlns:xlink="http://www.w3.org/1999/xlink" contentStyleType="text/css" height="720px" preserveAspectRatio="none" style="width:410px;height:720px;background:#FFFFFF;" version="1.1" viewBox="0 0 410 720" width="410px" zoomAndPan="magnify"><defs/><g><!--MD5=[9bb74694f3bdddb080d1e3a9518b5ea3]
class pf--><g id="elem_pf"><rect codeLine="2" fill="#F1F1F1" height="171.2656" id="pf" rx="2.5" ry="2.5" style="stroke:#181818;stroke-width:0.5;" width="176" x="7" y="115"/><ellipse cx="22" cy="131" fill="#ADD1B2" rx="11" ry="11" style="stroke:#181818;stroke-width:1.0;"/><path d="M24.7656,126.875 Q24.9219,126.6563 25.1094,126.5469 Q25.2969,126.4375 25.5156,126.4375 Q25.8906,126.4375 26.125,126.7031 Q26.3594,126.9531 26.3594,127.5625 L26.3594,129.0156 Q26.3594,129.625 26.125,129.8906 Q25.8906,130.1563 25.5156,130.1563 Q25.1719,130.1563 24.9688,129.9531 Q24.7656,129.7656 24.6563,129.25 Q24.6094,128.8906 24.4219,128.7031 Q24.0938,128.3281 23.4844,128.1094 Q22.875,127.8906 22.25,127.8906 Q21.4844,127.8906 20.8438,128.2188 Q20.2188,128.5469 19.7188,129.2969 Q19.2344,130.0469 19.2344,131.0781 L19.2344,132.1719 Q19.2344,133.4063 20.125,134.2344 Q21.0156,135.0469 22.6094,135.0469 Q23.5469,135.0469 24.2031,134.7969 Q24.5938,134.6406 25.0156,134.2031 Q25.2813,133.9375 25.4219,133.8594 Q25.5781,133.7813 25.7813,133.7813 Q26.1094,133.7813 26.3594,134.0469 Q26.625,134.2969 26.625,134.6406 Q26.625,134.9844 26.2813,135.3906 Q25.7813,135.9688 24.9844,136.2969 Q23.9063,136.75 22.6094,136.75 Q21.0938,136.75 19.8906,136.125 Q18.9063,135.625 18.2188,134.5625 Q17.5313,133.4844 17.5313,132.2031 L17.5313,131.0469 Q17.5313,129.7188 18.1406,128.5781 Q18.7656,127.4219 19.8594,126.8125 Q20.9531,126.1875 22.1875,126.1875 Q22.9219,126.1875 23.5625,126.3594 Q24.2188,126.5156 24.7656,126.875 Z " fill="#000000"/><text fill="#000000" font-family="sans-serif" font-size="14" lengthAdjust="spacing" textLength="144" x="36" y="136.7285">ProjectFormViewModel</text><line style="stroke:#181818;stroke-width:0.5;" x1="8" x2="182" y1="147" y2="147"/><rect fill="none" height="6" style="stroke:#C82930;stroke-width:1.0;" width="6" x="15" y="158.3047"/><text fill="#000000" font-family="sans-serif" font-size="14" lengthAdjust="spacing" textLength="119" x="27" y="165.5332">_projectRepository</text><ellipse cx="18" cy="178.9141" fill="none" rx="3" ry="3" style="stroke:#038048;stroke-width:1.0;"/><text fill="#000000" font-family="sans-serif" font-size="14" lengthAdjust="spacing" textLength="92" x="27" y="183.1426">CurrentProject</text><ellipse cx="18" cy="196.5234" fill="none" rx="3" ry="3" style="stroke:#038048;stroke-width:1.0;"/><text fill="#000000" font-family="sans-serif" font-size="14" lengthAdjust="spacing" textLength="51" x="27" y="200.752">Projects</text><text fill="#000000" font-family="sans-serif" font-size="14" lengthAdjust="spacing" textLength="4" x="27" y="218.3613"> </text><ellipse cx="18" cy="231.7422" fill="none" rx="3" ry="3" style="stroke:#038048;stroke-width:1.0;"/><text fill="#000000" font-family="sans-serif" font-size="14" lengthAdjust="spacing" textLength="112" x="27" y="235.9707">AddingProjectEdit</text><ellipse cx="18" cy="249.3516" fill="none" rx="3" ry="3" style="stroke:#038048;stroke-width:1.0;"/><text fill="#000000" font-family="sans-serif" font-size="14" lengthAdjust="spacing" textLength="133" x="27" y="253.5801">AddProjectCommand</text><line style="stroke:#181818;stroke-width:0.5;" x1="8" x2="182" y1="260.6563" y2="260.6563"/><ellipse cx="18" cy="274.9609" fill="#84BE84" rx="3" ry="3" style="stroke:#038048;stroke-width:1.0;"/><text fill="#000000" font-family="sans-serif" font-size="14" lengthAdjust="spacing" textLength="79" x="27" y="279.1895">AddProject()</text></g><!--MD5=[456947010e9fd0dd5a67006b0e5718d8]
class projectBase--><g id="elem_projectBase"><rect codeLine="12" fill="#F1F1F1" height="83.2188" id="projectBase" rx="2.5" ry="2.5" style="stroke:#181818;stroke-width:0.5;" width="175" x="228.5" y="586"/><ellipse cx="243.5" cy="602" fill="#ADD1B2" rx="11" ry="11" style="stroke:#181818;stroke-width:1.0;"/><path d="M246.2656,597.875 Q246.4219,597.6563 246.6094,597.5469 Q246.7969,597.4375 247.0156,597.4375 Q247.3906,597.4375 247.625,597.7031 Q247.8594,597.9531 247.8594,598.5625 L247.8594,600.0156 Q247.8594,600.625 247.625,600.8906 Q247.3906,601.1563 247.0156,601.1563 Q246.6719,601.1563 246.4688,600.9531 Q246.2656,600.7656 246.1563,600.25 Q246.1094,599.8906 245.9219,599.7031 Q245.5938,599.3281 244.9844,599.1094 Q244.375,598.8906 243.75,598.8906 Q242.9844,598.8906 242.3438,599.2188 Q241.7188,599.5469 241.2188,600.2969 Q240.7344,601.0469 240.7344,602.0781 L240.7344,603.1719 Q240.7344,604.4063 241.625,605.2344 Q242.5156,606.0469 244.1094,606.0469 Q245.0469,606.0469 245.7031,605.7969 Q246.0938,605.6406 246.5156,605.2031 Q246.7813,604.9375 246.9219,604.8594 Q247.0781,604.7813 247.2813,604.7813 Q247.6094,604.7813 247.8594,605.0469 Q248.125,605.2969 248.125,605.6406 Q248.125,605.9844 247.7813,606.3906 Q247.2813,606.9688 246.4844,607.2969 Q245.4063,607.75 244.1094,607.75 Q242.5938,607.75 241.3906,607.125 Q240.4063,606.625 239.7188,605.5625 Q239.0313,604.4844 239.0313,603.2031 L239.0313,602.0469 Q239.0313,600.7188 239.6406,599.5781 Q240.2656,598.4219 241.3594,597.8125 Q242.4531,597.1875 243.6875,597.1875 Q244.4219,597.1875 245.0625,597.3594 Q245.7188,597.5156 246.2656,597.875 Z " fill="#000000"/><text fill="#000000" font-family="sans-serif" font-size="14" lengthAdjust="spacing" textLength="143" x="257.5" y="607.7285">ProjectViewModelBase</text><line style="stroke:#181818;stroke-width:0.5;" x1="229.5" x2="402.5" y1="618" y2="618"/><rect fill="none" height="6" style="stroke:#C82930;stroke-width:1.0;" width="6" x="236.5" y="629.3047"/><text fill="#000000" font-family="sans-serif" font-size="14" lengthAdjust="spacing" textLength="62" x="248.5" y="636.5332">_validator</text><ellipse cx="239.5" cy="649.9141" fill="none" rx="3" ry="3" style="stroke:#038048;stroke-width:1.0;"/><text fill="#000000" font-family="sans-serif" font-size="14" lengthAdjust="spacing" textLength="36" x="248.5" y="654.1426">Name</text><line style="stroke:#181818;stroke-width:0.5;" x1="229.5" x2="402.5" y1="661.2188" y2="661.2188"/></g><!--MD5=[2100b99a222e8350af878a242683a727]
class projectVM--><g id="elem_projectVM"><rect codeLine="18" fill="#F1F1F1" height="136.0469" id="projectVM" rx="2.5" ry="2.5" style="stroke:#181818;stroke-width:0.5;" width="145" x="128.5" y="346"/><ellipse cx="144.4" cy="362" fill="#ADD1B2" rx="11" ry="11" style="stroke:#181818;stroke-width:1.0;"/><path d="M147.1656,357.875 Q147.3219,357.6563 147.5094,357.5469 Q147.6969,357.4375 147.9156,357.4375 Q148.2906,357.4375 148.525,357.7031 Q148.7594,357.9531 148.7594,358.5625 L148.7594,360.0156 Q148.7594,360.625 148.525,360.8906 Q148.2906,361.1563 147.9156,361.1563 Q147.5719,361.1563 147.3688,360.9531 Q147.1656,360.7656 147.0563,360.25 Q147.0094,359.8906 146.8219,359.7031 Q146.4938,359.3281 145.8844,359.1094 Q145.275,358.8906 144.65,358.8906 Q143.8844,358.8906 143.2438,359.2188 Q142.6188,359.5469 142.1188,360.2969 Q141.6344,361.0469 141.6344,362.0781 L141.6344,363.1719 Q141.6344,364.4063 142.525,365.2344 Q143.4156,366.0469 145.0094,366.0469 Q145.9469,366.0469 146.6031,365.7969 Q146.9938,365.6406 147.4156,365.2031 Q147.6813,364.9375 147.8219,364.8594 Q147.9781,364.7813 148.1813,364.7813 Q148.5094,364.7813 148.7594,365.0469 Q149.025,365.2969 149.025,365.6406 Q149.025,365.9844 148.6813,366.3906 Q148.1813,366.9688 147.3844,367.2969 Q146.3063,367.75 145.0094,367.75 Q143.4938,367.75 142.2906,367.125 Q141.3063,366.625 140.6188,365.5625 Q139.9313,364.4844 139.9313,363.2031 L139.9313,362.0469 Q139.9313,360.7188 140.5406,359.5781 Q141.1656,358.4219 142.2594,357.8125 Q143.3531,357.1875 144.5875,357.1875 Q145.3219,357.1875 145.9625,357.3594 Q146.6188,357.5156 147.1656,357.875 Z " fill="#000000"/><text fill="#000000" font-family="sans-serif" font-size="14" lengthAdjust="spacing" textLength="111" x="158.6" y="367.7285">ProjectViewModel</text><line style="stroke:#181818;stroke-width:0.5;" x1="129.5" x2="272.5" y1="378" y2="378"/><rect fill="none" height="6" style="stroke:#C82930;stroke-width:1.0;" width="6" x="136.5" y="389.3047"/><text fill="#000000" font-family="sans-serif" font-size="14" lengthAdjust="spacing" textLength="51" x="148.5" y="396.5332">_project</text><rect fill="none" height="6" style="stroke:#C82930;stroke-width:1.0;" width="6" x="136.5" y="406.9141"/><text fill="#000000" font-family="sans-serif" font-size="14" lengthAdjust="spacing" textLength="119" x="148.5" y="414.1426">_projectRepository</text><ellipse cx="139.5" cy="427.5234" fill="none" rx="3" ry="3" style="stroke:#038048;stroke-width:1.0;"/><text fill="#000000" font-family="sans-serif" font-size="14" lengthAdjust="spacing" textLength="49" x="148.5" y="431.752">IsEmpty</text><ellipse cx="139.5" cy="445.1328" fill="none" rx="3" ry="3" style="stroke:#038048;stroke-width:1.0;"/><text fill="#000000" font-family="sans-serif" font-size="14" lengthAdjust="spacing" textLength="68" x="148.5" y="449.3613">ProjectEdit</text><line style="stroke:#181818;stroke-width:0.5;" x1="129.5" x2="272.5" y1="456.4375" y2="456.4375"/><ellipse cx="139.5" cy="470.7422" fill="#84BE84" rx="3" ry="3" style="stroke:#038048;stroke-width:1.0;"/><text fill="#000000" font-family="sans-serif" font-size="14" lengthAdjust="spacing" textLength="95" x="148.5" y="474.9707">DeleteProject()</text></g><!--MD5=[aed1df767c9333cd3db92029b5b599d3]
class projectEdit--><g id="elem_projectEdit"><rect codeLine="28" fill="#F1F1F1" height="48" id="projectEdit" rx="2.5" ry="2.5" style="stroke:#181818;stroke-width:0.5;" width="167" x="152.5" y="7"/><ellipse cx="167.5" cy="23" fill="#ADD1B2" rx="11" ry="11" style="stroke:#181818;stroke-width:1.0;"/><path d="M170.2656,18.875 Q170.4219,18.6563 170.6094,18.5469 Q170.7969,18.4375 171.0156,18.4375 Q171.3906,18.4375 171.625,18.7031 Q171.8594,18.9531 171.8594,19.5625 L171.8594,21.0156 Q171.8594,21.625 171.625,21.8906 Q171.3906,22.1563 171.0156,22.1563 Q170.6719,22.1563 170.4688,21.9531 Q170.2656,21.7656 170.1563,21.25 Q170.1094,20.8906 169.9219,20.7031 Q169.5938,20.3281 168.9844,20.1094 Q168.375,19.8906 167.75,19.8906 Q166.9844,19.8906 166.3438,20.2188 Q165.7188,20.5469 165.2188,21.2969 Q164.7344,22.0469 164.7344,23.0781 L164.7344,24.1719 Q164.7344,25.4063 165.625,26.2344 Q166.5156,27.0469 168.1094,27.0469 Q169.0469,27.0469 169.7031,26.7969 Q170.0938,26.6406 170.5156,26.2031 Q170.7813,25.9375 170.9219,25.8594 Q171.0781,25.7813 171.2813,25.7813 Q171.6094,25.7813 171.8594,26.0469 Q172.125,26.2969 172.125,26.6406 Q172.125,26.9844 171.7813,27.3906 Q171.2813,27.9688 170.4844,28.2969 Q169.4063,28.75 168.1094,28.75 Q166.5938,28.75 165.3906,28.125 Q164.4063,27.625 163.7188,26.5625 Q163.0313,25.4844 163.0313,24.2031 L163.0313,23.0469 Q163.0313,21.7188 163.6406,20.5781 Q164.2656,19.4219 165.3594,18.8125 Q166.4531,18.1875 167.6875,18.1875 Q168.4219,18.1875 169.0625,18.3594 Q169.7188,18.5156 170.2656,18.875 Z " fill="#000000"/><text fill="#000000" font-family="sans-serif" font-size="14" lengthAdjust="spacing" textLength="135" x="181.5" y="28.7285">ProjectEditViewModel</text><line style="stroke:#181818;stroke-width:0.5;" x1="153.5" x2="318.5" y1="39" y2="39"/><line style="stroke:#181818;stroke-width:0.5;" x1="153.5" x2="318.5" y1="47" y2="47"/></g><!--MD5=[aa862b9a7c0b577ebbd2878d73f721ed]
class pr--><g id="elem_pr"><rect codeLine="39" fill="#F1F1F1" height="171.2656" id="pr" rx="2.5" ry="2.5" style="stroke:#181818;stroke-width:0.5;" width="176" x="7" y="542"/><ellipse cx="36.4" cy="558" fill="#B4A7E5" rx="11" ry="11" style="stroke:#181818;stroke-width:1.0;"/><path d="M37.3531,554.6406 L37.3531,561.2969 L39.0719,561.2969 Q39.6813,561.2969 39.9469,561.5313 Q40.2125,561.7656 40.2125,562.1563 Q40.2125,562.5313 39.9469,562.7656 Q39.6813,563 39.0719,563 L33.9313,563 Q33.3219,563 33.0563,562.7656 Q32.7906,562.5313 32.7906,562.1406 Q32.7906,561.7656 33.0563,561.5313 Q33.3219,561.2969 33.9313,561.2969 L35.65,561.2969 L35.65,554.6406 L33.9313,554.6406 Q33.3219,554.6406 33.0563,554.4063 Q32.7906,554.1719 32.7906,553.7813 Q32.7906,553.4063 33.0563,553.1719 Q33.3219,552.9375 33.9313,552.9375 L39.0719,552.9375 Q39.6813,552.9375 39.9469,553.1719 Q40.2125,553.4063 40.2125,553.7813 Q40.2125,554.1719 39.9469,554.4063 Q39.6813,554.6406 39.0719,554.6406 L37.3531,554.6406 Z " fill="#000000"/><text fill="#000000" font-family="sans-serif" font-size="14" font-style="italic" lengthAdjust="spacing" textLength="112" x="53.6" y="563.7285">ProjectRepository</text><line style="stroke:#181818;stroke-width:0.5;" x1="8" x2="182" y1="574" y2="574"/><line style="stroke:#181818;stroke-width:0.5;" x1="8" x2="182" y1="582" y2="582"/><ellipse cx="18" cy="596.3047" fill="#84BE84" rx="3" ry="3" style="stroke:#038048;stroke-width:1.0;"/><text fill="#000000" font-family="sans-serif" font-size="14" lengthAdjust="spacing" textLength="101" x="27" y="600.5332">Contains(string)</text><ellipse cx="18" cy="613.9141" fill="#84BE84" rx="3" ry="3" style="stroke:#038048;stroke-width:1.0;"/><text fill="#000000" font-family="sans-serif" font-size="14" lengthAdjust="spacing" textLength="110" x="27" y="618.1426">Contains(Project)</text><ellipse cx="18" cy="631.5234" fill="#84BE84" rx="3" ry="3" style="stroke:#038048;stroke-width:1.0;"/><text fill="#000000" font-family="sans-serif" font-size="14" lengthAdjust="spacing" textLength="44" x="27" y="635.752">GetId()</text><ellipse cx="18" cy="649.1328" fill="#84BE84" rx="3" ry="3" style="stroke:#038048;stroke-width:1.0;"/><text fill="#000000" font-family="sans-serif" font-size="14" lengthAdjust="spacing" textLength="123" x="27" y="653.3613">AddProject(Project)</text><ellipse cx="18" cy="666.7422" fill="#84BE84" rx="3" ry="3" style="stroke:#038048;stroke-width:1.0;"/><text fill="#000000" font-family="sans-serif" font-size="14" lengthAdjust="spacing" textLength="143" x="27" y="670.9707">UpdateProject(Project)</text><ellipse cx="18" cy="684.3516" fill="#84BE84" rx="3" ry="3" style="stroke:#038048;stroke-width:1.0;"/><text fill="#000000" font-family="sans-serif" font-size="14" lengthAdjust="spacing" textLength="150" x="27" y="688.5801">RemoveProject(Project)</text><ellipse cx="18" cy="701.9609" fill="#84BE84" rx="3" ry="3" style="stroke:#038048;stroke-width:1.0;"/><text fill="#000000" font-family="sans-serif" font-size="14" lengthAdjust="spacing" textLength="84" x="27" y="706.1895">GetProjects()</text></g><!--MD5=[899fe10301812c2ff809ccf502976a6f]
link pf to projectVM--><g id="link_pf_projectVM"><path codeLine="26" d="M137.35,286 C146.55,304.35 156.19,323.59 165.11,341.39 " fill="none" id="pf-to-projectVM" style="stroke:#181818;stroke-width:1.0;"/><polygon fill="#181818" points="167.36,345.88,166.9254,336.0407,165.1297,341.405,159.7654,339.6093,167.36,345.88" style="stroke:#181818;stroke-width:1.0;"/><text fill="#000000" font-family="sans-serif" font-size="13" lengthAdjust="spacing" textLength="7" x="133.8101" y="307.8263">1</text><text fill="#000000" font-family="sans-serif" font-size="13" lengthAdjust="spacing" textLength="5" x="158.4072" y="335.0662">*</text></g><!--MD5=[42f83856c2134d73e47aa9a10754b526]
link projectEdit to projectBase--><g id="link_projectEdit_projectBase"><path codeLine="32" d="M240.74,55.14 C251.23,106.99 276.56,236.54 291,346 C300.95,421.43 308.04,508.81 312.07,565.73 " fill="none" id="projectEdit-to-projectBase" style="stroke:#181818;stroke-width:1.0;"/><polygon fill="none" points="319.08,565.54,313.47,585.97,305.11,566.5,319.08,565.54" style="stroke:#181818;stroke-width:1.0;"/></g><!--MD5=[f9a7832d369750565c0c5717116c6ee2]
link projectVM to projectBase--><g id="link_projectVM_projectBase"><path codeLine="33" d="M237.54,482.21 C252.54,509.79 269.74,541.42 284.21,568.03 " fill="none" id="projectVM-to-projectBase" style="stroke:#181818;stroke-width:1.0;"/><polygon fill="none" points="290.55,565.04,293.96,585.96,278.25,571.73,290.55,565.04" style="stroke:#181818;stroke-width:1.0;"/></g><!--MD5=[20448ef691463413cb1c40ae966d9951]
link projectEdit to pf--><g id="link_projectEdit_pf"><path codeLine="35" d="M216.39,55.29 C205.17,68.62 190.26,86.34 174.74,104.77 " fill="none" id="projectEdit-to-pf" style="stroke:#181818;stroke-width:1.0;"/><polygon fill="none" points="166.33,114.76,173.2529,112.7416,174.0523,105.5749,167.1295,107.5934,166.33,114.76" style="stroke:#181818;stroke-width:1.0;"/></g><!--MD5=[cfaef84c0278a2e887655f1d0f3d3f0f]
link projectEdit to projectVM--><g id="link_projectEdit_projectVM"><path codeLine="36" d="M233.86,55.26 C228.91,109.2 216.44,244.9 208.37,332.81 " fill="none" id="projectEdit-to-projectVM" style="stroke:#181818;stroke-width:1.0;"/><polygon fill="none" points="207.16,345.95,211.6907,340.3399,208.2548,334,203.7241,339.6101,207.16,345.95" style="stroke:#181818;stroke-width:1.0;"/></g><!--MD5=[a391b26a27556fb41781e3658ba0fa66]
link pf to pr--><g id="link_pf_pr"><path codeLine="50" d="M95,286.23 C95,358.71 95,462.74 95,536.66 " fill="none" id="pf-to-pr" style="stroke:#181818;stroke-width:1.0;"/><polygon fill="#181818" points="95,541.92,99,532.92,95,536.92,91,532.92,95,541.92" style="stroke:#181818;stroke-width:1.0;"/></g><!--MD5=[263e176c3d106a1885494fa727554d47]
link projectVM to pr--><g id="link_projectVM_pr"><path codeLine="51" d="M167.32,482.21 C158.54,499.72 148.95,518.86 139.7,537.31 " fill="none" id="projectVM-to-pr" style="stroke:#181818;stroke-width:1.0;"/><polygon fill="#181818" points="137.36,541.98,144.9626,535.719,139.5961,537.5079,137.8072,532.1413,137.36,541.98" style="stroke:#181818;stroke-width:1.0;"/></g><!--MD5=[66af5c731907684720489e31d6bb2c7a]
@startuml

class "ProjectFormViewModel" as pf {
    - _projectRepository
    + CurrentProject
    + Projects

    + AddingProjectEdit
    + AddProjectCommand
    + AddProject()
}

class "ProjectViewModelBase" as projectBase{
    - _validator
    + Name

}

class "ProjectViewModel" as projectVM {
    - _project
    - _projectRepository
    + IsEmpty
    + ProjectEdit
    + DeleteProject()
}

pf "1" - -> "*" projectVM

class "ProjectEditViewModel" as projectEdit{

}

projectEdit - -|> projectBase
projectVM - -|> projectBase

projectEdit - -o pf
projectEdit - -o projectVM


interface "ProjectRepository" as pr {
    + Contains(string)
    + Contains(Project)
    + GetId()
    + AddProject(Project)
    + UpdateProject(Project)
    + RemoveProject(Project)
    + GetProjects()

}

pf - -> pr
projectVM - -> pr


@enduml

PlantUML version 1.2022.7(Mon Aug 22 22:01:30 YEKT 2022)
(GPL source distribution)
Java Runtime: OpenJDK Runtime Environment
JVM: OpenJDK 64-Bit Server VM
Default Encoding: Cp1251
Language: ru
Country: RU
--></g></svg>