<?xml version="1.0" encoding="UTF-8" standalone="no"?><svg xmlns="http://www.w3.org/2000/svg" xmlns:xlink="http://www.w3.org/1999/xlink" contentStyleType="text/css" height="790px" preserveAspectRatio="none" style="width:300px;height:790px;background:#FFFFFF;" version="1.1" viewBox="0 0 300 790" width="300px" zoomAndPan="magnify"><defs/><g><!--MD5=[9bb74694f3bdddb080d1e3a9518b5ea3]
class pf--><g id="elem_pf"><rect codeLine="2" fill="#F1F1F1" height="171.2656" id="pf" rx="2.5" ry="2.5" style="stroke:#181818;stroke-width:0.5;" width="176" x="117.5" y="150"/><ellipse cx="132.5" cy="166" fill="#ADD1B2" rx="11" ry="11" style="stroke:#181818;stroke-width:1.0;"/><path d="M135.2656,161.875 Q135.4219,161.6563 135.6094,161.5469 Q135.7969,161.4375 136.0156,161.4375 Q136.3906,161.4375 136.625,161.7031 Q136.8594,161.9531 136.8594,162.5625 L136.8594,164.0156 Q136.8594,164.625 136.625,164.8906 Q136.3906,165.1563 136.0156,165.1563 Q135.6719,165.1563 135.4688,164.9531 Q135.2656,164.7656 135.1563,164.25 Q135.1094,163.8906 134.9219,163.7031 Q134.5938,163.3281 133.9844,163.1094 Q133.375,162.8906 132.75,162.8906 Q131.9844,162.8906 131.3438,163.2188 Q130.7188,163.5469 130.2188,164.2969 Q129.7344,165.0469 129.7344,166.0781 L129.7344,167.1719 Q129.7344,168.4063 130.625,169.2344 Q131.5156,170.0469 133.1094,170.0469 Q134.0469,170.0469 134.7031,169.7969 Q135.0938,169.6406 135.5156,169.2031 Q135.7813,168.9375 135.9219,168.8594 Q136.0781,168.7813 136.2813,168.7813 Q136.6094,168.7813 136.8594,169.0469 Q137.125,169.2969 137.125,169.6406 Q137.125,169.9844 136.7813,170.3906 Q136.2813,170.9688 135.4844,171.2969 Q134.4063,171.75 133.1094,171.75 Q131.5938,171.75 130.3906,171.125 Q129.4063,170.625 128.7188,169.5625 Q128.0313,168.4844 128.0313,167.2031 L128.0313,166.0469 Q128.0313,164.7188 128.6406,163.5781 Q129.2656,162.4219 130.3594,161.8125 Q131.4531,161.1875 132.6875,161.1875 Q133.4219,161.1875 134.0625,161.3594 Q134.7188,161.5156 135.2656,161.875 Z " fill="#000000"/><text fill="#000000" font-family="sans-serif" font-size="14" lengthAdjust="spacing" textLength="144" x="146.5" y="171.7285">ProjectFormViewModel</text><line style="stroke:#181818;stroke-width:0.5;" x1="118.5" x2="292.5" y1="182" y2="182"/><rect fill="none" height="6" style="stroke:#C82930;stroke-width:1.0;" width="6" x="125.5" y="193.3047"/><text fill="#000000" font-family="sans-serif" font-size="14" lengthAdjust="spacing" textLength="119" x="137.5" y="200.5332">_projectRepository</text><ellipse cx="128.5" cy="213.9141" fill="none" rx="3" ry="3" style="stroke:#038048;stroke-width:1.0;"/><text fill="#000000" font-family="sans-serif" font-size="14" lengthAdjust="spacing" textLength="92" x="137.5" y="218.1426">CurrentProject</text><ellipse cx="128.5" cy="231.5234" fill="none" rx="3" ry="3" style="stroke:#038048;stroke-width:1.0;"/><text fill="#000000" font-family="sans-serif" font-size="14" lengthAdjust="spacing" textLength="51" x="137.5" y="235.752">Projects</text><text fill="#000000" font-family="sans-serif" font-size="14" lengthAdjust="spacing" textLength="4" x="137.5" y="253.3613"> </text><ellipse cx="128.5" cy="266.7422" fill="none" rx="3" ry="3" style="stroke:#038048;stroke-width:1.0;"/><text fill="#000000" font-family="sans-serif" font-size="14" lengthAdjust="spacing" textLength="112" x="137.5" y="270.9707">AddingProjectEdit</text><ellipse cx="128.5" cy="284.3516" fill="none" rx="3" ry="3" style="stroke:#038048;stroke-width:1.0;"/><text fill="#000000" font-family="sans-serif" font-size="14" lengthAdjust="spacing" textLength="133" x="137.5" y="288.5801">AddProjectCommand</text><line style="stroke:#181818;stroke-width:0.5;" x1="118.5" x2="292.5" y1="295.6563" y2="295.6563"/><ellipse cx="128.5" cy="309.9609" fill="#84BE84" rx="3" ry="3" style="stroke:#038048;stroke-width:1.0;"/><text fill="#000000" font-family="sans-serif" font-size="14" lengthAdjust="spacing" textLength="79" x="137.5" y="314.1895">AddProject()</text></g><!--MD5=[2100b99a222e8350af878a242683a727]
class projectVM--><g id="elem_projectVM"><rect codeLine="12" fill="#F1F1F1" height="171.2656" id="projectVM" rx="2.5" ry="2.5" style="stroke:#181818;stroke-width:0.5;" width="145" x="7" y="381"/><ellipse cx="22.9" cy="397" fill="#ADD1B2" rx="11" ry="11" style="stroke:#181818;stroke-width:1.0;"/><path d="M25.6656,392.875 Q25.8219,392.6563 26.0094,392.5469 Q26.1969,392.4375 26.4156,392.4375 Q26.7906,392.4375 27.025,392.7031 Q27.2594,392.9531 27.2594,393.5625 L27.2594,395.0156 Q27.2594,395.625 27.025,395.8906 Q26.7906,396.1563 26.4156,396.1563 Q26.0719,396.1563 25.8688,395.9531 Q25.6656,395.7656 25.5563,395.25 Q25.5094,394.8906 25.3219,394.7031 Q24.9938,394.3281 24.3844,394.1094 Q23.775,393.8906 23.15,393.8906 Q22.3844,393.8906 21.7438,394.2188 Q21.1188,394.5469 20.6188,395.2969 Q20.1344,396.0469 20.1344,397.0781 L20.1344,398.1719 Q20.1344,399.4063 21.025,400.2344 Q21.9156,401.0469 23.5094,401.0469 Q24.4469,401.0469 25.1031,400.7969 Q25.4938,400.6406 25.9156,400.2031 Q26.1813,399.9375 26.3219,399.8594 Q26.4781,399.7813 26.6813,399.7813 Q27.0094,399.7813 27.2594,400.0469 Q27.525,400.2969 27.525,400.6406 Q27.525,400.9844 27.1813,401.3906 Q26.6813,401.9688 25.8844,402.2969 Q24.8063,402.75 23.5094,402.75 Q21.9938,402.75 20.7906,402.125 Q19.8063,401.625 19.1188,400.5625 Q18.4313,399.4844 18.4313,398.2031 L18.4313,397.0469 Q18.4313,395.7188 19.0406,394.5781 Q19.6656,393.4219 20.7594,392.8125 Q21.8531,392.1875 23.0875,392.1875 Q23.8219,392.1875 24.4625,392.3594 Q25.1188,392.5156 25.6656,392.875 Z " fill="#000000"/><text fill="#000000" font-family="sans-serif" font-size="14" lengthAdjust="spacing" textLength="111" x="37.1" y="402.7285">ProjectViewModel</text><line style="stroke:#181818;stroke-width:0.5;" x1="8" x2="151" y1="413" y2="413"/><rect fill="none" height="6" style="stroke:#C82930;stroke-width:1.0;" width="6" x="15" y="424.3047"/><text fill="#000000" font-family="sans-serif" font-size="14" lengthAdjust="spacing" textLength="51" x="27" y="431.5332">_project</text><rect fill="none" height="6" style="stroke:#C82930;stroke-width:1.0;" width="6" x="15" y="441.9141"/><text fill="#000000" font-family="sans-serif" font-size="14" lengthAdjust="spacing" textLength="119" x="27" y="449.1426">_projectRepository</text><ellipse cx="18" cy="462.5234" fill="none" rx="3" ry="3" style="stroke:#038048;stroke-width:1.0;"/><text fill="#000000" font-family="sans-serif" font-size="14" lengthAdjust="spacing" textLength="36" x="27" y="466.752">Name</text><ellipse cx="18" cy="480.1328" fill="none" rx="3" ry="3" style="stroke:#038048;stroke-width:1.0;"/><text fill="#000000" font-family="sans-serif" font-size="14" lengthAdjust="spacing" textLength="49" x="27" y="484.3613">IsEmpty</text><ellipse cx="18" cy="497.7422" fill="none" rx="3" ry="3" style="stroke:#038048;stroke-width:1.0;"/><text fill="#000000" font-family="sans-serif" font-size="14" lengthAdjust="spacing" textLength="68" x="27" y="501.9707">ProjectEdit</text><line style="stroke:#181818;stroke-width:0.5;" x1="8" x2="151" y1="509.0469" y2="509.0469"/><ellipse cx="18" cy="523.3516" fill="#84BE84" rx="3" ry="3" style="stroke:#038048;stroke-width:1.0;"/><text fill="#000000" font-family="sans-serif" font-size="14" lengthAdjust="spacing" textLength="55" x="27" y="527.5801">Update()</text><ellipse cx="18" cy="540.9609" fill="#84BE84" rx="3" ry="3" style="stroke:#038048;stroke-width:1.0;"/><text fill="#000000" font-family="sans-serif" font-size="14" lengthAdjust="spacing" textLength="51" x="27" y="545.1895">Delete()</text></g><!--MD5=[aed1df767c9333cd3db92029b5b599d3]
class projectEdit--><g id="elem_projectEdit"><rect codeLine="24" fill="#F1F1F1" height="83.2188" id="projectEdit" rx="2.5" ry="2.5" style="stroke:#181818;stroke-width:0.5;" width="167" x="51" y="7"/><ellipse cx="66" cy="23" fill="#ADD1B2" rx="11" ry="11" style="stroke:#181818;stroke-width:1.0;"/><path d="M68.7656,18.875 Q68.9219,18.6563 69.1094,18.5469 Q69.2969,18.4375 69.5156,18.4375 Q69.8906,18.4375 70.125,18.7031 Q70.3594,18.9531 70.3594,19.5625 L70.3594,21.0156 Q70.3594,21.625 70.125,21.8906 Q69.8906,22.1563 69.5156,22.1563 Q69.1719,22.1563 68.9688,21.9531 Q68.7656,21.7656 68.6563,21.25 Q68.6094,20.8906 68.4219,20.7031 Q68.0938,20.3281 67.4844,20.1094 Q66.875,19.8906 66.25,19.8906 Q65.4844,19.8906 64.8438,20.2188 Q64.2188,20.5469 63.7188,21.2969 Q63.2344,22.0469 63.2344,23.0781 L63.2344,24.1719 Q63.2344,25.4063 64.125,26.2344 Q65.0156,27.0469 66.6094,27.0469 Q67.5469,27.0469 68.2031,26.7969 Q68.5938,26.6406 69.0156,26.2031 Q69.2813,25.9375 69.4219,25.8594 Q69.5781,25.7813 69.7813,25.7813 Q70.1094,25.7813 70.3594,26.0469 Q70.625,26.2969 70.625,26.6406 Q70.625,26.9844 70.2813,27.3906 Q69.7813,27.9688 68.9844,28.2969 Q67.9063,28.75 66.6094,28.75 Q65.0938,28.75 63.8906,28.125 Q62.9063,27.625 62.2188,26.5625 Q61.5313,25.4844 61.5313,24.2031 L61.5313,23.0469 Q61.5313,21.7188 62.1406,20.5781 Q62.7656,19.4219 63.8594,18.8125 Q64.9531,18.1875 66.1875,18.1875 Q66.9219,18.1875 67.5625,18.3594 Q68.2188,18.5156 68.7656,18.875 Z " fill="#000000"/><text fill="#000000" font-family="sans-serif" font-size="14" lengthAdjust="spacing" textLength="135" x="80" y="28.7285">ProjectEditViewModel</text><line style="stroke:#181818;stroke-width:0.5;" x1="52" x2="217" y1="39" y2="39"/><rect fill="none" height="6" style="stroke:#C82930;stroke-width:1.0;" width="6" x="59" y="50.3047"/><text fill="#000000" font-family="sans-serif" font-size="14" lengthAdjust="spacing" textLength="62" x="71" y="57.5332">_validator</text><ellipse cx="62" cy="70.9141" fill="none" rx="3" ry="3" style="stroke:#038048;stroke-width:1.0;"/><text fill="#000000" font-family="sans-serif" font-size="14" lengthAdjust="spacing" textLength="36" x="71" y="75.1426">Name</text><line style="stroke:#181818;stroke-width:0.5;" x1="52" x2="217" y1="82.2188" y2="82.2188"/></g><!--MD5=[aa862b9a7c0b577ebbd2878d73f721ed]
class pr--><g id="elem_pr"><rect codeLine="33" fill="#F1F1F1" height="171.2656" id="pr" rx="2.5" ry="2.5" style="stroke:#181818;stroke-width:0.5;" width="176" x="54.5" y="612"/><ellipse cx="83.9" cy="628" fill="#B4A7E5" rx="11" ry="11" style="stroke:#181818;stroke-width:1.0;"/><path d="M84.8531,624.6406 L84.8531,631.2969 L86.5719,631.2969 Q87.1813,631.2969 87.4469,631.5313 Q87.7125,631.7656 87.7125,632.1563 Q87.7125,632.5313 87.4469,632.7656 Q87.1813,633 86.5719,633 L81.4313,633 Q80.8219,633 80.5563,632.7656 Q80.2906,632.5313 80.2906,632.1406 Q80.2906,631.7656 80.5563,631.5313 Q80.8219,631.2969 81.4313,631.2969 L83.15,631.2969 L83.15,624.6406 L81.4313,624.6406 Q80.8219,624.6406 80.5563,624.4063 Q80.2906,624.1719 80.2906,623.7813 Q80.2906,623.4063 80.5563,623.1719 Q80.8219,622.9375 81.4313,622.9375 L86.5719,622.9375 Q87.1813,622.9375 87.4469,623.1719 Q87.7125,623.4063 87.7125,623.7813 Q87.7125,624.1719 87.4469,624.4063 Q87.1813,624.6406 86.5719,624.6406 L84.8531,624.6406 Z " fill="#000000"/><text fill="#000000" font-family="sans-serif" font-size="14" font-style="italic" lengthAdjust="spacing" textLength="112" x="101.1" y="633.7285">ProjectRepository</text><line style="stroke:#181818;stroke-width:0.5;" x1="55.5" x2="229.5" y1="644" y2="644"/><line style="stroke:#181818;stroke-width:0.5;" x1="55.5" x2="229.5" y1="652" y2="652"/><ellipse cx="65.5" cy="666.3047" fill="#84BE84" rx="3" ry="3" style="stroke:#038048;stroke-width:1.0;"/><text fill="#000000" font-family="sans-serif" font-size="14" lengthAdjust="spacing" textLength="101" x="74.5" y="670.5332">Contains(string)</text><ellipse cx="65.5" cy="683.9141" fill="#84BE84" rx="3" ry="3" style="stroke:#038048;stroke-width:1.0;"/><text fill="#000000" font-family="sans-serif" font-size="14" lengthAdjust="spacing" textLength="110" x="74.5" y="688.1426">Contains(Project)</text><ellipse cx="65.5" cy="701.5234" fill="#84BE84" rx="3" ry="3" style="stroke:#038048;stroke-width:1.0;"/><text fill="#000000" font-family="sans-serif" font-size="14" lengthAdjust="spacing" textLength="44" x="74.5" y="705.752">GetId()</text><ellipse cx="65.5" cy="719.1328" fill="#84BE84" rx="3" ry="3" style="stroke:#038048;stroke-width:1.0;"/><text fill="#000000" font-family="sans-serif" font-size="14" lengthAdjust="spacing" textLength="123" x="74.5" y="723.3613">AddProject(Project)</text><ellipse cx="65.5" cy="736.7422" fill="#84BE84" rx="3" ry="3" style="stroke:#038048;stroke-width:1.0;"/><text fill="#000000" font-family="sans-serif" font-size="14" lengthAdjust="spacing" textLength="143" x="74.5" y="740.9707">UpdateProject(Project)</text><ellipse cx="65.5" cy="754.3516" fill="#84BE84" rx="3" ry="3" style="stroke:#038048;stroke-width:1.0;"/><text fill="#000000" font-family="sans-serif" font-size="14" lengthAdjust="spacing" textLength="150" x="74.5" y="758.5801">RemoveProject(Project)</text><ellipse cx="65.5" cy="771.9609" fill="#84BE84" rx="3" ry="3" style="stroke:#038048;stroke-width:1.0;"/><text fill="#000000" font-family="sans-serif" font-size="14" lengthAdjust="spacing" textLength="84" x="74.5" y="776.1895">GetProjects()</text></g><!--MD5=[899fe10301812c2ff809ccf502976a6f]
link pf to projectVM--><g id="link_pf_projectVM"><path codeLine="22" d="M158.94,321.12 C149.05,339.09 138.58,358.12 128.6,376.25 " fill="none" id="pf-to-projectVM" style="stroke:#181818;stroke-width:1.0;"/><polygon fill="#181818" points="126.08,380.85,133.9326,374.9055,128.4973,376.4732,126.9296,371.0379,126.08,380.85" style="stroke:#181818;stroke-width:1.0;"/><text fill="#000000" font-family="sans-serif" font-size="13" lengthAdjust="spacing" textLength="7" x="147.638" y="342.6643">1</text><text fill="#000000" font-family="sans-serif" font-size="13" lengthAdjust="spacing" textLength="5" x="125.0059" y="370.0082">*</text></g><!--MD5=[20448ef691463413cb1c40ae966d9951]
link projectEdit to pf--><g id="link_projectEdit_pf"><path codeLine="29" d="M150.08,90.1 C155.53,104.31 161.91,120.93 168.37,137.74 " fill="none" id="projectEdit-to-pf" style="stroke:#181818;stroke-width:1.0;"/><polygon fill="none" points="173.06,149.98,174.6434,142.9449,168.7584,138.7775,167.175,145.8126,173.06,149.98" style="stroke:#181818;stroke-width:1.0;"/></g><!--MD5=[cfaef84c0278a2e887655f1d0f3d3f0f]
link projectEdit to projectVM--><g id="link_projectEdit_projectVM"><path codeLine="30" d="M117.44,90.35 C110.68,108.33 103.56,129.9 99.5,150 C84.95,222.07 80.15,305.12 78.88,367.91 " fill="none" id="projectEdit-to-projectVM" style="stroke:#181818;stroke-width:1.0;"/><polygon fill="none" points="78.66,380.99,82.7583,375.0567,78.8578,368.9916,74.7594,374.9249,78.66,380.99" style="stroke:#181818;stroke-width:1.0;"/></g><!--MD5=[a391b26a27556fb41781e3658ba0fa66]
link pf to pr--><g id="link_pf_pr"><path codeLine="44" d="M197.5,321.08 C191.08,384.73 181.22,474.04 169.5,552 C166.83,569.76 163.59,588.68 160.29,606.78 " fill="none" id="pf-to-pr" style="stroke:#181818;stroke-width:1.0;"/><polygon fill="#181818" points="159.36,611.86,164.9159,603.7278,160.2607,606.9418,157.0467,602.2867,159.36,611.86" style="stroke:#181818;stroke-width:1.0;"/></g><!--MD5=[263e176c3d106a1885494fa727554d47]
link projectVM to pr--><g id="link_projectVM_pr"><path codeLine="45" d="M102.78,552.12 C107.68,569.94 112.87,588.8 117.82,606.79 " fill="none" id="projectVM-to-pr" style="stroke:#181818;stroke-width:1.0;"/><polygon fill="#181818" points="119.21,611.85,120.6717,602.1102,117.8799,607.0302,112.9599,604.2384,119.21,611.85" style="stroke:#181818;stroke-width:1.0;"/></g><!--MD5=[7d20776973f67622bbbc1b326ac66408]
@startuml

class "ProjectFormViewModel" as pf {
    - _projectRepository
    + CurrentProject
    + Projects

    + AddingProjectEdit
    + AddProjectCommand
    + AddProject()
}

class "ProjectViewModel" as projectVM {
    - _project
    - _projectRepository
    + Name
    + IsEmpty
    + ProjectEdit
    + Update()
    + Delete()
}

pf "1" - -> "*" projectVM

class "ProjectEditViewModel" as projectEdit{
    - _validator
    + Name
}

projectEdit - -o pf
projectEdit - -o projectVM


interface "ProjectRepository" as pr {
    + Contains(string)
    + Contains(Project)
    + GetId()
    + AddProject(Project)
    + UpdateProject(Project)
    + RemoveProject(Project)
    + GetProjects()

}

pf - -> pr
projectVM - -> pr


@enduml

PlantUML version 1.2022.7(Mon Aug 22 22:01:30 YEKT 2022)
(GPL source distribution)
Java Runtime: OpenJDK Runtime Environment
JVM: OpenJDK 64-Bit Server VM
Default Encoding: Cp1251
Language: ru
Country: RU
--></g></svg>