<?xml version="1.0" encoding="UTF-8" standalone="no"?><svg xmlns="http://www.w3.org/2000/svg" xmlns:xlink="http://www.w3.org/1999/xlink" contentStyleType="text/css" height="618px" preserveAspectRatio="none" style="width:1056px;height:618px;background:#FFFFFF;" version="1.1" viewBox="0 0 1056 618" width="1056px" zoomAndPan="magnify"><defs/><g><!--MD5=[8fc3522a43f8c7199df5e09e5bb0188e]
entity user--><g id="elem_user"><ellipse cx="52.5" cy="369.08" fill="#F1F1F1" rx="8" ry="8" style="stroke:#181818;stroke-width:0.5;"/><path d="M52.5,377.08 L52.5,404.08 M39.5,385.08 L65.5,385.08 M52.5,404.08 L39.5,419.08 M52.5,404.08 L65.5,419.08 " fill="none" style="stroke:#181818;stroke-width:0.5;"/><text fill="#000000" font-family="sans-serif" font-size="14" lengthAdjust="spacing" textLength="93" x="6" y="435.1132">Пользователь</text></g><g id="elem_changeRecordTimer"><ellipse cx="274.9339" cy="110.6668" fill="#F1F1F1" rx="115.9339" ry="25.5868" style="stroke:#181818;stroke-width:0.5;"/><text fill="#000000" font-family="sans-serif" font-size="14" lengthAdjust="spacing" textLength="196" x="176.9339" y="114.3953">изменение record из таймера</text></g><g id="elem_startTimer"><ellipse cx="275.1002" cy="363.6" fill="#F1F1F1" rx="75.6002" ry="17.52" style="stroke:#181818;stroke-width:0.5;"/><text fill="#000000" font-family="sans-serif" font-size="14" lengthAdjust="spacing" textLength="103" x="220.6002" y="368.1166">запуск таймера</text></g><g id="elem_changeRecord"><ellipse cx="616.7363" cy="410.8273" fill="#F1F1F1" rx="76.7363" ry="17.7473" style="stroke:#181818;stroke-width:0.5;"/><text fill="#000000" font-family="sans-serif" font-size="14" lengthAdjust="spacing" textLength="106" x="561.2006" y="415.2355">создание record</text></g><g id="elem_изменение заголовка"><ellipse cx="616.3297" cy="147.6459" fill="#F1F1F1" rx="90.8297" ry="20.5659" style="stroke:#181818;stroke-width:0.5;"/><text fill="#000000" font-family="sans-serif" font-size="14" lengthAdjust="spacing" textLength="140" x="546.3297" y="151.3745">изменение заголовка</text></g><g id="elem_изменение StartTime"><ellipse cx="946.035" cy="88.387" fill="#F1F1F1" rx="89.535" ry="20.307" style="stroke:#181818;stroke-width:0.5;"/><text fill="#000000" font-family="sans-serif" font-size="14" lengthAdjust="spacing" textLength="137" x="877.535" y="92.1155">изменение StartTime</text></g><g id="elem_изменение проекта"><ellipse cx="616.6163" cy="72.7033" fill="#F1F1F1" rx="86.1163" ry="19.6233" style="stroke:#181818;stroke-width:0.5;"/><text fill="#000000" font-family="sans-serif" font-size="14" lengthAdjust="spacing" textLength="129" x="552.1163" y="76.4318">изменение проекта</text></g><g id="elem_остановка таймера"><ellipse cx="275.1926" cy="435.6185" fill="#F1F1F1" rx="85.6926" ry="19.5385" style="stroke:#181818;stroke-width:0.5;"/><text fill="#000000" font-family="sans-serif" font-size="14" lengthAdjust="spacing" textLength="128" x="211.1926" y="439.347">остановка таймера</text></g><g id="elem_запись EndTime в record"><ellipse cx="616.5583" cy="485.4917" fill="#F1F1F1" rx="100.0583" ry="22.4117" style="stroke:#181818;stroke-width:0.5;"/><text fill="#000000" font-family="sans-serif" font-size="14" lengthAdjust="spacing" textLength="161" x="536.0583" y="489.2202">запись EndTime в record</text></g><g id="elem_удаление record"><ellipse cx="275.0069" cy="508.4814" fill="#F1F1F1" rx="77.5069" ry="17.9014" style="stroke:#181818;stroke-width:0.5;"/><text fill="#000000" font-family="sans-serif" font-size="14" lengthAdjust="spacing" textLength="108" x="218.8567" y="512.796">удаление record</text></g><g id="elem_создание record без таймера"><ellipse cx="275.0541" cy="587.3908" fill="#F1F1F1" rx="114.5541" ry="25.3108" style="stroke:#181818;stroke-width:0.5;"/><text fill="#000000" font-family="sans-serif" font-size="14" lengthAdjust="spacing" textLength="193" x="178.5541" y="591.1193">создание record без таймера</text></g><g id="elem_изменение record из списка"><ellipse cx="274.9781" cy="238.4756" fill="#F1F1F1" rx="109.9781" ry="24.3956" style="stroke:#181818;stroke-width:0.5;"/><text fill="#000000" font-family="sans-serif" font-size="14" lengthAdjust="spacing" textLength="183" x="183.4781" y="242.2041">изменение record из списка</text></g><g id="elem_изменение времени record"><ellipse cx="616.7046" cy="333.5209" fill="#F1F1F1" rx="107.7046" ry="23.9409" style="stroke:#181818;stroke-width:0.5;"/><text fill="#000000" font-family="sans-serif" font-size="14" lengthAdjust="spacing" textLength="178" x="527.7046" y="337.2494">изменение времени record</text></g><g id="elem_изменение EndTime"><ellipse cx="945.8923" cy="372.4585" fill="#F1F1F1" rx="87.3923" ry="19.8785" style="stroke:#181818;stroke-width:0.5;"/><text fill="#000000" font-family="sans-serif" font-size="14" lengthAdjust="spacing" textLength="132" x="879.8923" y="376.187">изменение EndTime</text></g><g id="elem_изменение свойства Time"><ellipse cx="946.0894" cy="294.7979" fill="#F1F1F1" rx="104.0894" ry="23.2179" style="stroke:#181818;stroke-width:0.5;"/><text fill="#000000" font-family="sans-serif" font-size="14" lengthAdjust="spacing" textLength="170" x="861.0894" y="298.5264">изменение свойства Time</text></g><g id="elem_добавление заметок к завершенным записям"><ellipse cx="616.574" cy="238.5948" fill="#F1F1F1" rx="165.574" ry="35.5148" style="stroke:#181818;stroke-width:0.5;"/><text fill="#000000" font-family="sans-serif" font-size="14" lengthAdjust="spacing" textLength="301" x="466.074" y="242.3233">добавление заметок к завершенным записям</text></g><!--MD5=[0aaaa8f3a8f8f24d394257f0b2bb4fa6]
link user to changeRecordTimer--><g id="link_user_changeRecordTimer"><path d="M67.78,360.19 C84.83,316.85 116.45,246.69 159,196.58 C180.06,171.78 209.53,149.92 233.37,134.44 " fill="none" id="user-changeRecordTimer" style="stroke:#181818;stroke-width:1.0;"/></g><!--MD5=[b7c6113697f206919c8e9ac836388c65]
link user to startTimer--><g id="link_user_startTimer"><path d="M99.19,392.12 C132.11,386.75 176.9,379.43 212.89,373.56 " fill="none" id="user-startTimer" style="stroke:#181818;stroke-width:1.0;"/></g><!--MD5=[9dbd6f067a96f447f789d0d4784712e0]
link startTimer to changeRecord--><g id="link_startTimer_changeRecord"><path d="M340.26,372.48 C398.87,380.59 485.3,392.56 545.62,400.91 " fill="none" id="startTimer-to-changeRecord" style="stroke:#181818;stroke-width:1.0;stroke-dasharray:7.0,7.0;"/><polygon fill="#181818" points="550.64,401.6,542.273,396.4045,545.6872,400.9149,541.1768,404.3291,550.64,401.6" style="stroke:#181818;stroke-width:1.0;"/></g><!--MD5=[b9ca021208bce974df0bbeeaee69fef0]
link changeRecordTimer to изменение заголовка--><g id="link_changeRecordTimer_изменение заголовка"><path d="M379.24,121.83 C427.14,127.05 483.44,133.19 529.06,138.16 " fill="none" id="changeRecordTimer-to-изменение заголовка" style="stroke:#181818;stroke-width:1.0;stroke-dasharray:7.0,7.0;"/><polygon fill="#181818" points="534.28,138.73,525.7674,133.7767,529.3095,138.1872,524.899,141.7294,534.28,138.73" style="stroke:#181818;stroke-width:1.0;"/></g><!--MD5=[68a38ecfaa799a72b88b149950659a53]
link changeRecordTimer to изменение StartTime--><g id="link_changeRecordTimer_изменение StartTime"><path d="M317.92,86.87 C352.42,68.79 403.24,45.38 451,35.58 C595.11,6 636.7,12.55 782,35.58 C821.89,41.9 865.31,56.42 897.29,68.67 " fill="none" id="changeRecordTimer-to-изменение StartTime" style="stroke:#181818;stroke-width:1.0;stroke-dasharray:7.0,7.0;"/><polygon fill="#181818" points="902.33,70.61,895.3773,63.6344,897.6662,68.8074,892.4932,71.0964,902.33,70.61" style="stroke:#181818;stroke-width:1.0;"/></g><!--MD5=[a553ee3e81357a7a74ec10359e6f952e]
link changeRecordTimer to изменение проекта--><g id="link_changeRecordTimer_изменение проекта"><path d="M378.78,99.08 C428.49,93.51 487.33,86.93 533.91,81.71 " fill="none" id="changeRecordTimer-to-изменение проекта" style="stroke:#181818;stroke-width:1.0;stroke-dasharray:7.0,7.0;"/><polygon fill="#181818" points="538.95,81.15,529.5596,78.1802,533.9813,81.7084,530.4531,86.1302,538.95,81.15" style="stroke:#181818;stroke-width:1.0;"/></g><!--MD5=[3c0b2490ef7cbb7d5384880b40d5d54d]
link user to остановка таймера--><g id="link_user_остановка таймера"><path d="M99.19,407.04 C129.71,412.02 170.44,418.67 204.9,424.3 " fill="none" id="user-остановка таймера" style="stroke:#181818;stroke-width:1.0;"/></g><!--MD5=[69e7a7f6885e55cea073915f507ba4bb]
link остановка таймера to запись EndTime в record--><g id="link_остановка таймера_запись EndTime в record"><path d="M347.17,446.06 C399.64,453.79 471.34,464.35 527.42,472.61 " fill="none" id="остановка таймера-to-запись EndTime в record" style="stroke:#181818;stroke-width:1.0;stroke-dasharray:7.0,7.0;"/><polygon fill="#181818" points="532.46,473.35,524.1395,468.0803,527.5134,472.6209,522.9729,475.9948,532.46,473.35" style="stroke:#181818;stroke-width:1.0;"/></g><!--MD5=[188feba934101f42279f301078499249]
link user to удаление record--><g id="link_user_удаление record"><path d="M99.16,435.66 C117.08,448.59 138.29,462.46 159,472.58 C178.46,482.08 200.98,489.79 220.91,495.59 " fill="none" id="user-удаление record" style="stroke:#181818;stroke-width:1.0;"/></g><!--MD5=[79ddcd1cee472406e8dd84c577331213]
link user to создание record без таймера--><g id="link_user_создание record без таймера"><path d="M73.48,438.72 C91.79,471.1 121.7,516.23 159,544.58 C171.64,554.19 186.67,561.85 201.62,567.87 " fill="none" id="user-создание record без таймера" style="stroke:#181818;stroke-width:1.0;"/></g><!--MD5=[d35de4cf988d96e844a09a71e2a680d4]
link user to изменение record из списка--><g id="link_user_изменение record из списка"><path d="M99.19,366.22 C141.82,335.09 204.35,289.43 241.93,262 " fill="none" id="user-изменение record из списка" style="stroke:#181818;stroke-width:1.0;"/></g><!--MD5=[c528c75f2036a85f3b8434668b340f55]
link изменение record из списка to изменение заголовка--><g id="link_изменение record из списка_изменение заголовка"><path d="M338.48,218.55 C371.74,208.16 413.43,195.6 451,185.58 C481.66,177.41 515.79,169.35 544.99,162.78 " fill="none" id="изменение record из списка-to-изменение заголовка" style="stroke:#181818;stroke-width:1.0;stroke-dasharray:7.0,7.0;"/><polygon fill="#181818" points="550.01,161.65,540.3554,159.7036,545.1297,162.7377,542.0957,167.512,550.01,161.65" style="stroke:#181818;stroke-width:1.0;"/></g><!--MD5=[79fa26ccb3c89d7c82f5abf058dc5ef4]
link изменение record из списка to изменение проекта--><g id="link_изменение record из списка_изменение проекта"><path d="M307.87,215.02 C358.07,177.93 450,110.04 451,109.58 C477.7,97.39 508.72,89.08 536.57,83.47 " fill="none" id="изменение record из списка-to-изменение проекта" style="stroke:#181818;stroke-width:1.0;stroke-dasharray:7.0,7.0;"/><polygon fill="#181818" points="541.74,82.45,532.134,80.2766,536.8355,83.4223,533.6897,88.1238,541.74,82.45" style="stroke:#181818;stroke-width:1.0;"/></g><!--MD5=[f0824e4a0e8ab284937a489ff1fbf741]
link изменение record из списка to изменение времени record--><g id="link_изменение record из списка_изменение времени record"><path d="M339.39,258.52 C372.54,268.75 413.85,281.22 451,291.58 C479.33,299.48 510.57,307.61 538.15,314.58 " fill="none" id="изменение record из списка-to-изменение времени record" style="stroke:#181818;stroke-width:1.0;stroke-dasharray:7.0,7.0;"/><polygon fill="#181818" points="543.25,315.87,535.5099,309.7797,538.4035,314.6405,533.5427,317.5341,543.25,315.87" style="stroke:#181818;stroke-width:1.0;"/></g><!--MD5=[27c4dd31813d4a9c596847d2f546881d]
link изменение времени record to изменение StartTime--><g id="link_изменение времени record_изменение StartTime"><path d="M708.87,321.2 C733.94,314.97 760.19,305.62 782,291.58 C853.68,245.42 908.22,157.07 931.97,113.77 " fill="none" id="изменение времени record-to-изменение StartTime" style="stroke:#181818;stroke-width:1.0;stroke-dasharray:7.0,7.0;"/><polygon fill="#181818" points="934.44,109.22,926.6338,115.2252,932.0567,113.6155,933.6665,119.0384,934.44,109.22" style="stroke:#181818;stroke-width:1.0;"/></g><!--MD5=[0c29fe3ac8dcdf98912690d241e9c028]
link изменение времени record to изменение EndTime--><g id="link_изменение времени record_изменение EndTime"><path d="M711.79,344.81 C759.65,350.51 817.22,357.36 863.19,362.84 " fill="none" id="изменение времени record-to-изменение EndTime" style="stroke:#181818;stroke-width:1.0;stroke-dasharray:7.0,7.0;"/><polygon fill="#181818" points="868.17,363.43,859.6998,358.4044,863.2043,362.845,858.7638,366.3495,868.17,363.43" style="stroke:#181818;stroke-width:1.0;"/></g><!--MD5=[9bb42b093d46802641c119324aa1924e]
link изменение времени record to изменение свойства Time--><g id="link_изменение времени record_изменение свойства Time"><path d="M711.79,322.35 C754.91,317.22 805.92,311.14 849.22,305.99 " fill="none" id="изменение времени record-to-изменение свойства Time" style="stroke:#181818;stroke-width:1.0;stroke-dasharray:7.0,7.0;"/><polygon fill="#181818" points="854.2,305.39,844.7846,302.5004,849.2362,305.9908,845.7459,310.4425,854.2,305.39" style="stroke:#181818;stroke-width:1.0;"/></g><!--MD5=[61a2c7606e79bdea5ece5475bf1f2aa8]
link изменение record из списка to добавление заметок к завершенным записям--><g id="link_изменение record из списка_добавление заметок к завершенным записям"><path d="M385.29,238.58 C404.59,238.58 425.09,238.58 445.59,238.58 " fill="none" id="изменение record из списка-to-добавление заметок к завершенным записям" style="stroke:#181818;stroke-width:1.0;stroke-dasharray:7.0,7.0;"/><polygon fill="#181818" points="450.8,238.58,441.8,234.58,445.8,238.58,441.8,242.58,450.8,238.58" style="stroke:#181818;stroke-width:1.0;"/></g><!--MD5=[b6f1233e07a7dcf017a0e16e19fc173c]
@startuml timaproject-use-case

left to right direction

actor Пользователь as user

(изменение record из таймера) as changeRecordTimer
(запуск таймера) as startTimer

(создание record) as changeRecord



user - - changeRecordTimer

user - - startTimer

startTimer ..> changeRecord

changeRecordTimer ..> (изменение заголовка) 
changeRecordTimer ..> (изменение StartTime)
changeRecordTimer ..> (изменение проекта)

user - - (остановка таймера)

(остановка таймера) ..> (запись EndTime в record)


user - - (удаление record)
user - - (создание record без таймера)
user - - (изменение record из списка)
(изменение record из списка) ..> (изменение заголовка) 
(изменение record из списка) ..> (изменение проекта)
(изменение record из списка) ..> (изменение времени record)
(изменение времени record) ..> (изменение StartTime)
(изменение времени record) ..> (изменение EndTime)
(изменение времени record) ..> (изменение свойства Time)
(изменение record из списка) ..> (добавление заметок к завершенным записям)


@enduml

PlantUML version 1.2022.7(Mon Aug 22 22:01:30 YEKT 2022)
(GPL source distribution)
Java Runtime: OpenJDK Runtime Environment
JVM: OpenJDK 64-Bit Server VM
Default Encoding: Cp1251
Language: ru
Country: RU
--></g></svg>