<?xml version="1.0" encoding="UTF-8" standalone="no"?><svg xmlns="http://www.w3.org/2000/svg" xmlns:xlink="http://www.w3.org/1999/xlink" contentStyleType="text/css" height="567px" preserveAspectRatio="none" style="width:911px;height:567px;background:#FFFFFF;" version="1.1" viewBox="0 0 911 567" width="911px" zoomAndPan="magnify"><defs/><g><!--MD5=[e87baba5ad7eecb959140ab9773538aa]
cluster addition--><g id="cluster_addition"><rect fill="none" height="289" rx="2.5" ry="2.5" style="stroke:#181818;stroke-width:1.0;" width="583" x="135" y="64"/><text fill="#000000" font-family="sans-serif" font-size="14" font-weight="bold" lengthAdjust="spacing" textLength="170" x="341.5" y="80.5332">Доп. функциональность</text></g><g id="elem_helper"><ellipse cx="289.3511" cy="136.9702" fill="#F1F1F1" rx="130.3511" ry="28.4702" style="stroke:#181818;stroke-width:0.5;"/><text fill="#000000" font-family="sans-serif" font-size="14" lengthAdjust="spacing" textLength="227" x="175.8511" y="140.6987">Подсказки при создании заголовка</text></g><g id="elem_по текущему времени"><ellipse cx="587.0017" cy="289.0003" fill="#F1F1F1" rx="93.0017" ry="21.0003" style="stroke:#181818;stroke-width:0.5;"/><text fill="#000000" font-family="sans-serif" font-size="14" lengthAdjust="spacing" textLength="145" x="514.5017" y="292.7289">по текущему времени</text></g><g id="elem_по частоте использования"><ellipse cx="586.7982" cy="208.7596" fill="#F1F1F1" rx="106.7982" ry="23.7596" style="stroke:#181818;stroke-width:0.5;"/><text fill="#000000" font-family="sans-serif" font-size="14" lengthAdjust="spacing" textLength="176" x="498.7982" y="212.4882">по частоте использования</text></g><g id="elem_по введенной строке"><ellipse cx="586.9659" cy="128.8932" fill="#F1F1F1" rx="89.9659" ry="20.3932" style="stroke:#181818;stroke-width:0.5;"/><text fill="#000000" font-family="sans-serif" font-size="14" lengthAdjust="spacing" textLength="138" x="517.9659" y="132.6217">по введенной строке</text></g><g id="elem_импорт из toggl"><ellipse cx="289.7256" cy="217.9451" fill="#F1F1F1" rx="75.2256" ry="17.4451" style="stroke:#181818;stroke-width:0.5;"/><text fill="#000000" font-family="sans-serif" font-size="14" lengthAdjust="spacing" textLength="102" x="235.7256" y="222.4617">импорт из toggl</text></g><g id="elem_автозапуск в винде"><ellipse cx="289.3478" cy="289.8696" fill="#F1F1F1" rx="84.8478" ry="19.3696" style="stroke:#181818;stroke-width:0.5;"/><text fill="#000000" font-family="sans-serif" font-size="14" lengthAdjust="spacing" textLength="126" x="226.3478" y="293.5981">автозапуск в винде</text></g><!--MD5=[8fc3522a43f8c7199df5e09e5bb0188e]
entity user--><g id="elem_user"><ellipse cx="52.5" cy="341.5" fill="#F1F1F1" rx="8" ry="8" style="stroke:#181818;stroke-width:0.5;"/><path d="M52.5,349.5 L52.5,376.5 M39.5,357.5 L65.5,357.5 M52.5,376.5 L39.5,391.5 M52.5,376.5 L65.5,391.5 " fill="none" style="stroke:#181818;stroke-width:0.5;"/><text fill="#000000" font-family="sans-serif" font-size="14" lengthAdjust="spacing" textLength="93" x="6" y="407.5332">Пользователь</text></g><g id="elem_crateNote"><ellipse cx="829.7859" cy="543.8572" fill="#F1F1F1" rx="72.2859" ry="16.8572" style="stroke:#181818;stroke-width:0.5;"/><text fill="#000000" font-family="sans-serif" font-size="14" lengthAdjust="spacing" textLength="94" x="779.7859" y="548.3738">Создание tima</text></g><g id="elem_deleteNote"><ellipse cx="289.6476" cy="22.9295" fill="#F1F1F1" rx="72.6476" ry="16.9295" style="stroke:#181818;stroke-width:0.5;"/><text fill="#000000" font-family="sans-serif" font-size="14" lengthAdjust="spacing" textLength="95" x="239.1476" y="27.4461">Удаление tima</text></g><g id="elem_changeNote"><ellipse cx="829.9763" cy="435.0953" fill="#F1F1F1" rx="75.9763" ry="17.5953" style="stroke:#181818;stroke-width:0.5;"/><text fill="#000000" font-family="sans-serif" font-size="14" lengthAdjust="spacing" textLength="104" x="775.0467" y="439.5957">Изменение tima</text></g><g id="elem_timer"><ellipse cx="289.63" cy="473.026" fill="#F1F1F1" rx="95.63" ry="21.526" style="stroke:#181818;stroke-width:0.5;"/><text fill="#000000" font-family="sans-serif" font-size="14" lengthAdjust="spacing" textLength="151" x="214.13" y="476.7545">Управление таймером</text></g><g id="elem_startTime"><ellipse cx="586.855" cy="544.171" fill="#F1F1F1" rx="76.355" ry="17.671" style="stroke:#181818;stroke-width:0.5;"/><text fill="#000000" font-family="sans-serif" font-size="14" lengthAdjust="spacing" textLength="105" x="531.6233" y="548.6255">Запуск таймера</text></g><g id="elem_endTime"><ellipse cx="586.9661" cy="470.7932" fill="#F1F1F1" rx="86.9661" ry="19.7932" style="stroke:#181818;stroke-width:0.5;"/><text fill="#000000" font-family="sans-serif" font-size="14" lengthAdjust="spacing" textLength="131" x="521.4661" y="474.5217">Остановка таймера</text></g><!--MD5=[d1d56c655f9a527e8c37f1b8749c03f6]
link user to timer--><g id="link_user_timer"><path d="M98.1,411.06 C104.83,415.85 111.9,420.34 119,424 C149.49,439.73 185.75,451.07 216.88,458.86 " fill="none" id="user-timer" style="stroke:#181818;stroke-width:1.0;"/></g><!--MD5=[a02640581e1d6483af38aaddfa327d76]
link timer to startTime--><g id="link_timer_startTime"><path d="M355.35,488.58 C407.09,501.01 478.88,518.26 528.57,530.2 " fill="none" id="timer-to-startTime" style="stroke:#181818;stroke-width:1.0;stroke-dasharray:7.0,7.0;"/><polygon fill="#181818" points="533.61,531.41,525.7987,525.4114,528.7494,530.2377,523.923,533.1884,533.61,531.41" style="stroke:#181818;stroke-width:1.0;"/></g><!--MD5=[662f38b8d5d9757a99093bb6b8a803d8]
link timer to endTime--><g id="link_timer_endTime"><path d="M385.22,472.36 C420.29,472.12 459.97,471.85 494.73,471.62 " fill="none" id="timer-to-endTime" style="stroke:#181818;stroke-width:1.0;stroke-dasharray:7.0,7.0;"/><polygon fill="#181818" points="499.82,471.58,490.786,467.6573,494.8202,471.6229,490.8546,475.657,499.82,471.58" style="stroke:#181818;stroke-width:1.0;"/></g><!--MD5=[b09dc900363c2128404d3e0a66ccb3af]
link startTime to crateNote--><g id="link_startTime_crateNote"><path d="M663.59,544 C693.55,544 727.82,544 757.38,544 " fill="none" id="startTime-crateNote" style="stroke:#181818;stroke-width:1.0;"/></g><!--MD5=[96e65f65c256181f4bb8bf1b883f63c1]
link endTime to changeNote--><g id="link_endTime_changeNote"><path d="M660.31,460.2 C693.86,455.19 733.38,449.28 765.73,444.45 " fill="none" id="endTime-changeNote" style="stroke:#181818;stroke-width:1.0;"/></g><!--MD5=[6d38d4a750efda16af012abdb9f6c714]
link user to changeNote--><g id="link_user_changeNote"><path d="M99.12,375.71 C228.99,386.26 601.42,416.51 758.15,429.24 " fill="none" id="user-changeNote" style="stroke:#181818;stroke-width:1.0;"/></g><!--MD5=[49c95411ef1dcf92d260c0a1b133d3a9]
link user to deleteNote--><g id="link_user_deleteNote"><path d="M58.17,332.95 C67.04,264.83 88.19,128.06 119,92 C146.96,59.27 192.81,41.85 229.78,32.71 " fill="none" id="user-deleteNote" style="stroke:#181818;stroke-width:1.0;"/></g><!--MD5=[a28772b9827d4f42d4bd92c448e02248]
link user to addition--><g id="link_user_addition"><path d="M99.09,366.76 C132.725,362.895 179.135,357.5625 217.5963,353.1438 C217.8967,353.1092 218.1967,353.0748 218.4962,353.0404 " fill="none" id="user-addition" style="stroke:#181818;stroke-width:1.0;"/></g><!--MD5=[d2c030b8f0f116d6b15e2ab562acba57]
link helper to по текущему времени--><g id="link_helper_по текущему времени"><path d="M372.58,159.17 C389.02,165.5 405.64,173.36 420,183 C453.2,205.27 446.93,227.55 480,250 C492.68,258.61 507.5,265.6 521.97,271.15 " fill="none" id="helper-to-по текущему времени" style="stroke:#181818;stroke-width:1.0;stroke-dasharray:7.0,7.0;"/><polygon fill="#181818" points="526.86,272.98,519.8375,266.0746,522.1784,271.2244,517.0285,273.5652,526.86,272.98" style="stroke:#181818;stroke-width:1.0;"/></g><!--MD5=[530f53aeb7e691fa839b28a0a417f0dc]
link helper to по частоте использования--><g id="link_helper_по частоте использования"><path d="M377.16,158.12 C418.89,168.28 468.51,180.37 508.91,190.22 " fill="none" id="helper-to-по частоте использования" style="stroke:#181818;stroke-width:1.0;stroke-dasharray:7.0,7.0;"/><polygon fill="#181818" points="513.79,191.41,505.9954,185.3897,508.9326,190.2242,504.0981,193.1615,513.79,191.41" style="stroke:#181818;stroke-width:1.0;"/></g><!--MD5=[7c05c0d5f7eda6f919f2b2c026f04b6e]
link helper to по введенной строке--><g id="link_helper_по введенной строке"><path d="M419.25,133.51 C443.83,132.85 469.13,132.16 492.35,131.54 " fill="none" id="helper-to-по введенной строке" style="stroke:#181818;stroke-width:1.0;stroke-dasharray:7.0,7.0;"/><polygon fill="#181818" points="497.58,131.39,488.4802,127.6227,492.5817,131.5185,488.6858,135.62,497.58,131.39" style="stroke:#181818;stroke-width:1.0;"/></g><!--MD5=[cd8b2fdb4d7869445e984690814ed06f]
@startuml TimaProject

left to right direction

actor Пользователь as user

(Создание tima) as crateNote

(Удаление tima) as deleteNote

(Изменение tima) as changeNote

(Управление таймером) as timer

(Запуск таймера) as startTime
(Остановка таймера) as endTime

user - - timer 

timer ..> startTime
timer ..> endTime
startTime - - crateNote
endTime - - changeNote

user - - changeNote
user - - deleteNote
user - -addition






rectangle "Доп. функциональность" as addition {
    (Подсказки при создании заголовка) as helper
    helper ..> (по текущему времени)
    helper ..> (по частоте использования)
    helper ..> (по введенной строке)
    (импорт из toggl)
    (автозапуск в винде)
}

@enduml

PlantUML version 1.2022.7(Mon Aug 22 22:01:30 YEKT 2022)
(GPL source distribution)
Java Runtime: OpenJDK Runtime Environment
JVM: OpenJDK 64-Bit Server VM
Default Encoding: Cp1251
Language: ru
Country: RU
--></g></svg>