<?xml version="1.0" encoding="UTF-8" standalone="no"?><svg xmlns="http://www.w3.org/2000/svg" xmlns:xlink="http://www.w3.org/1999/xlink" contentStyleType="text/css" height="561px" preserveAspectRatio="none" style="width:442px;height:561px;background:#FFFFFF;" version="1.1" viewBox="0 0 442 561" width="442px" zoomAndPan="magnify"><defs/><g><ellipse cx="221" cy="20" fill="#222222" rx="10" ry="10" style="stroke:#222222;stroke-width:1.0;"/><rect fill="#F1F1F1" height="92.7031" style="stroke:#181818;stroke-width:1.5;" width="136" x="153" y="40"/><text fill="#000000" font-family="sans-serif" font-size="14" lengthAdjust="spacing" textLength="116" x="163" y="56.5332">INavigationService</text><rect fill="#F1F1F1" height="35.0938" rx="12.5" ry="12.5" style="stroke:#181818;stroke-width:0.5;" width="76" x="183" y="77.6094"/><text fill="#000000" font-family="sans-serif" font-size="12" lengthAdjust="spacing" textLength="56" x="193" y="100.0664">Navigate()</text><rect fill="#F1F1F1" height="162.7969" style="stroke:#181818;stroke-width:1.5;" width="275" x="83.5" y="142.7031"/><text fill="#000000" font-family="sans-serif" font-size="14" lengthAdjust="spacing" textLength="103" x="169.5" y="159.2363">INavigationStore</text><rect fill="#F1F1F1" height="35.0938" rx="12.5" ry="12.5" style="stroke:#181818;stroke-width:0.5;" width="255" x="93.5" y="180.3125"/><text fill="#000000" font-family="sans-serif" font-size="12" lengthAdjust="spacing" textLength="235" x="103.5" y="202.7695">Смена INavigationStore.CurrentViewModel</text><rect fill="#F1F1F1" height="35.0938" rx="12.5" ry="12.5" style="stroke:#181818;stroke-width:0.5;" width="210" x="116" y="250.4063"/><text fill="#000000" font-family="sans-serif" font-size="12" lengthAdjust="spacing" textLength="190" x="126" y="272.8633">Вызов CurrentViewModelChanged</text><rect fill="#F1F1F1" height="92.7031" style="stroke:#181818;stroke-width:1.5;" width="420" x="11" y="315.5"/><text fill="#000000" font-family="sans-serif" font-size="14" lengthAdjust="spacing" textLength="97" x="172.5" y="332.0332">MainViewModel</text><rect fill="#F1F1F1" height="35.0938" rx="12.5" ry="12.5" style="stroke:#181818;stroke-width:0.5;" width="400" x="21" y="353.1094"/><text fill="#000000" font-family="sans-serif" font-size="12" lengthAdjust="spacing" textLength="380" x="31" y="375.5664">Вызов MainViewModel.PropertyChanged на смену CurrentViewModel</text><rect fill="#F1F1F1" height="92.7031" style="stroke:#181818;stroke-width:1.5;" width="419" x="11.5" y="418.2031"/><text fill="#000000" font-family="sans-serif" font-size="14" lengthAdjust="spacing" textLength="79" x="181.5" y="434.7363">MainWindow</text><rect fill="#F1F1F1" height="35.0938" rx="12.5" ry="12.5" style="stroke:#181818;stroke-width:0.5;" width="399" x="21.5" y="455.8125"/><text fill="#000000" font-family="sans-serif" font-size="12" lengthAdjust="spacing" textLength="379" x="31.5" y="478.2695">Отображение нового View в MainWindow с помощью DateTemplate</text><ellipse cx="221" cy="540.9063" fill="none" rx="10" ry="10" style="stroke:#222222;stroke-width:1.5;"/><line style="stroke:#222222;stroke-width:2.5;" x1="214.8128" x2="227.1872" y1="534.7191" y2="547.0934"/><line style="stroke:#222222;stroke-width:2.5;" x1="227.1872" x2="214.8128" y1="534.7191" y2="547.0934"/><line style="stroke:#181818;stroke-width:1.0;" x1="221" x2="221" y1="30" y2="77.6094"/><polygon fill="#181818" points="217,67.6094,221,77.6094,225,67.6094,221,71.6094" style="stroke:#181818;stroke-width:1.0;"/><line style="stroke:#181818;stroke-width:1.0;" x1="221" x2="221" y1="215.4063" y2="250.4063"/><polygon fill="#181818" points="217,240.4063,221,250.4063,225,240.4063,221,244.4063" style="stroke:#181818;stroke-width:1.0;"/><line style="stroke:#181818;stroke-width:1.0;" x1="221" x2="221" y1="112.7031" y2="180.3125"/><polygon fill="#181818" points="217,170.3125,221,180.3125,225,170.3125,221,174.3125" style="stroke:#181818;stroke-width:1.0;"/><line style="stroke:#181818;stroke-width:1.0;" x1="221" x2="221" y1="285.5" y2="353.1094"/><polygon fill="#181818" points="217,343.1094,221,353.1094,225,343.1094,221,347.1094" style="stroke:#181818;stroke-width:1.0;"/><line style="stroke:#181818;stroke-width:1.0;" x1="221" x2="221" y1="388.2031" y2="455.8125"/><polygon fill="#181818" points="217,445.8125,221,455.8125,225,445.8125,221,449.8125" style="stroke:#181818;stroke-width:1.0;"/><line style="stroke:#181818;stroke-width:1.0;" x1="221" x2="221" y1="490.9063" y2="530.9063"/><polygon fill="#181818" points="217,520.9063,221,530.9063,225,520.9063,221,524.9063" style="stroke:#181818;stroke-width:1.0;"/><!--MD5=[3f6bc3a0b6fbf9294660e97ce1f1a537]
@startuml


start
rectangle "INavigationService"{
    :Navigate();
}

rectangle "INavigationStore" {
    :Смена INavigationStore.CurrentViewModel;
    :Вызов CurrentViewModelChanged;
}
rectangle "MainViewModel"{
    :Вызов MainViewModel.PropertyChanged на смену CurrentViewModel;
}
rectangle "MainWindow"{
:Отображение нового View в MainWindow с помощью DateTemplate;

}

end

@enduml

PlantUML version 1.2022.7(Mon Aug 22 22:01:30 YEKT 2022)
(GPL source distribution)
Java Runtime: OpenJDK Runtime Environment
JVM: OpenJDK 64-Bit Server VM
Default Encoding: Cp1251
Language: ru
Country: RU
--></g></svg>